<svg version="1.1" id="Layer_1" xmlns="http://www.w3.org/2000/svg" xmlns:xlink="http://www.w3.org/1999/xlink" x="0px" y="0px"
	 width="100%" viewBox="0 0 516 167" enable-background="new 0 0 516 167" xml:space="preserve">
<path fill="#FEFEFE" opacity="1.000000" stroke="none" 
	d="
M394.000000,168.000000 
	C262.666656,168.000000 131.833328,168.000000 1.000000,168.000000 
	C1.000000,112.333336 1.000000,56.666668 1.000000,1.000000 
	C173.000000,1.000000 345.000000,1.000000 517.000000,1.000000 
	C517.000000,56.666668 517.000000,112.333336 517.000000,168.000000 
	C476.166656,168.000000 435.333344,168.000000 394.000000,168.000000 
M334.507751,82.845123 
	C328.010376,82.845039 321.512970,82.844902 315.015594,82.844872 
	C306.307037,82.844826 306.320923,82.847382 304.790985,91.277596 
	C304.646576,92.073082 304.185303,92.811058 303.617889,94.192291 
	C300.671448,90.179359 297.966339,86.495155 295.196991,82.723427 
	C293.973297,84.308319 293.021698,85.540840 292.511566,86.201530 
	C286.446014,80.159782 279.378174,84.698044 273.321686,82.976288 
	C272.813263,85.707184 272.412445,87.860092 272.087402,89.605911 
	C268.211792,87.455940 264.774170,84.232124 261.002899,83.777763 
	C255.856552,83.157738 250.431641,84.484306 245.170059,85.270210 
	C236.789932,86.521889 236.812759,86.625160 235.959137,94.981163 
	C235.920059,95.363708 235.528336,95.710236 234.892563,96.725586 
	C232.862625,91.827110 231.058838,87.474365 229.145432,82.857132 
	C224.973206,83.515686 220.847672,83.981804 216.825958,84.901764 
	C215.413223,85.224930 213.731369,86.384331 213.068527,87.636314 
	C209.572495,94.239807 206.362717,100.994843 202.918030,107.971954 
	C200.714905,99.623108 198.512711,91.277763 196.288864,82.850410 
	C189.663071,83.923721 182.417923,80.705055 178.679352,89.206863 
	C177.651398,86.884583 176.954849,85.311005 176.193130,83.590179 
	C172.874466,83.590179 169.493225,83.966011 166.234558,83.494591 
	C162.203354,82.911423 160.124939,84.769905 158.671371,88.046974 
	C152.686935,101.538940 146.494186,114.945267 140.877441,128.588684 
	C139.501541,131.930862 139.922348,136.046539 139.747070,139.817291 
	C139.716324,140.479187 140.718307,141.639191 141.430008,141.815445 
	C148.096466,143.466446 154.803619,144.953201 161.578720,146.505722 
	C163.715332,140.224258 165.787170,134.133194 167.991455,127.652779 
	C170.400787,131.086548 172.429337,133.977600 174.467178,136.881927 
	C177.384506,134.221344 180.218033,131.637161 183.660172,128.497925 
	C184.892288,135.207550 185.973633,141.096176 187.035873,146.880737 
	C196.459747,146.880737 205.191101,146.880737 214.102173,146.880737 
	C215.089859,143.444977 216.161209,139.718170 217.197739,136.112534 
	C219.282333,136.112534 220.912659,136.112534 222.881973,136.112534 
	C223.377106,139.756485 223.860291,143.312637 224.366226,147.036133 
	C231.088623,147.725006 237.578354,144.480103 244.540482,146.809937 
	C251.262604,149.059448 258.600525,144.802475 265.660492,147.317596 
	C266.532837,147.628342 267.821014,146.680923 268.940369,146.418045 
	C269.815948,146.212418 270.734283,146.029007 271.623688,146.067261 
	C278.480286,146.362106 285.332916,146.810608 292.191437,146.920273 
	C293.018494,146.933502 293.873383,145.208099 294.739227,144.262466 
	C301.087677,153.487030 300.812439,140.994781 304.761871,141.862259 
	C304.996643,143.282181 305.275055,144.966232 305.569214,146.745331 
	C326.771606,146.745331 347.678802,146.745331 369.435883,146.745331 
	C368.687195,137.488617 367.964294,128.550659 367.221100,119.362053 
	C370.659729,120.154900 373.680115,120.851318 377.033264,121.624458 
	C377.033264,109.093864 377.033264,96.733528 377.033264,84.406853 
	C362.758636,83.870140 349.133881,83.357857 334.507751,82.845123 
M80.651428,14.985578 
	C72.303909,12.579818 69.836143,22.228580 63.864014,23.722092 
	C61.915318,21.321154 60.613071,18.046045 58.690762,17.628994 
	C48.830528,15.489796 38.702469,11.921124 28.638756,19.284893 
	C29.236801,38.512936 29.846729,58.123047 30.466185,78.039467 
	C38.679764,78.039467 46.321972,78.186836 53.953602,77.967003 
	C57.010757,77.878944 60.484413,77.718803 62.960751,76.239403 
	C65.263618,74.863647 66.492310,71.689842 68.351799,69.086609 
	C68.755577,69.620705 69.242592,70.419067 69.876450,71.075676 
	C72.160812,73.442039 74.198868,77.190338 76.882584,77.745583 
	C80.464142,78.486580 84.607475,76.920998 88.423134,75.991455 
	C91.436142,75.257462 94.248383,73.591133 97.276604,73.054535 
	C101.294342,72.342606 102.957664,70.294960 103.053238,66.347733 
	C103.115433,63.779335 103.667557,61.222805 104.000191,58.660957 
	C104.324837,58.648304 104.649483,58.635647 104.974136,58.622990 
	C106.217377,65.049828 107.460625,71.476662 108.716187,77.967171 
	C113.564514,77.967171 118.532715,77.967171 123.416862,77.967171 
	C124.073975,76.521645 124.657951,75.237000 125.015694,74.450020 
	C126.250366,75.704033 127.293625,77.718269 128.539948,77.852905 
	C132.492050,78.279854 136.522888,78.083290 140.516129,77.935089 
	C141.305832,77.905777 142.522308,77.179573 142.759369,76.501251 
	C143.984848,72.994591 144.851044,69.363220 146.051041,65.846489 
	C146.915314,63.313690 148.106232,60.892349 149.151459,58.421291 
	C148.794266,68.558556 157.698120,72.258125 163.299179,75.692703 
	C169.178284,79.297775 178.032776,78.050659 185.276642,78.888161 
	C187.152084,74.946335 188.544983,72.018745 190.439972,68.035843 
	C191.242310,72.163925 191.810135,75.085510 192.393539,78.087189 
	C208.005508,78.087189 223.325424,78.091721 238.645325,78.083733 
	C242.109375,78.081932 245.807831,78.799309 248.979980,77.824341 
	C253.249115,76.512222 258.985626,74.841316 260.667053,71.566002 
	C262.685577,67.634003 262.712158,61.001698 260.650940,57.095394 
	C258.295288,52.631104 258.195953,48.572968 257.988495,44.101219 
	C257.733856,38.612747 257.411652,33.124077 256.929565,27.652151 
	C256.826508,26.482784 256.159668,25.135199 255.321960,24.303398 
	C253.239670,22.235834 250.887451,20.442791 248.683167,18.494766 
	C245.597366,15.767685 242.308792,14.565431 237.941208,15.047815 
	C232.881653,15.606627 227.694611,14.948243 222.562454,14.926153 
	C212.432007,14.882549 202.301208,14.913296 192.376358,14.913296 
	C191.845505,17.454197 191.409714,19.540083 190.682755,23.019636 
	C187.425064,14.216004 181.048248,14.315868 174.467026,14.900287 
	C173.971100,14.944324 173.452271,14.986828 172.970474,14.893659 
	C168.643021,14.056826 166.820496,16.977663 165.031357,20.062920 
	C163.918564,21.981865 162.644424,23.807236 160.796951,26.678040 
	C160.495514,23.613346 160.336029,21.991947 160.157135,20.173014 
	C153.767471,18.463591 147.433899,16.769173 140.689972,14.964972 
	C138.458908,20.978260 136.266190,26.888174 133.853333,33.391411 
	C131.838867,30.005028 130.164352,27.190094 128.433670,24.280769 
	C126.361191,27.261415 124.524940,29.902313 122.688690,32.543213 
	C122.267776,32.355335 121.846863,32.167458 121.425949,31.979578 
	C120.119751,26.284702 118.813545,20.589828 117.448273,14.637399 
	C112.791328,15.014828 108.491058,15.607956 104.185959,15.645499 
	C99.610626,15.685397 96.424988,16.690432 97.885017,23.166433 
	C96.599693,22.002058 95.904602,21.675411 95.733994,21.171272 
	C93.882965,15.701549 89.900681,14.201593 84.588821,14.970607 
	C83.609810,15.112342 82.592422,14.989023 80.651428,14.985578 
M364.449585,78.063568 
	C365.448883,78.045006 366.479889,77.856483 367.442291,78.035835 
	C373.126770,79.095230 376.614868,76.560913 379.063904,71.590965 
	C380.401123,68.877258 382.439484,66.509048 384.499573,63.489788 
	C385.133301,68.712105 385.680664,73.222466 386.204071,77.535721 
	C417.789612,77.535721 448.908722,77.535721 480.889893,77.535721 
	C480.179108,68.798958 479.463531,60.003685 478.710266,50.744667 
	C482.490875,51.495071 486.029205,52.197388 489.794678,52.944790 
	C489.794678,40.524384 489.794678,28.251043 489.794678,15.840645 
	C489.067047,15.678708 488.437622,15.422301 487.805328,15.414986 
	C473.648254,15.251168 459.481934,14.763640 445.337311,15.122203 
	C438.328979,15.299860 430.725677,12.771648 424.371124,18.156849 
	C422.954651,19.357244 421.312958,20.291845 419.123199,21.796734 
	C419.123199,19.058607 419.123199,17.158197 419.123199,14.906732 
	C417.088623,14.906732 415.451904,14.895016 413.815399,14.908601 
	C401.706543,15.009110 389.597839,15.171062 377.488861,15.199600 
	C368.829559,15.220008 360.013519,14.060400 351.571106,15.375992 
	C346.782684,16.122173 342.381958,16.572094 337.681122,15.843958 
	C334.411865,15.337564 331.058136,14.826379 327.789764,15.041224 
	C325.250977,15.208109 322.529358,16.076727 320.365845,17.408220 
	C318.507538,18.551868 317.324249,20.792297 315.487885,22.967794 
	C313.679321,14.740351 307.315063,14.874745 300.364807,14.794388 
	C294.888580,14.731073 290.915466,16.709442 287.142303,20.093052 
	C285.926575,21.183289 284.374298,21.935019 283.291809,23.128159 
	C281.772491,24.802792 279.601746,26.628479 279.359680,28.592865 
	C278.245392,37.636395 277.602905,46.744495 277.059692,55.845459 
	C276.971649,57.321293 277.913391,59.152771 278.932434,60.348167 
	C282.775146,64.855850 287.419891,68.783844 290.687225,73.651825 
	C294.799591,79.778839 299.677002,78.487343 305.001678,76.673035 
	C307.668365,75.764397 310.241760,74.578529 312.917267,73.700531 
	C314.412933,73.209702 316.031189,73.092354 317.813538,72.766617 
	C317.956757,74.726524 318.071899,76.302521 318.202209,78.085953 
	C333.526794,78.085953 348.495239,78.085953 364.449585,78.063568 
z"/>
<path fill="#070604" opacity="1.000000" stroke="none" 
	d="
M335.008423,82.845352 
	C349.133881,83.357857 362.758636,83.870140 377.033264,84.406853 
	C377.033264,96.733528 377.033264,109.093864 377.033264,121.624458 
	C373.680115,120.851318 370.659729,120.154900 367.221100,119.362053 
	C367.964294,128.550659 368.687195,137.488617 369.435883,146.745331 
	C347.678802,146.745331 326.771606,146.745331 305.569214,146.745331 
	C305.275055,144.966232 304.996643,143.282181 304.761871,141.862259 
	C300.812439,140.994781 301.087677,153.487030 294.739227,144.262466 
	C293.873383,145.208099 293.018494,146.933502 292.191437,146.920273 
	C285.332916,146.810608 278.480286,146.362106 271.623688,146.067261 
	C270.734283,146.029007 269.815948,146.212418 268.940369,146.418045 
	C267.821014,146.680923 266.532837,147.628342 265.660492,147.317596 
	C258.600525,144.802475 251.262604,149.059448 244.540482,146.809937 
	C237.578354,144.480103 231.088623,147.725006 224.366226,147.036133 
	C223.860291,143.312637 223.377106,139.756485 222.881973,136.112534 
	C220.912659,136.112534 219.282333,136.112534 217.197739,136.112534 
	C216.161209,139.718170 215.089859,143.444977 214.102173,146.880737 
	C205.191101,146.880737 196.459747,146.880737 187.035873,146.880737 
	C185.973633,141.096176 184.892288,135.207550 183.660172,128.497925 
	C180.218033,131.637161 177.384506,134.221344 174.467178,136.881927 
	C172.429337,133.977600 170.400787,131.086548 167.991455,127.652779 
	C165.787170,134.133194 163.715332,140.224258 161.578720,146.505722 
	C154.803619,144.953201 148.096466,143.466446 141.430008,141.815445 
	C140.718307,141.639191 139.716324,140.479187 139.747070,139.817291 
	C139.922348,136.046539 139.501541,131.930862 140.877441,128.588684 
	C146.494186,114.945267 152.686935,101.538940 158.671371,88.046974 
	C160.124939,84.769905 162.203354,82.911423 166.234558,83.494591 
	C169.493225,83.966011 172.874466,83.590179 176.193130,83.590179 
	C176.954849,85.311005 177.651398,86.884583 178.679352,89.206863 
	C182.417923,80.705055 189.663071,83.923721 196.288864,82.850410 
	C198.512711,91.277763 200.714905,99.623108 202.918030,107.971954 
	C206.362717,100.994843 209.572495,94.239807 213.068527,87.636314 
	C213.731369,86.384331 215.413223,85.224930 216.825958,84.901764 
	C220.847672,83.981804 224.973206,83.515686 229.145432,82.857132 
	C231.058838,87.474365 232.862625,91.827110 234.892563,96.725586 
	C235.528336,95.710236 235.920059,95.363708 235.959137,94.981163 
	C236.812759,86.625160 236.789932,86.521889 245.170059,85.270210 
	C250.431641,84.484306 255.856552,83.157738 261.002899,83.777763 
	C264.774170,84.232124 268.211792,87.455940 272.087402,89.605911 
	C272.412445,87.860092 272.813263,85.707184 273.321686,82.976288 
	C279.378174,84.698044 286.446014,80.159782 292.511566,86.201530 
	C293.021698,85.540840 293.973297,84.308319 295.196991,82.723427 
	C297.966339,86.495155 300.671448,90.179359 303.617889,94.192291 
	C304.185303,92.811058 304.646576,92.073082 304.790985,91.277596 
	C306.320923,82.847382 306.307037,82.844826 315.015594,82.844872 
	C321.512970,82.844902 328.010376,82.845039 335.008423,82.845352 
M202.797546,124.713188 
	C199.643585,112.252090 196.489624,99.790993 193.346146,87.371284 
	C184.764816,86.558739 184.782120,86.567551 181.151505,93.698174 
	C180.150543,95.664116 179.012970,97.560516 177.586212,100.120110 
	C176.521576,96.652481 175.978897,93.757042 174.725143,91.211876 
	C173.936050,89.609947 172.150604,87.531052 170.690704,87.430611 
	C167.734512,87.227203 164.107925,85.704361 162.135742,90.172127 
	C158.377792,98.685341 154.092529,106.964142 150.191803,115.416702 
	C148.316727,119.479820 146.818573,123.716881 144.980881,128.295914 
	C150.443832,129.773834 154.807495,130.954361 159.231979,132.151321 
	C162.115280,124.374458 164.728653,117.325661 167.451294,109.982147 
	C170.276566,113.863815 172.654129,117.130363 175.172913,120.590927 
	C178.437347,117.562912 181.297653,114.909760 184.565277,111.878784 
	C186.585052,119.196602 188.450714,125.956039 190.430740,133.129837 
	C195.035538,132.640533 199.422104,132.174423 204.266327,131.659683 
	C203.803650,129.355515 203.418457,127.437302 202.797546,124.713188 
M274.328918,124.116089 
	C271.924072,121.960411 269.519257,119.804741 267.072510,117.611496 
	C267.862244,116.581314 268.318604,115.881683 268.876068,115.274925 
	C274.958282,108.654457 274.214355,98.046371 267.249115,92.450104 
	C265.238403,90.834587 263.182281,87.880974 261.178497,87.907669 
	C254.637634,87.994835 248.111328,89.174576 241.979782,89.887489 
	C241.979782,94.092056 241.979050,97.565590 241.979919,101.039131 
	C241.982239,110.322571 242.139908,119.313309 246.277817,128.254318 
	C248.673950,133.431793 251.043121,133.348648 255.310684,132.549515 
	C254.915588,129.309677 254.546814,126.285759 254.043442,122.158089 
	C256.115936,123.639442 257.600647,124.361320 258.634705,125.494461 
	C265.732147,133.272156 265.700684,133.297791 275.050568,128.306107 
	C275.607300,128.008881 276.203857,127.786346 276.904266,127.474564 
	C276.189789,126.453819 275.532898,125.515373 274.328918,124.116089 
M373.495178,105.730759 
	C373.495178,99.814606 373.495178,93.898460 373.495178,87.518295 
	C361.618958,87.518295 349.700867,87.518295 337.464264,87.518295 
	C337.050079,92.845978 336.643555,98.074913 336.222839,103.486572 
	C340.493591,104.032471 344.547638,104.550674 348.825348,105.097466 
	C347.930695,114.501297 347.072998,123.516624 346.200623,132.686005 
	C352.385254,132.686005 358.125793,132.686005 364.200775,132.686005 
	C363.033722,123.367409 361.908691,114.384499 360.690765,104.659958 
	C365.081207,105.080383 368.839355,105.440254 373.495178,105.730759 
M333.183167,132.984985 
	C334.401428,132.828247 335.619720,132.671509 336.824066,132.516556 
	C335.647736,122.331436 334.389984,121.148720 324.934357,120.951180 
	C324.268646,120.937271 323.449280,121.180389 322.967590,120.878792 
	C321.841339,120.173607 320.877075,119.209717 319.103485,117.730141 
	C323.591522,116.826683 326.774475,116.185951 330.015961,115.533440 
	C330.265900,112.254173 330.486389,109.361473 330.703491,106.512863 
	C326.707306,105.783844 323.260620,105.155075 319.813934,104.526299 
	C319.741882,103.938759 319.669861,103.351212 319.597809,102.763664 
	C321.970428,102.180634 324.430756,100.880516 326.698212,101.157745 
	C332.096161,101.817703 333.158356,98.430672 333.804962,94.525497 
	C334.177948,92.272697 334.065399,89.939499 334.186249,87.320450 
	C325.729248,87.320450 317.663300,87.320450 309.395386,87.320450 
	C309.067932,89.580490 308.849335,91.698219 308.444427,93.779716 
	C306.514984,103.698715 304.230347,113.643181 310.747101,120.895546 
	C309.886322,125.626221 309.267090,129.029541 308.547302,132.985413 
	C317.307343,132.985413 324.780457,132.985413 333.183167,132.984985 
M205.073639,111.872681 
	C204.979584,114.448402 204.559418,117.064842 204.874725,119.589439 
	C205.261505,122.686295 206.149536,125.740379 207.048981,128.744675 
	C207.474228,130.165115 208.430328,131.426636 209.145905,132.760178 
	C210.085480,131.635269 211.262558,130.628662 211.898285,129.352402 
	C212.543320,128.057480 212.539230,126.455284 213.036774,125.065475 
	C213.399643,124.051819 214.068085,122.386597 214.681274,122.349495 
	C218.139572,122.140213 221.732269,121.873489 225.033539,122.658813 
	C226.101166,122.912796 226.474640,126.275169 227.074539,128.243423 
	C227.538757,129.766510 227.861008,131.332870 228.286621,133.041626 
	C233.480103,132.085205 238.095840,131.235184 243.699753,130.203171 
	C238.176224,116.391449 233.043808,103.559990 227.916183,90.726631 
	C227.732300,90.266373 227.733078,89.625610 227.408875,89.350052 
	C226.705505,88.752213 225.804810,87.859505 225.059418,87.925819 
	C220.998138,88.287140 217.041504,88.418724 214.885620,93.235664 
	C212.130386,99.391754 208.550858,105.178925 205.073639,111.872681 
M300.905304,97.004181 
	C299.073822,94.640823 297.242371,92.277466 295.326599,89.805298 
	C292.402466,93.198547 289.811676,96.204987 286.564453,99.973175 
	C286.564453,95.196976 286.564453,91.434662 286.564453,87.479042 
	C283.285217,87.479042 280.373901,87.479042 277.244720,87.479042 
	C277.106262,88.508972 276.927246,89.298172 276.904663,90.091820 
	C276.649353,99.062729 276.292633,108.034134 276.278595,117.005905 
	C276.275543,118.966400 277.045441,121.315971 278.275208,122.818726 
	C282.158447,127.564018 282.261292,128.939270 278.007080,132.740784 
	C281.161743,132.740784 284.445343,132.740784 288.199310,132.740784 
	C287.925354,128.990814 287.671783,125.519440 287.418182,122.048073 
	C287.830444,121.762047 288.242676,121.476021 288.654907,121.189995 
	C291.879608,124.916885 295.104340,128.643768 298.459991,132.522003 
	C300.957764,129.276047 303.432495,126.060043 306.153778,122.523613 
	C303.105286,119.667465 300.457306,116.387657 297.087433,114.241386 
	C293.290985,111.823448 293.709839,109.826332 295.932800,106.725670 
	C297.939575,103.926544 299.428833,100.756401 300.905304,97.004181 
M338.233521,124.072884 
	C339.258118,126.859116 340.282715,129.645340 341.307343,132.431580 
	C341.630035,132.378708 341.952759,132.325836 342.275482,132.272964 
	C342.581055,127.603874 342.886627,122.934784 343.204956,118.070755 
	C340.701385,118.070755 338.944702,118.070755 336.660126,118.070755 
	C337.063599,120.032349 337.408783,121.710434 338.233521,124.072884 
z"/>
<path fill="#060504" opacity="1.000000" stroke="none" 
	d="
M81.122086,14.986811 
	C82.592422,14.989023 83.609810,15.112342 84.588821,14.970607 
	C89.900681,14.201593 93.882965,15.701549 95.733994,21.171272 
	C95.904602,21.675411 96.599693,22.002058 97.885017,23.166433 
	C96.424988,16.690432 99.610626,15.685397 104.185959,15.645499 
	C108.491058,15.607956 112.791328,15.014828 117.448273,14.637399 
	C118.813545,20.589828 120.119751,26.284702 121.425949,31.979578 
	C121.846863,32.167458 122.267776,32.355335 122.688690,32.543213 
	C124.524940,29.902313 126.361191,27.261415 128.433670,24.280769 
	C130.164352,27.190094 131.838867,30.005028 133.853333,33.391411 
	C136.266190,26.888174 138.458908,20.978260 140.689972,14.964972 
	C147.433899,16.769173 153.767471,18.463591 160.157135,20.173014 
	C160.336029,21.991947 160.495514,23.613346 160.796951,26.678040 
	C162.644424,23.807236 163.918564,21.981865 165.031357,20.062920 
	C166.820496,16.977663 168.643021,14.056826 172.970474,14.893659 
	C173.452271,14.986828 173.971100,14.944324 174.467026,14.900287 
	C181.048248,14.315868 187.425064,14.216004 190.682755,23.019636 
	C191.409714,19.540083 191.845505,17.454197 192.376358,14.913296 
	C202.301208,14.913296 212.432007,14.882549 222.562454,14.926153 
	C227.694611,14.948243 232.881653,15.606627 237.941208,15.047815 
	C242.308792,14.565431 245.597366,15.767685 248.683167,18.494766 
	C250.887451,20.442791 253.239670,22.235834 255.321960,24.303398 
	C256.159668,25.135199 256.826508,26.482784 256.929565,27.652151 
	C257.411652,33.124077 257.733856,38.612747 257.988495,44.101219 
	C258.195953,48.572968 258.295288,52.631104 260.650940,57.095394 
	C262.712158,61.001698 262.685577,67.634003 260.667053,71.566002 
	C258.985626,74.841316 253.249115,76.512222 248.979980,77.824341 
	C245.807831,78.799309 242.109375,78.081932 238.645325,78.083733 
	C223.325424,78.091721 208.005508,78.087189 192.393539,78.087189 
	C191.810135,75.085510 191.242310,72.163925 190.439972,68.035843 
	C188.544983,72.018745 187.152084,74.946335 185.276642,78.888161 
	C178.032776,78.050659 169.178284,79.297775 163.299179,75.692703 
	C157.698120,72.258125 148.794266,68.558556 149.151459,58.421291 
	C148.106232,60.892349 146.915314,63.313690 146.051041,65.846489 
	C144.851044,69.363220 143.984848,72.994591 142.759369,76.501251 
	C142.522308,77.179573 141.305832,77.905777 140.516129,77.935089 
	C136.522888,78.083290 132.492050,78.279854 128.539948,77.852905 
	C127.293625,77.718269 126.250366,75.704033 125.015694,74.450020 
	C124.657951,75.237000 124.073975,76.521645 123.416862,77.967171 
	C118.532715,77.967171 113.564514,77.967171 108.716187,77.967171 
	C107.460625,71.476662 106.217377,65.049828 104.974136,58.622990 
	C104.649483,58.635647 104.324837,58.648304 104.000191,58.660957 
	C103.667557,61.222805 103.115433,63.779335 103.053238,66.347733 
	C102.957664,70.294960 101.294342,72.342606 97.276604,73.054535 
	C94.248383,73.591133 91.436142,75.257462 88.423134,75.991455 
	C84.607475,76.920998 80.464142,78.486580 76.882584,77.745583 
	C74.198868,77.190338 72.160812,73.442039 69.876450,71.075676 
	C69.242592,70.419067 68.755577,69.620705 68.351799,69.086609 
	C66.492310,71.689842 65.263618,74.863647 62.960751,76.239403 
	C60.484413,77.718803 57.010757,77.878944 53.953602,77.967003 
	C46.321972,78.186836 38.679764,78.039467 30.466185,78.039467 
	C29.846729,58.123047 29.236801,38.512936 28.638756,19.284893 
	C38.702469,11.921124 48.830528,15.489796 58.690762,17.628994 
	C60.613071,18.046045 61.915318,21.321154 63.864014,23.722092 
	C69.836143,22.228580 72.303909,12.579818 81.122086,14.986811 
M236.677673,54.946854 
	C242.277390,60.867931 247.639389,67.814827 256.533966,59.584591 
	C256.732727,59.400654 256.747864,59.018246 256.960083,58.408119 
	C254.711090,56.003773 252.220551,53.601498 250.089355,50.914238 
	C249.392319,50.035328 249.023468,47.662178 249.534119,47.250965 
	C254.460052,43.284279 253.066055,37.949604 252.973190,32.903812 
	C252.852066,26.323400 245.234375,19.483076 238.639999,20.128111 
	C234.672668,20.516176 230.748276,21.380436 226.778030,21.688978 
	C223.994873,21.905272 222.929321,23.164347 223.020111,25.786577 
	C223.359833,35.598686 223.259293,45.449581 224.139084,55.212463 
	C224.932541,64.017052 227.493759,65.597023 236.046799,64.178009 
	C236.046799,61.153042 236.046799,58.055843 236.007477,54.995998 
	C236.007477,54.995998 235.972031,55.037060 236.677673,54.946854 
M116.820038,30.565893 
	C115.940369,26.769207 115.060699,22.972519 114.150963,19.046032 
	C110.028992,19.609863 106.639053,20.073563 102.763489,20.603687 
	C104.221939,27.136887 105.730110,33.200390 106.902191,39.328182 
	C108.206924,46.149429 109.031853,53.065807 110.461960,59.857315 
	C110.812126,61.520222 112.777718,64.152916 113.877258,64.092560 
	C116.718399,63.936623 120.747696,66.108353 122.134438,61.019524 
	C122.856369,58.370262 124.624146,56.005997 126.072243,53.219044 
	C127.238503,57.314922 128.198990,60.688175 129.097122,63.842411 
	C141.504196,64.020309 138.155594,65.529793 142.477051,56.060970 
	C145.484085,49.472191 147.484192,42.428837 150.058014,35.635487 
	C151.564575,31.659050 153.314331,27.774754 154.985504,23.775236 
	C150.713699,22.699478 147.089279,21.786747 142.900558,20.731909 
	C140.202866,27.810221 137.534149,34.812489 134.579361,42.565422 
	C132.124939,38.505947 130.124924,35.198017 127.971329,31.636084 
	C125.234024,35.013649 122.890320,37.905552 120.035057,41.428669 
	C118.913208,37.601032 117.996773,34.474236 116.820038,30.565893 
M64.928375,55.165092 
	C63.495708,50.693443 62.063046,46.221794 60.370819,40.940002 
	C60.714245,38.305794 62.178802,34.143803 61.456558,30.404161 
	C60.864563,27.338953 58.240376,23.567446 55.495956,22.271744 
	C51.276558,20.279671 46.212204,19.919102 41.451118,19.274033 
	C35.938416,18.527128 32.070774,22.223726 32.232853,27.725206 
	C32.467785,35.699490 32.741596,43.672836 33.046623,51.644753 
	C33.209904,55.912064 33.473286,60.175541 33.685593,64.325470 
	C40.612343,64.325470 46.911495,64.154999 53.197102,64.373749 
	C59.394341,64.589439 63.347225,62.123394 64.928375,55.165092 
M88.057098,61.538357 
	C91.622307,60.459412 95.187508,59.380466 98.570564,58.356647 
	C98.962173,55.438496 99.135284,52.779423 99.698898,50.205868 
	C101.376633,42.545094 102.905891,34.982864 96.466476,28.530043 
	C93.557526,25.615042 91.281998,21.169271 87.811401,19.900106 
	C80.540848,17.241335 73.551704,19.353144 68.418762,25.564070 
	C67.089310,27.172728 66.051315,29.258251 65.567001,31.288727 
	C63.412788,40.320248 67.557014,48.413383 70.284355,56.495422 
	C72.579102,63.295559 78.950943,65.258423 85.507278,62.655067 
	C86.119972,62.411781 86.718002,62.131561 88.057098,61.538357 
M185.984100,39.965557 
	C187.954620,37.128933 191.542923,34.239525 191.452560,31.470150 
	C191.357208,28.547810 187.750900,25.741180 185.683823,22.880100 
	C185.490814,22.612959 185.332458,22.320215 185.165039,22.035240 
	C182.953766,18.271463 172.464203,17.315485 169.729340,20.855595 
	C165.634537,26.156061 161.839981,31.688463 157.838455,37.232029 
	C158.338745,37.826817 158.675247,38.417435 159.174561,38.789627 
	C162.458038,41.237198 165.859970,43.535366 169.030670,46.118652 
	C169.929184,46.850697 170.186325,48.369930 170.737595,49.528149 
	C169.405899,49.348171 167.858292,49.536800 166.788300,48.910049 
	C164.681351,47.675907 162.839493,45.989204 160.305084,44.041813 
	C158.604736,47.966339 156.876480,50.834354 156.205460,53.931427 
	C155.813370,55.741089 167.192017,64.735939 169.294113,64.776283 
	C173.116898,64.849640 176.955780,64.980743 180.759186,64.699318 
	C182.159103,64.595734 184.166840,63.728310 184.701874,62.627987 
	C186.200623,59.545769 187.384811,56.223232 188.067688,52.868221 
	C188.412903,51.172115 187.983078,48.695217 186.895706,47.455269 
	C184.328079,44.527344 181.061295,42.224133 178.293533,39.452328 
	C177.561478,38.719223 177.614639,37.202057 177.307251,36.044910 
	C178.474167,36.035175 179.935257,35.576199 180.747513,36.108078 
	C182.505692,37.259365 183.931564,38.918102 185.984100,39.965557 
M220.955582,55.598022 
	C220.205307,51.843697 217.407104,51.946823 214.463760,51.967510 
	C211.908234,51.985474 209.349991,51.617676 206.792938,51.420364 
	C206.844345,50.778469 206.895752,50.136574 206.947159,49.494678 
	C210.127289,48.998440 213.307404,48.502201 216.631714,47.983459 
	C216.631714,44.540230 216.631714,41.470528 216.631714,38.457584 
	C212.622803,37.828064 208.953873,37.251934 204.388062,36.534966 
	C208.456360,30.479744 214.872559,34.774632 218.647842,31.258923 
	C219.414062,27.457966 220.220184,23.458944 221.080063,19.193375 
	C212.480850,19.193375 204.239502,19.193375 196.390533,19.193375 
	C192.775467,23.867113 194.724213,27.599052 197.989380,31.055340 
	C193.460739,34.379189 192.494003,38.237728 193.456390,43.466896 
	C194.727386,50.372971 194.847488,57.490864 195.464981,64.548363 
	C205.064148,64.548363 213.847198,64.548363 223.527664,64.548363 
	C222.609406,61.549126 221.824829,58.986504 220.955582,55.598022 
z"/>
<path fill="#050604" opacity="1.000000" stroke="none" 
	d="
M363.956635,78.074760 
	C348.495239,78.085953 333.526794,78.085953 318.202209,78.085953 
	C318.071899,76.302521 317.956757,74.726524 317.813538,72.766617 
	C316.031189,73.092354 314.412933,73.209702 312.917267,73.700531 
	C310.241760,74.578529 307.668365,75.764397 305.001678,76.673035 
	C299.677002,78.487343 294.799591,79.778839 290.687225,73.651825 
	C287.419891,68.783844 282.775146,64.855850 278.932434,60.348167 
	C277.913391,59.152771 276.971649,57.321293 277.059692,55.845459 
	C277.602905,46.744495 278.245392,37.636395 279.359680,28.592865 
	C279.601746,26.628479 281.772491,24.802792 283.291809,23.128159 
	C284.374298,21.935019 285.926575,21.183289 287.142303,20.093052 
	C290.915466,16.709442 294.888580,14.731073 300.364807,14.794388 
	C307.315063,14.874745 313.679321,14.740351 315.487885,22.967794 
	C317.324249,20.792297 318.507538,18.551868 320.365845,17.408220 
	C322.529358,16.076727 325.250977,15.208109 327.789764,15.041224 
	C331.058136,14.826379 334.411865,15.337564 337.681122,15.843958 
	C342.381958,16.572094 346.782684,16.122173 351.571106,15.375992 
	C360.013519,14.060400 368.829559,15.220008 377.488861,15.199600 
	C389.597839,15.171062 401.706543,15.009110 413.815399,14.908601 
	C415.451904,14.895016 417.088623,14.906732 419.123199,14.906732 
	C419.123199,17.158197 419.123199,19.058607 419.123199,21.796734 
	C421.312958,20.291845 422.954651,19.357244 424.371124,18.156849 
	C430.725677,12.771648 438.328979,15.299860 445.337311,15.122203 
	C459.481934,14.763640 473.648254,15.251168 487.805328,15.414986 
	C488.437622,15.422301 489.067047,15.678708 489.794678,15.840645 
	C489.794678,28.251043 489.794678,40.524384 489.794678,52.944790 
	C486.029205,52.197388 482.490875,51.495071 478.710266,50.744667 
	C479.463531,60.003685 480.179108,68.798958 480.889893,77.535721 
	C448.908722,77.535721 417.789612,77.535721 386.204071,77.535721 
	C385.680664,73.222466 385.133301,68.712105 384.499573,63.489788 
	C382.439484,66.509048 380.401123,68.877258 379.063904,71.590965 
	C376.614868,76.560913 373.126770,79.095230 367.442291,78.035835 
	C366.479889,77.856483 365.448883,78.045006 363.956635,78.074760 
M294.129272,61.524380 
	C295.961426,64.633995 298.566895,64.370132 301.487396,63.360760 
	C305.388519,62.012463 309.284363,60.530216 313.303955,59.679707 
	C316.711578,58.958687 317.983887,57.259773 318.015076,53.946281 
	C318.049286,50.307194 317.746765,46.471455 318.777740,43.082436 
	C320.180847,38.470341 319.254120,34.733826 316.745056,31.032705 
	C315.092804,28.595512 313.712006,25.872561 311.651794,23.844252 
	C309.836548,22.057137 307.375763,20.738703 304.975769,19.767584 
	C297.710999,16.828007 292.628998,21.754190 286.952454,24.908901 
	C282.694641,27.275158 281.851440,30.642759 281.816406,35.083588 
	C281.782867,39.337330 280.812012,43.581112 280.337280,47.838665 
	C280.297974,48.191246 280.858734,48.661507 281.214386,48.999599 
	C285.387939,52.967411 289.575623,56.920403 294.129272,61.524380 
M352.650452,50.260185 
	C351.121460,47.455242 349.592468,44.650295 348.507111,42.659184 
	C349.088348,38.324142 350.529602,34.301495 349.839020,30.686045 
	C349.241486,27.557861 346.836517,23.586176 344.136322,22.319124 
	C339.778442,20.274197 334.538147,19.568552 329.638245,19.428753 
	C326.828796,19.348593 322.617676,20.761253 321.466064,22.844391 
	C320.166809,25.194582 320.578217,29.689892 322.088165,32.095913 
	C324.061798,35.240814 323.592072,37.783508 323.245880,40.932709 
	C322.388123,48.735210 321.976410,56.586742 321.380402,64.486038 
	C323.294342,64.636925 323.943604,64.746094 324.589752,64.729958 
	C330.229828,64.589211 335.899811,63.985008 341.501984,64.372009 
	C350.087341,64.965096 353.986877,59.056610 352.650452,50.260185 
M456.525146,19.197052 
	C454.114838,19.197052 451.704529,19.197052 448.881165,19.197052 
	C448.881165,24.728065 448.881165,29.644876 448.881165,34.804260 
	C452.802246,35.261494 456.701782,35.716209 460.562653,36.166416 
	C459.617493,45.780903 458.713409,54.977734 457.791779,64.352966 
	C464.043274,64.352966 469.880371,64.352966 475.961060,64.352966 
	C474.677155,54.796482 473.448669,45.652500 472.101746,35.627068 
	C476.880066,36.442886 481.196320,37.179817 485.651306,37.940430 
	C485.651306,31.982265 485.651306,26.105690 485.651306,19.200666 
	C476.046234,19.200666 466.764160,19.200666 456.525146,19.197052 
M413.957581,19.762716 
	C406.106598,19.392376 398.255646,19.022036 390.788971,18.669823 
	C389.450653,25.922001 387.397247,32.227787 387.345428,38.549980 
	C387.280609,46.455669 388.771118,54.387196 389.849518,62.272102 
	C389.980103,63.226933 391.702393,64.661827 392.716858,64.687393 
	C400.669067,64.887726 408.628632,64.798416 417.378754,64.798416 
	C415.955200,60.203335 414.724243,56.229946 413.521942,52.349060 
	C402.569214,51.371307 402.569214,51.371307 401.431335,49.446640 
	C402.473114,49.278442 403.430908,49.079853 404.398865,48.974571 
	C411.241577,48.230305 411.590057,47.922474 411.637177,41.123920 
	C411.671417,36.189644 407.573090,38.615314 405.337189,37.789539 
	C403.680389,37.177654 401.894806,36.914558 399.426971,36.317001 
	C403.047455,30.285494 409.915527,34.984123 414.139832,30.230534 
	C414.139832,27.640852 414.139832,24.169323 413.957581,19.762716 
M376.002808,35.587372 
	C377.362213,29.848166 382.505096,35.069313 385.313538,31.726866 
	C385.313538,28.770660 385.313538,25.037502 385.313538,20.456644 
	C374.352448,19.936171 363.510437,19.421352 351.603210,18.855951 
	C352.780792,24.319288 353.656433,28.381706 354.597504,32.747787 
	C357.611084,32.924744 360.675323,33.104671 363.732544,33.284191 
	C364.281799,39.247093 364.788849,44.752136 365.317566,50.492107 
	C362.142120,50.799709 359.723907,51.033958 357.681732,51.231785 
	C356.630096,55.839737 355.665039,60.068398 354.598969,64.739609 
	C357.901978,64.739609 360.736359,65.004044 363.503296,64.684540 
	C369.257355,64.020126 375.912384,64.660408 377.646973,56.785042 
	C378.050262,54.954071 378.492310,53.007587 378.279388,51.188847 
	C377.703522,46.269810 376.784882,41.390903 376.002808,35.587372 
M423.380402,60.258709 
	C425.133423,61.609707 426.873749,64.089241 428.641724,64.109123 
	C435.034027,64.181023 441.435608,63.426079 448.292450,62.951511 
	C446.879730,56.786503 445.653900,51.437141 444.332153,45.669144 
	C439.103943,48.735168 434.882263,54.245182 429.083557,48.201534 
	C427.202667,46.241184 425.813232,38.060684 427.557404,36.138176 
	C432.743622,30.421638 438.478455,31.744839 444.679352,36.661957 
	C444.679352,30.475811 444.679352,25.582129 444.679352,20.162130 
	C440.093567,19.919588 434.757843,18.065575 431.114807,19.789213 
	C424.593658,22.874580 417.679749,26.070145 415.685425,35.065884 
	C413.855316,43.321014 415.958130,54.461552 423.380402,60.258709 
M453.986847,61.402798 
	C454.388367,57.674538 454.789886,53.946278 455.198486,50.152237 
	C453.055176,50.152237 451.626526,50.152237 449.787720,50.152237 
	C450.727997,55.498631 451.619446,60.567547 452.693207,66.673080 
	C453.261536,64.624481 453.590454,63.438797 453.986847,61.402798 
z"/>
<path fill="#E21D07" opacity="1.000000" stroke="none" 
	d="
M202.915405,125.116135 
	C203.418457,127.437302 203.803650,129.355515 204.266327,131.659683 
	C199.422104,132.174423 195.035538,132.640533 190.430740,133.129837 
	C188.450714,125.956039 186.585052,119.196602 184.565277,111.878784 
	C181.297653,114.909760 178.437347,117.562912 175.172913,120.590927 
	C172.654129,117.130363 170.276566,113.863815 167.451294,109.982147 
	C164.728653,117.325661 162.115280,124.374458 159.231979,132.151321 
	C154.807495,130.954361 150.443832,129.773834 144.980881,128.295914 
	C146.818573,123.716881 148.316727,119.479820 150.191803,115.416702 
	C154.092529,106.964142 158.377792,98.685341 162.135742,90.172127 
	C164.107925,85.704361 167.734512,87.227203 170.690704,87.430611 
	C172.150604,87.531052 173.936050,89.609947 174.725143,91.211876 
	C175.978897,93.757042 176.521576,96.652481 177.586212,100.120110 
	C179.012970,97.560516 180.150543,95.664116 181.151505,93.698174 
	C184.782120,86.567551 184.764816,86.558739 193.346146,87.371284 
	C196.489624,99.790993 199.643585,112.252090 202.915405,125.116135 
z"/>
<path fill="#F7CC00" opacity="1.000000" stroke="none" 
	d="
M274.602478,124.346512 
	C275.532898,125.515373 276.189789,126.453819 276.904266,127.474564 
	C276.203857,127.786346 275.607300,128.008881 275.050568,128.306107 
	C265.700684,133.297791 265.732147,133.272156 258.634705,125.494461 
	C257.600647,124.361320 256.115936,123.639442 254.043442,122.158089 
	C254.546814,126.285759 254.915588,129.309677 255.310684,132.549515 
	C251.043121,133.348648 248.673950,133.431793 246.277817,128.254318 
	C242.139908,119.313309 241.982239,110.322571 241.979919,101.039131 
	C241.979050,97.565590 241.979782,94.092056 241.979782,89.887489 
	C248.111328,89.174576 254.637634,87.994835 261.178497,87.907669 
	C263.182281,87.880974 265.238403,90.834587 267.249115,92.450104 
	C274.214355,98.046371 274.958282,108.654457 268.876068,115.274925 
	C268.318604,115.881683 267.862244,116.581314 267.072510,117.611496 
	C269.519257,119.804741 271.924072,121.960411 274.602478,124.346512 
M253.278458,106.392883 
	C253.973740,107.591248 254.669006,108.789612 255.364273,109.987984 
	C256.593231,108.637535 259.013672,107.040108 258.795898,105.989540 
	C258.379974,103.983009 256.461121,102.288025 255.166077,100.463722 
	C254.683182,100.728188 254.200272,100.992645 253.717361,101.257111 
	C253.578156,102.694382 253.438965,104.131660 253.278458,106.392883 
z"/>
<path fill="#F7CC00" opacity="1.000000" stroke="none" 
	d="
M373.046326,105.765442 
	C368.839355,105.440254 365.081207,105.080383 360.690765,104.659958 
	C361.908691,114.384499 363.033722,123.367409 364.200775,132.686005 
	C358.125793,132.686005 352.385254,132.686005 346.200623,132.686005 
	C347.072998,123.516624 347.930695,114.501297 348.825348,105.097466 
	C344.547638,104.550674 340.493591,104.032471 336.222839,103.486572 
	C336.643555,98.074913 337.050079,92.845978 337.464264,87.518295 
	C349.700867,87.518295 361.618958,87.518295 373.495178,87.518295 
	C373.495178,93.898460 373.495178,99.814606 373.046326,105.765442 
z"/>
<path fill="#41AE31" opacity="1.000000" stroke="none" 
	d="
M332.718384,132.985199 
	C324.780457,132.985413 317.307343,132.985413 308.547302,132.985413 
	C309.267090,129.029541 309.886322,125.626221 310.747101,120.895546 
	C304.230347,113.643181 306.514984,103.698715 308.444427,93.779716 
	C308.849335,91.698219 309.067932,89.580490 309.395386,87.320450 
	C317.663300,87.320450 325.729248,87.320450 334.186249,87.320450 
	C334.065399,89.939499 334.177948,92.272697 333.804962,94.525497 
	C333.158356,98.430672 332.096161,101.817703 326.698212,101.157745 
	C324.430756,100.880516 321.970428,102.180634 319.597809,102.763664 
	C319.669861,103.351212 319.741882,103.938759 319.813934,104.526299 
	C323.260620,105.155075 326.707306,105.783844 330.703491,106.512863 
	C330.486389,109.361473 330.265900,112.254173 330.015961,115.533440 
	C326.774475,116.185951 323.591522,116.826683 319.103485,117.730141 
	C320.877075,119.209717 321.841339,120.173607 322.967590,120.878792 
	C323.449280,121.180389 324.268646,120.937271 324.934357,120.951180 
	C334.389984,121.148720 335.647736,122.331436 336.824066,132.516556 
	C335.619720,132.671509 334.401428,132.828247 332.718384,132.985199 
z"/>
<path fill="#40AD31" opacity="1.000000" stroke="none" 
	d="
M205.200104,111.498886 
	C208.550858,105.178925 212.130386,99.391754 214.885620,93.235664 
	C217.041504,88.418724 220.998138,88.287140 225.059418,87.925819 
	C225.804810,87.859505 226.705505,88.752213 227.408875,89.350052 
	C227.733078,89.625610 227.732300,90.266373 227.916183,90.726631 
	C233.043808,103.559990 238.176224,116.391449 243.699753,130.203171 
	C238.095840,131.235184 233.480103,132.085205 228.286621,133.041626 
	C227.861008,131.332870 227.538757,129.766510 227.074539,128.243423 
	C226.474640,126.275169 226.101166,122.912796 225.033539,122.658813 
	C221.732269,121.873489 218.139572,122.140213 214.681274,122.349495 
	C214.068085,122.386597 213.399643,124.051819 213.036774,125.065475 
	C212.539230,126.455284 212.543320,128.057480 211.898285,129.352402 
	C211.262558,130.628662 210.085480,131.635269 209.145905,132.760178 
	C208.430328,131.426636 207.474228,130.165115 207.048981,128.744675 
	C206.149536,125.740379 205.261505,122.686295 204.874725,119.589439 
	C204.559418,117.064842 204.979584,114.448402 205.200104,111.498886 
M218.552750,107.022964 
	C218.243301,112.570328 221.898239,109.024368 223.881561,109.779106 
	C223.725357,104.194565 222.985565,103.736191 218.552750,107.022964 
z"/>
<path fill="#E01D07" opacity="1.000000" stroke="none" 
	d="
M301.025818,97.377029 
	C299.428833,100.756401 297.939575,103.926544 295.932800,106.725670 
	C293.709839,109.826332 293.290985,111.823448 297.087433,114.241386 
	C300.457306,116.387657 303.105286,119.667465 306.153778,122.523613 
	C303.432495,126.060043 300.957764,129.276047 298.459991,132.522003 
	C295.104340,128.643768 291.879608,124.916885 288.654907,121.189995 
	C288.242676,121.476021 287.830444,121.762047 287.418182,122.048073 
	C287.671783,125.519440 287.925354,128.990814 288.199310,132.740784 
	C284.445343,132.740784 281.161743,132.740784 278.007080,132.740784 
	C282.261292,128.939270 282.158447,127.564018 278.275208,122.818726 
	C277.045441,121.315971 276.275543,118.966400 276.278595,117.005905 
	C276.292633,108.034134 276.649353,99.062729 276.904663,90.091820 
	C276.927246,89.298172 277.106262,88.508972 277.244720,87.479042 
	C280.373901,87.479042 283.285217,87.479042 286.564453,87.479042 
	C286.564453,91.434662 286.564453,95.196976 286.564453,99.973175 
	C289.811676,96.204987 292.402466,93.198547 295.326599,89.805298 
	C297.242371,92.277466 299.073822,94.640823 301.025818,97.377029 
z"/>
<path fill="#F2F2F2" opacity="1.000000" stroke="none" 
	d="
M337.993713,123.730698 
	C337.408783,121.710434 337.063599,120.032349 336.660126,118.070755 
	C338.944702,118.070755 340.701385,118.070755 343.204956,118.070755 
	C342.886627,122.934784 342.581055,127.603874 342.275482,132.272964 
	C341.952759,132.325836 341.630035,132.378708 341.307343,132.431580 
	C340.282715,129.645340 339.258118,126.859116 337.993713,123.730698 
z"/>
<path fill="#E21D07" opacity="1.000000" stroke="none" 
	d="
M116.950195,30.956665 
	C117.996773,34.474236 118.913208,37.601032 120.035057,41.428669 
	C122.890320,37.905552 125.234024,35.013649 127.971329,31.636084 
	C130.124924,35.198017 132.124939,38.505947 134.579361,42.565422 
	C137.534149,34.812489 140.202866,27.810221 142.900558,20.731909 
	C147.089279,21.786747 150.713699,22.699478 154.985504,23.775236 
	C153.314331,27.774754 151.564575,31.659050 150.058014,35.635487 
	C147.484192,42.428837 145.484085,49.472191 142.477051,56.060970 
	C138.155594,65.529793 141.504196,64.020309 129.097122,63.842411 
	C128.198990,60.688175 127.238503,57.314922 126.072243,53.219044 
	C124.624146,56.005997 122.856369,58.370262 122.134438,61.019524 
	C120.747696,66.108353 116.718399,63.936623 113.877258,64.092560 
	C112.777718,64.152916 110.812126,61.520222 110.461960,59.857315 
	C109.031853,53.065807 108.206924,46.149429 106.902191,39.328182 
	C105.730110,33.200390 104.221939,27.136887 102.763489,20.603687 
	C106.639053,20.073563 110.028992,19.609863 114.150963,19.046032 
	C115.060699,22.972519 115.940369,26.769207 116.950195,30.956665 
z"/>
<path fill="#0099D5" opacity="1.000000" stroke="none" 
	d="
M64.836441,55.558678 
	C63.347225,62.123394 59.394341,64.589439 53.197102,64.373749 
	C46.911495,64.154999 40.612343,64.325470 33.685593,64.325470 
	C33.473286,60.175541 33.209904,55.912064 33.046623,51.644753 
	C32.741596,43.672836 32.467785,35.699490 32.232853,27.725206 
	C32.070774,22.223726 35.938416,18.527128 41.451118,19.274033 
	C46.212204,19.919102 51.276558,20.279671 55.495956,22.271744 
	C58.240376,23.567446 60.864563,27.338953 61.456558,30.404161 
	C62.178802,34.143803 60.714245,38.305794 60.370819,40.940002 
	C62.063046,46.221794 63.495708,50.693443 64.836441,55.558678 
M45.816753,30.064062 
	C45.816753,31.948599 45.816753,33.833134 45.816753,35.717670 
	C46.217621,36.027760 46.618488,36.337852 47.019356,36.647942 
	C48.328068,35.531170 50.444626,34.618195 50.787800,33.257847 
	C51.672127,29.752378 48.869476,29.478422 45.816753,30.064062 
M46.029762,50.698452 
	C46.110130,52.123955 46.190498,53.549454 46.318375,55.817581 
	C48.281105,54.897217 49.881298,54.538334 50.818188,53.550415 
	C51.323582,53.017494 51.035816,50.675587 50.508774,50.429688 
	C49.218834,49.827862 47.581860,49.969856 46.029762,50.698452 
z"/>
<path fill="#F7CC00" opacity="1.000000" stroke="none" 
	d="
M87.689972,61.703423 
	C86.718002,62.131561 86.119972,62.411781 85.507278,62.655067 
	C78.950943,65.258423 72.579102,63.295559 70.284355,56.495422 
	C67.557014,48.413383 63.412788,40.320248 65.567001,31.288727 
	C66.051315,29.258251 67.089310,27.172728 68.418762,25.564070 
	C73.551704,19.353144 80.540848,17.241335 87.811401,19.900106 
	C91.281998,21.169271 93.557526,25.615042 96.466476,28.530043 
	C102.905891,34.982864 101.376633,42.545094 99.698898,50.205868 
	C99.135284,52.779423 98.962173,55.438496 98.570564,58.356647 
	C95.187508,59.380466 91.622307,60.459412 87.689972,61.703423 
M84.667725,44.823360 
	C85.304459,42.116920 85.941193,39.410484 86.893425,35.363018 
	C82.972214,36.104038 80.047211,35.834641 78.704796,37.163712 
	C77.576988,38.280315 77.525642,41.700459 78.432030,43.275242 
	C79.173286,44.563103 82.030228,44.633251 84.667725,44.823360 
z"/>
<path fill="#E21D07" opacity="1.000000" stroke="none" 
	d="
M236.046799,54.958641 
	C236.046799,58.055843 236.046799,61.153042 236.046799,64.178009 
	C227.493759,65.597023 224.932541,64.017052 224.139084,55.212463 
	C223.259293,45.449581 223.359833,35.598686 223.020111,25.786577 
	C222.929321,23.164347 223.994873,21.905272 226.778030,21.688978 
	C230.748276,21.380436 234.672668,20.516176 238.639999,20.128111 
	C245.234375,19.483076 252.852066,26.323400 252.973190,32.903812 
	C253.066055,37.949604 254.460052,43.284279 249.534119,47.250965 
	C249.023468,47.662178 249.392319,50.035328 250.089355,50.914238 
	C252.220551,53.601498 254.711090,56.003773 256.960083,58.408119 
	C256.747864,59.018246 256.732727,59.400654 256.533966,59.584591 
	C247.639389,67.814827 242.277390,60.867931 236.291992,54.804611 
	C235.746170,54.668335 235.586044,54.674297 235.425903,54.680260 
	C235.632874,54.773056 235.839828,54.865849 236.046799,54.958641 
M239.691589,39.420807 
	C241.746292,35.044136 239.334732,33.610542 234.856659,32.818531 
	C234.856659,35.558521 234.856659,38.063484 234.856659,40.568443 
	C236.326218,40.400600 237.795776,40.232754 239.691589,39.420807 
z"/>
<path fill="#41AD31" opacity="1.000000" stroke="none" 
	d="
M185.738708,40.167427 
	C183.931564,38.918102 182.505692,37.259365 180.747513,36.108078 
	C179.935257,35.576199 178.474167,36.035175 177.307251,36.044910 
	C177.614639,37.202057 177.561478,38.719223 178.293533,39.452328 
	C181.061295,42.224133 184.328079,44.527344 186.895706,47.455269 
	C187.983078,48.695217 188.412903,51.172115 188.067688,52.868221 
	C187.384811,56.223232 186.200623,59.545769 184.701874,62.627987 
	C184.166840,63.728310 182.159103,64.595734 180.759186,64.699318 
	C176.955780,64.980743 173.116898,64.849640 169.294113,64.776283 
	C167.192017,64.735939 155.813370,55.741089 156.205460,53.931427 
	C156.876480,50.834354 158.604736,47.966339 160.305084,44.041813 
	C162.839493,45.989204 164.681351,47.675907 166.788300,48.910049 
	C167.858292,49.536800 169.405899,49.348171 170.737610,49.528145 
	C170.186325,48.369930 169.929184,46.850697 169.030670,46.118652 
	C165.859970,43.535366 162.458038,41.237198 159.174561,38.789627 
	C158.675247,38.417435 158.338745,37.826817 157.838455,37.232029 
	C161.839981,31.688463 165.634537,26.156061 169.729340,20.855595 
	C172.464203,17.315485 182.953766,18.271463 185.165039,22.035240 
	C185.332458,22.320215 185.490814,22.612959 185.683823,22.880100 
	C187.750900,25.741180 191.357208,28.547810 191.452560,31.470150 
	C191.542923,34.239525 187.954620,37.128933 185.738708,40.167427 
z"/>
<path fill="#F5CB00" opacity="1.000000" stroke="none" 
	d="
M220.997910,56.010956 
	C221.824829,58.986504 222.609406,61.549126 223.527664,64.548363 
	C213.847198,64.548363 205.064148,64.548363 195.464981,64.548363 
	C194.847488,57.490864 194.727386,50.372971 193.456390,43.466896 
	C192.494003,38.237728 193.460739,34.379189 197.989380,31.055340 
	C194.724213,27.599052 192.775467,23.867113 196.390533,19.193375 
	C204.239502,19.193375 212.480850,19.193375 221.080063,19.193375 
	C220.220184,23.458944 219.414062,27.457966 218.647842,31.258923 
	C214.872559,34.774632 208.456360,30.479744 204.388062,36.534966 
	C208.953873,37.251934 212.622803,37.828064 216.631714,38.457584 
	C216.631714,41.470528 216.631714,44.540230 216.631714,47.983459 
	C213.307404,48.502201 210.127289,48.998440 206.947159,49.494678 
	C206.895752,50.136574 206.844345,50.778469 206.792938,51.420364 
	C209.349991,51.617676 211.908234,51.985474 214.463760,51.967510 
	C217.407104,51.946823 220.205307,51.843697 220.997910,56.010956 
z"/>
<path fill="#41AE31" opacity="1.000000" stroke="none" 
	d="
M293.944427,61.200836 
	C289.575623,56.920403 285.387939,52.967411 281.214386,48.999599 
	C280.858734,48.661507 280.297974,48.191246 280.337280,47.838665 
	C280.812012,43.581112 281.782867,39.337330 281.816406,35.083588 
	C281.851440,30.642759 282.694641,27.275158 286.952454,24.908901 
	C292.628998,21.754190 297.710999,16.828007 304.975769,19.767584 
	C307.375763,20.738703 309.836548,22.057137 311.651794,23.844252 
	C313.712006,25.872561 315.092804,28.595512 316.745056,31.032705 
	C319.254120,34.733826 320.180847,38.470341 318.777740,43.082436 
	C317.746765,46.471455 318.049286,50.307194 318.015076,53.946281 
	C317.983887,57.259773 316.711578,58.958687 313.303955,59.679707 
	C309.284363,60.530216 305.388519,62.012463 301.487396,63.360760 
	C298.566895,64.370132 295.961426,64.633995 293.944427,61.200836 
M296.082031,41.367340 
	C297.178375,42.942234 298.274689,44.517128 299.440613,46.191967 
	C300.817078,45.593998 302.421539,45.409039 302.781036,44.641174 
	C303.719727,42.636383 304.664612,40.324230 304.467346,38.242638 
	C304.382263,37.344963 301.109283,35.748814 299.955200,36.196999 
	C298.382568,36.807747 297.451355,39.070206 296.082031,41.367340 
z"/>
<path fill="#F7CC00" opacity="1.000000" stroke="none" 
	d="
M352.782562,50.655754 
	C353.986877,59.056610 350.087341,64.965096 341.501984,64.372009 
	C335.899811,63.985008 330.229828,64.589211 324.589752,64.729958 
	C323.943604,64.746094 323.294342,64.636925 321.380402,64.486038 
	C321.976410,56.586742 322.388123,48.735210 323.245880,40.932709 
	C323.592072,37.783508 324.061798,35.240814 322.088165,32.095913 
	C320.578217,29.689892 320.166809,25.194582 321.466064,22.844391 
	C322.617676,20.761253 326.828796,19.348593 329.638245,19.428753 
	C334.538147,19.568552 339.778442,20.274197 344.136322,22.319124 
	C346.836517,23.586176 349.241486,27.557861 349.839020,30.686045 
	C350.529602,34.301495 349.088348,38.324142 348.507111,42.659184 
	C349.592468,44.650295 351.121460,47.455242 352.782562,50.655754 
M333.877167,31.730146 
	C333.966003,33.131145 334.054871,34.532146 334.249390,37.599339 
	C336.401062,35.588024 338.196747,34.673729 338.462036,33.432384 
	C338.696411,32.335541 337.313782,30.803839 336.403625,29.655552 
	C336.278351,29.497499 334.760376,30.443338 333.877167,31.730146 
M334.141815,50.994743 
	C334.226990,52.276394 334.312134,53.558048 334.420044,55.181736 
	C336.110138,54.982227 337.500641,54.818081 340.617828,54.450111 
	C338.662109,51.944721 337.535461,50.389885 336.229340,49.004177 
	C336.101532,48.868553 334.869598,49.773617 334.141815,50.994743 
z"/>
<path fill="#F6CB00" opacity="1.000000" stroke="none" 
	d="
M457.003632,19.198860 
	C466.764160,19.200666 476.046234,19.200666 485.651306,19.200666 
	C485.651306,26.105690 485.651306,31.982265 485.651306,37.940430 
	C481.196320,37.179817 476.880066,36.442886 472.101746,35.627068 
	C473.448669,45.652500 474.677155,54.796482 475.961060,64.352966 
	C469.880371,64.352966 464.043274,64.352966 457.791779,64.352966 
	C458.713409,54.977734 459.617493,45.780903 460.562653,36.166416 
	C456.701782,35.716209 452.802246,35.261494 448.881165,34.804260 
	C448.881165,29.644876 448.881165,24.728065 448.881165,19.197052 
	C451.704529,19.197052 454.114838,19.197052 457.003632,19.198860 
z"/>
<path fill="#40AB30" opacity="1.000000" stroke="none" 
	d="
M414.048706,20.230255 
	C414.139832,24.169323 414.139832,27.640852 414.139832,30.230534 
	C409.915527,34.984123 403.047455,30.285494 399.426971,36.317001 
	C401.894806,36.914558 403.680389,37.177654 405.337189,37.789539 
	C407.573090,38.615314 411.671417,36.189644 411.637177,41.123920 
	C411.590057,47.922474 411.241577,48.230305 404.398865,48.974571 
	C403.430908,49.079853 402.473114,49.278442 401.431335,49.446640 
	C402.569214,51.371307 402.569214,51.371307 413.521942,52.349060 
	C414.724243,56.229946 415.955200,60.203335 417.378754,64.798416 
	C408.628632,64.798416 400.669067,64.887726 392.716858,64.687393 
	C391.702393,64.661827 389.980103,63.226933 389.849518,62.272102 
	C388.771118,54.387196 387.280609,46.455669 387.345428,38.549980 
	C387.397247,32.227787 389.450653,25.922001 390.788971,18.669823 
	C398.255646,19.022036 406.106598,19.392376 414.048706,20.230255 
z"/>
<path fill="#0098D4" opacity="1.000000" stroke="none" 
	d="
M376.002502,36.041725 
	C376.784882,41.390903 377.703522,46.269810 378.279388,51.188847 
	C378.492310,53.007587 378.050262,54.954071 377.646973,56.785042 
	C375.912384,64.660408 369.257355,64.020126 363.503296,64.684540 
	C360.736359,65.004044 357.901978,64.739609 354.598969,64.739609 
	C355.665039,60.068398 356.630096,55.839737 357.681732,51.231785 
	C359.723907,51.033958 362.142120,50.799709 365.317566,50.492107 
	C364.788849,44.752136 364.281799,39.247093 363.732544,33.284191 
	C360.675323,33.104671 357.611084,32.924744 354.597504,32.747787 
	C353.656433,28.381706 352.780792,24.319288 351.603210,18.855951 
	C363.510437,19.421352 374.352448,19.936171 385.313538,20.456644 
	C385.313538,25.037502 385.313538,28.770660 385.313538,31.726866 
	C382.505096,35.069313 377.362213,29.848166 376.002502,36.041725 
z"/>
<path fill="#0098D4" opacity="1.000000" stroke="none" 
	d="
M423.077118,60.032166 
	C415.958130,54.461552 413.855316,43.321014 415.685425,35.065884 
	C417.679749,26.070145 424.593658,22.874580 431.114807,19.789213 
	C434.757843,18.065575 440.093567,19.919588 444.679352,20.162130 
	C444.679352,25.582129 444.679352,30.475811 444.679352,36.661957 
	C438.478455,31.744839 432.743622,30.421638 427.557404,36.138176 
	C425.813232,38.060684 427.202667,46.241184 429.083557,48.201534 
	C434.882263,54.245182 439.103943,48.735168 444.332153,45.669144 
	C445.653900,51.437141 446.879730,56.786503 448.292450,62.951511 
	C441.435608,63.426079 435.034027,64.181023 428.641724,64.109123 
	C426.873749,64.089241 425.133423,61.609707 423.077118,60.032166 
z"/>
<path fill="#EAEAEA" opacity="1.000000" stroke="none" 
	d="
M453.953094,61.827957 
	C453.590454,63.438797 453.261536,64.624481 452.693207,66.673080 
	C451.619446,60.567547 450.727997,55.498631 449.787720,50.152237 
	C451.626526,50.152237 453.055176,50.152237 455.198486,50.152237 
	C454.789886,53.946278 454.388367,57.674538 453.953094,61.827957 
z"/>
<path fill="#1F1A00" opacity="1.000000" stroke="none" 
	d="
M253.289108,105.980911 
	C253.438965,104.131660 253.578156,102.694382 253.717361,101.257111 
	C254.200272,100.992645 254.683182,100.728188 255.166077,100.463722 
	C256.461121,102.288025 258.379974,103.983009 258.795898,105.989540 
	C259.013672,107.040108 256.593231,108.637535 255.364273,109.987984 
	C254.669006,108.789612 253.973740,107.591248 253.289108,105.980911 
z"/>
<path fill="#020602" opacity="1.000000" stroke="none" 
	d="
M218.706329,106.629990 
	C222.985565,103.736191 223.725357,104.194565 223.881561,109.779106 
	C221.898239,109.024368 218.243301,112.570328 218.706329,106.629990 
z"/>
<path fill="#00090C" opacity="1.000000" stroke="none" 
	d="
M46.061394,29.717697 
	C48.869476,29.478422 51.672127,29.752378 50.787800,33.257847 
	C50.444626,34.618195 48.328068,35.531170 47.019356,36.647942 
	C46.618488,36.337852 46.217621,36.027760 45.816753,35.717670 
	C45.816753,33.833134 45.816753,31.948599 46.061394,29.717697 
z"/>
<path fill="#000709" opacity="1.000000" stroke="none" 
	d="
M46.057159,50.255474 
	C47.581860,49.969856 49.218834,49.827862 50.508774,50.429688 
	C51.035816,50.675587 51.323582,53.017494 50.818188,53.550415 
	C49.881298,54.538334 48.281105,54.897217 46.318375,55.817581 
	C46.190498,53.549454 46.110130,52.123955 46.057159,50.255474 
z"/>
<path fill="#090800" opacity="1.000000" stroke="none" 
	d="
M84.308464,45.033310 
	C82.030228,44.633251 79.173286,44.563103 78.432030,43.275242 
	C77.525642,41.700459 77.576988,38.280315 78.704796,37.163712 
	C80.047211,35.834641 82.972214,36.104038 86.893425,35.363018 
	C85.941193,39.410484 85.304459,42.116920 84.308464,45.033310 
z"/>
<path fill="#130201" opacity="1.000000" stroke="none" 
	d="
M239.478455,39.742859 
	C237.795776,40.232754 236.326218,40.400600 234.856659,40.568443 
	C234.856659,38.063484 234.856659,35.558521 234.856659,32.818531 
	C239.334732,33.610542 241.746292,35.044136 239.478455,39.742859 
z"/>
<path fill="#060504" opacity="1.000000" stroke="none" 
	d="
M236.027130,54.977318 
	C235.839828,54.865849 235.632874,54.773056 235.425903,54.680260 
	C235.586044,54.674297 235.746170,54.668335 235.939178,54.849716 
	C235.972031,55.037060 236.007477,54.995998 236.027130,54.977318 
z"/>
<path fill="#040C03" opacity="1.000000" stroke="none" 
	d="
M296.163574,40.995903 
	C297.451355,39.070206 298.382568,36.807747 299.955200,36.196999 
	C301.109283,35.748814 304.382263,37.344963 304.467346,38.242638 
	C304.664612,40.324230 303.719727,42.636383 302.781036,44.641174 
	C302.421539,45.409039 300.817078,45.593998 299.440613,46.191967 
	C298.274689,44.517128 297.178375,42.942234 296.163574,40.995903 
z"/>
<path fill="#181400" opacity="1.000000" stroke="none" 
	d="
M333.882172,31.304131 
	C334.760376,30.443338 336.278351,29.497499 336.403625,29.655552 
	C337.313782,30.803839 338.696411,32.335541 338.462036,33.432384 
	C338.196747,34.673729 336.401062,35.588024 334.249390,37.599339 
	C334.054871,34.532146 333.966003,33.131145 333.882172,31.304131 
z"/>
<path fill="#1C1700" opacity="1.000000" stroke="none" 
	d="
M334.145996,50.595184 
	C334.869598,49.773617 336.101532,48.868553 336.229340,49.004177 
	C337.535461,50.389885 338.662109,51.944721 340.617828,54.450111 
	C337.500641,54.818081 336.110138,54.982227 334.420044,55.181736 
	C334.312134,53.558048 334.226990,52.276394 334.145996,50.595184 
z"/>
</svg>