<?xml version="1.0" standalone="no"?>
<!DOCTYPE svg PUBLIC "-//W3C//DTD SVG 20010904//EN"
 "http://www.w3.org/TR/2001/REC-SVG-20010904/DTD/svg10.dtd">
<svg version="1.0" xmlns="http://www.w3.org/2000/svg"
 width="516.000000pt" height="167.000000pt" viewBox="0 0 516.000000 167.000000"
 preserveAspectRatio="xMidYMid meet">

<g transform="translate(0.000000,167.000000) scale(0.100000,-0.100000)"
fill="#000000" stroke="none">
<path d="M321 1508 l-44 -20 6 -194 c4 -107 10 -239 13 -294 l7 -100 139 0
c156 0 189 9 206 60 11 30 42 42 42 17 0 -7 15 -27 33 -45 41 -39 76 -41 149
-8 29 13 70 26 90 30 32 6 39 12 48 44 5 20 10 48 11 62 0 14 4 34 8 45 6 15
12 3 25 -52 9 -40 16 -90 16 -112 l0 -41 75 0 c71 0 76 2 87 25 l11 25 11 -23
c10 -19 21 -22 77 -25 74 -3 79 0 98 68 20 69 41 121 57 144 13 19 14 17 14
-29 0 -50 1 -51 74 -118 l75 -67 96 0 96 0 20 45 c11 24 23 47 28 50 12 7 21
-19 21 -61 l0 -34 290 0 290 1 53 32 c28 18 55 36 59 42 20 27 2 140 -25 157
-8 5 -14 55 -17 149 -5 123 -8 144 -24 153 -10 6 -39 30 -64 54 -39 36 -52 42
-77 38 -85 -14 -165 -18 -165 -7 0 8 -49 11 -160 11 l-160 0 0 -34 c0 -50 -14
-51 -45 -6 l-28 40 -78 0 c-74 0 -79 -1 -98 -29 -12 -16 -21 -33 -21 -38 -1
-10 -36 -53 -43 -53 -3 0 -7 14 -9 32 -3 34 -4 34 -135 71 l-52 15 -11 -32
c-7 -17 -16 -40 -20 -51 -5 -11 -14 -37 -21 -58 -16 -45 -27 -43 -54 7 -17 33
-21 36 -30 21 -21 -36 -54 -70 -61 -63 -4 4 -15 45 -24 90 l-17 83 -74 -2
c-109 -3 -117 -7 -121 -51 l-3 -37 -30 45 -31 45 -80 3 -81 3 -52 -47 c-55
-49 -75 -52 -91 -9 -5 14 -11 25 -14 25 -2 0 -40 7 -83 15 -99 19 -128 18
-182 -7z m586 -56 c12 -15 38 -49 59 -76 40 -54 39 -34 18 -228 l-6 -57 -44
-7 c-25 -3 -61 -15 -81 -25 -59 -30 -85 -25 -132 26 -22 24 -41 52 -41 62 0
18 -17 75 -33 110 -5 12 -7 49 -3 86 6 54 12 68 33 84 14 10 37 28 52 41 23
20 33 22 91 17 55 -5 68 -10 87 -33z m927 21 c3 -10 16 -29 28 -43 52 -58 52
-55 15 -103 -31 -40 -35 -43 -48 -27 -25 30 -55 41 -68 26 -14 -17 -5 -44 19
-51 20 -6 102 -93 97 -103 -2 -4 -8 -18 -15 -32 -6 -14 -15 -41 -20 -60 l-8
-35 -97 -3 c-81 -2 -97 0 -97 12 0 9 -9 20 -20 26 -11 6 -31 22 -46 36 l-26
26 24 44 c13 24 26 44 30 44 5 0 17 -9 27 -19 33 -33 62 -45 72 -30 13 21 11
27 -13 40 -13 7 -35 21 -50 33 -14 12 -36 29 -48 38 l-22 16 27 29 c15 15 32
40 38 54 7 14 26 42 42 62 28 34 33 36 92 36 50 1 63 -2 67 -16z m362 -10 c-4
-16 -9 -44 -12 -64 -7 -40 -26 -49 -101 -49 -21 0 -36 -6 -40 -15 -8 -22 -2
-26 61 -32 l57 -6 -3 -46 -3 -46 -47 -9 c-71 -14 -63 -36 12 -36 57 0 61 -2
71 -27 6 -16 15 -36 20 -45 5 -10 9 -27 9 -38 0 -19 -6 -20 -134 -20 l-134 0
-7 30 c-4 17 -8 57 -10 88 -1 31 -6 82 -9 112 -7 50 -5 57 19 83 23 24 25 30
13 45 -7 9 -17 20 -22 23 -4 4 -3 23 4 43 l12 36 125 0 125 0 -6 -27z m-1866
-65 l-5 -63 -3 49 c-3 43 2 76 10 76 2 0 1 -28 -2 -62z m220 52 c11 -6 25 -20
31 -33 11 -21 11 -21 -17 3 -16 14 -33 28 -38 32 -14 11 2 10 24 -2z m49 -107
l-1 -48 -8 40 c-7 37 -5 55 6 55 2 0 3 -21 3 -47z m-262 -295 c-3 -8 -6 -5 -6
6 -1 11 2 17 5 13 3 -3 4 -12 1 -19z"/>
<path d="M775 1316 c-13 -45 -13 -62 2 -78 35 -39 82 -12 75 45 -4 32 -7 35
-39 39 -20 2 -36 0 -38 -6z"/>
<path d="M2905 1507 c-16 -12 -37 -30 -46 -39 -9 -10 -21 -18 -26 -18 -32 0
-43 -28 -53 -130 -6 -58 -13 -126 -16 -152 -7 -62 16 -104 100 -187 36 -36 66
-68 66 -73 0 -16 68 -8 126 16 101 40 111 41 119 6 l7 -30 271 0 c150 0 277 4
283 8 6 4 19 23 29 42 10 18 24 40 31 48 8 8 14 36 15 65 0 29 4 61 8 72 7 18
9 17 14 -10 4 -16 9 -67 12 -111 3 -45 8 -89 11 -98 5 -14 37 -16 273 -16 146
0 292 3 325 7 l58 6 -5 101 c-3 56 -9 116 -13 134 -6 30 -4 32 21 32 l27 0 -6
-57 c-4 -32 -9 -95 -12 -140 l-7 -83 138 0 138 0 -6 108 c-3 59 -9 120 -13
136 l-7 29 46 -6 c25 -4 51 -8 59 -9 10 -2 14 33 16 178 l2 182 -34 6 c-19 4
-154 6 -302 5 l-267 -1 -49 -34 c-26 -19 -50 -34 -53 -34 -3 0 -5 15 -5 34 l0
35 -350 -1 c-306 0 -350 -2 -350 -15 0 -12 -7 -14 -27 -10 -151 29 -178 31
-227 12 -26 -10 -50 -24 -52 -32 -15 -50 -14 -49 -36 -23 -58 73 -53 70 -130
69 -59 0 -79 -4 -103 -22z m188 -53 c10 -13 24 -30 31 -37 7 -6 22 -32 34 -57
20 -42 21 -53 13 -153 -5 -60 -11 -110 -13 -112 -1 -2 -25 -8 -53 -13 -27 -6
-71 -18 -96 -28 l-46 -18 -86 85 -85 85 9 50 c4 27 11 70 14 96 6 43 10 49 60
83 30 19 56 39 59 43 3 5 35 6 72 4 57 -4 71 -9 87 -28z m233 25 c119 -21 130
-26 149 -69 20 -44 17 -127 -6 -141 -11 -6 -9 -12 7 -26 41 -38 53 -92 32
-149 -16 -44 -40 -51 -182 -57 l-118 -5 6 111 c3 62 8 130 12 153 4 30 2 43
-10 53 -11 9 -16 30 -16 60 0 43 3 49 33 64 17 8 32 16 33 16 0 1 27 -4 60
-10z m804 -23 c0 -18 -3 -47 -6 -64 -6 -29 -9 -31 -70 -37 -52 -6 -64 -11 -64
-25 0 -20 19 -30 58 -30 45 0 55 -13 47 -58 -6 -39 -7 -40 -56 -46 -73 -10
-58 -30 24 -34 57 -2 67 -6 67 -21 0 -10 7 -37 15 -60 l14 -41 -133 0 -134 0
-6 70 c-3 39 -9 102 -12 140 -4 48 -3 70 5 70 7 0 11 28 11 78 0 43 3 82 7 85
3 4 57 7 120 7 l113 0 0 -34z m618 24 l102 0 0 -91 c0 -90 0 -91 -22 -85 -13
4 -45 9 -72 13 l-49 6 7 -39 c3 -21 11 -73 16 -114 5 -41 12 -90 16 -108 l7
-33 -89 3 -89 3 3 75 c1 41 7 103 13 138 7 35 9 65 6 68 -3 3 -30 8 -61 11
l-56 6 0 80 0 80 83 -6 c45 -4 128 -7 185 -7z m-432 -9 c-6 -8 -90 -51 -101
-51 -16 0 8 19 31 24 15 4 33 14 41 21 16 16 38 21 29 6z m-497 -278 c0 -25
-1 -25 -8 -8 -5 11 -7 23 -4 28 8 14 13 7 12 -20z m-62 -75 c-3 -8 -6 -5 -6 6
-1 11 2 17 5 13 3 -3 4 -12 1 -19z m696 -28 c3 -11 1 -18 -4 -14 -5 3 -9 12
-9 20 0 20 7 17 13 -6z"/>
<path d="M2959 1302 c-13 -34 -11 -47 10 -66 13 -12 27 -15 45 -10 23 5 26 11
26 49 0 42 -1 43 -36 47 -31 4 -37 1 -45 -20z"/>
<path d="M3330 1356 c0 -30 4 -36 20 -36 40 0 36 60 -4 68 -12 3 -16 -4 -16
-32z"/>
<path d="M3330 1165 c0 -31 3 -35 25 -35 19 0 25 5 25 21 0 20 -25 48 -42 49
-5 0 -8 -16 -8 -35z"/>
<path d="M1865 843 c-44 -3 -52 -8 -69 -36 l-19 -32 -13 33 c-14 32 -14 32
-88 32 l-74 0 -21 -47 c-11 -27 -27 -59 -34 -73 -8 -14 -23 -45 -35 -70 -11
-25 -30 -65 -41 -89 -12 -25 -21 -49 -21 -53 0 -5 -14 -38 -30 -74 -25 -52
-30 -76 -28 -117 l3 -52 45 -7 c25 -3 68 -14 95 -22 28 -9 53 -16 57 -16 9 0
32 52 53 123 10 31 22 57 26 57 5 0 21 -18 35 -40 15 -22 29 -40 32 -40 3 0
23 19 46 41 47 48 45 49 67 -71 l14 -75 132 0 132 -1 12 54 11 53 36 -3 c36
-3 37 -4 42 -53 4 -44 8 -50 30 -53 14 -1 49 4 78 11 45 12 54 12 59 1 6 -17
188 -20 198 -4 4 6 13 5 25 -2 15 -10 27 -10 52 0 21 8 34 9 36 2 2 -6 47 -10
108 -10 85 0 106 3 111 16 5 13 9 12 25 -6 22 -23 32 -19 52 21 17 35 35 35
42 0 l7 -31 307 0 308 0 6 26 c5 20 -6 172 -17 239 -2 11 9 11 66 0 l37 -7 0
180 c0 100 -3 183 -7 185 -5 3 -163 6 -353 8 l-345 4 -10 -52 c-5 -28 -13 -54
-16 -58 -4 -3 -25 21 -47 55 -39 58 -42 60 -54 41 -15 -24 -28 -27 -28 -7 0
17 -31 26 -97 26 -72 0 -83 -6 -83 -46 0 -39 -9 -43 -35 -14 -10 11 -23 20
-28 20 -5 0 -15 7 -22 16 -11 15 -23 16 -121 5 -168 -18 -158 -11 -150 -98 3
-40 2 -73 -3 -73 -4 0 -25 43 -46 95 -36 91 -39 96 -64 91 -14 -3 -44 -8 -66
-12 -22 -4 -44 -12 -50 -18 -17 -18 -105 -204 -105 -221 0 -25 -17 -8 -23 22
-7 36 -34 148 -47 196 -8 26 -16 36 -28 35 -9 -1 -40 -3 -67 -5z m1465 -55 c0
-13 -6 -43 -14 -68 -11 -39 -17 -45 -42 -48 -67 -6 -94 -14 -94 -27 0 -12 22
-19 90 -28 11 -2 15 -15 15 -47 l0 -45 -47 -8 c-37 -7 -48 -13 -48 -28 0 -17
8 -19 65 -19 64 0 65 -1 78 -32 8 -18 17 -46 21 -61 l7 -28 -138 3 -138 3 -3
37 c-2 28 2 39 20 52 l23 16 -27 25 c-41 38 -46 97 -22 260 9 68 3 65 134 65
118 0 120 0 120 -22z m323 16 l77 -7 0 -86 0 -87 -70 4 c-56 3 -69 2 -65 -9 2
-8 9 -52 15 -99 5 -47 13 -104 16 -127 l7 -43 -89 0 -89 0 6 83 c4 45 10 108
14 139 l8 56 -49 7 c-27 3 -56 7 -64 8 -12 2 -14 16 -11 77 1 41 5 78 8 83 5
9 182 9 286 1z m-1371 -79 c16 -38 38 -89 49 -112 10 -24 19 -47 19 -53 0 -6
4 -18 9 -28 53 -105 63 -143 42 -156 -5 -4 -36 -9 -69 -12 l-59 -7 -7 51 -6
50 -61 7 c-33 4 -63 4 -67 0 -4 -3 -14 -32 -22 -62 -15 -52 -17 -55 -33 -39
-9 10 -17 30 -17 45 0 15 -4 31 -10 37 -5 5 -11 32 -11 59 -2 42 4 61 39 120
23 38 42 75 42 82 0 7 5 13 10 13 6 0 10 9 10 20 0 11 5 20 10 20 6 0 10 6 10
14 0 14 41 25 79 22 8 -1 27 -32 43 -71z m352 52 c13 -13 35 -32 49 -43 20
-17 26 -32 31 -89 7 -68 6 -71 -24 -103 l-30 -34 22 -28 c13 -16 30 -31 38
-34 8 -3 20 -14 27 -24 10 -17 5 -22 -42 -46 -29 -14 -59 -24 -66 -21 -8 3
-27 24 -44 46 -16 23 -38 45 -47 50 -15 8 -16 3 -11 -46 l6 -55 -35 0 c-34 0
-36 2 -64 73 -26 65 -29 85 -32 214 l-4 141 59 7 c32 4 63 8 68 10 33 11 78 3
99 -18z m787 -281 c7 -7 -6 -136 -14 -139 -8 -2 -57 109 -57 131 0 11 61 18
71 8z"/>
<path d="M2172 615 c-16 -36 -17 -35 28 -35 45 0 44 -1 30 34 -12 33 -43 34
-58 1z"/>
<path d="M2520 624 c0 -41 2 -45 22 -42 12 2 28 14 35 28 11 22 10 27 -10 42
-36 29 -47 23 -47 -28z"/>
</g>
</svg>
