<svg xmlns="http://www.w3.org/2000/svg" viewBox="0 0 516 167" xml:space="preserve">
    <path fill="#FEFEFE" d="M394 168H1V1h516v167H394m-59.492-85.155h-19.492c-8.709 0-8.695.002-10.225 8.433-.144.795-.606 1.533-1.173 2.914l-8.421-11.469-2.685 3.479c-6.066-6.042-13.134-1.504-19.19-3.226l-1.235 6.63c-3.875-2.15-7.313-5.374-11.084-5.828-5.146-.62-10.571.706-15.833 1.492-8.38 1.252-8.357 1.355-9.21 9.711-.04.383-.432.73-1.067 1.745l-5.748-13.869c-4.172.659-8.297 1.125-12.319 2.045-1.413.323-3.095 1.482-3.757 2.734-3.497 6.604-6.706 13.359-10.151 20.336l-6.63-25.122c-6.625 1.074-13.87-2.145-17.609 6.357l-2.486-5.617c-3.319 0-6.7.376-9.958-.095-4.032-.584-6.11 1.275-7.564 4.552-5.984 13.492-12.177 26.898-17.794 40.542-1.375 3.342-.955 7.458-1.13 11.228-.03.662.971 1.822 1.683 1.998 6.666 1.651 13.374 3.138 20.149 4.69l6.412-18.852 6.476 9.229 9.193-8.384 3.376 18.383h27.066l3.096-10.768h5.684l1.484 10.923c6.723.689 13.212-2.556 20.174-.226 6.723 2.25 14.06-2.008 21.12.508.873.31 2.161-.637 3.28-.9.876-.206 1.794-.389 2.684-.35 6.856.294 13.709.743 20.567.852.827.014 1.682-1.712 2.548-2.658 6.349 9.225 6.073-3.267 10.023-2.4l.807 4.883h63.867l-2.215-27.383 9.812 2.262V84.407c-14.274-.537-27.9-1.05-42.525-1.562M80.65 14.985c-8.347-2.405-10.815 7.244-16.787 8.737-1.949-2.4-3.25-5.676-5.173-6.093-9.86-2.14-19.989-5.708-30.052 1.656l1.827 58.754c8.214 0 15.856.148 23.488-.072 3.057-.088 6.53-.248 9.007-1.728 2.303-1.375 3.531-4.55 5.39-7.152.405.534.892 1.332 1.525 1.989 2.285 2.366 4.323 6.114 7.007 6.67 3.581.74 7.724-.825 11.54-1.755 3.013-.734 5.825-2.4 8.854-2.936 4.017-.712 5.68-2.76 5.776-6.707.062-2.569.615-5.125.947-7.687l.974-.038 3.742 19.344h14.7l1.6-3.517c1.234 1.254 2.278 3.268 3.524 3.403 3.952.427 7.983.23 11.976.082.79-.03 2.006-.755 2.243-1.434 1.226-3.506 2.092-7.138 3.292-10.655.864-2.532 2.055-4.954 3.1-7.425-.357 10.138 8.547 13.837 14.148 17.272 5.88 3.605 14.734 2.358 21.978 3.195l5.163-10.852 1.954 10.051c15.612 0 30.931.005 46.251-.003 3.464-.002 7.163.715 10.335-.26 4.27-1.312 10.006-2.983 11.687-6.258 2.019-3.932 2.045-10.564-.016-14.47-2.356-4.465-2.455-8.523-2.663-12.995-.254-5.488-.576-10.977-1.058-16.449-.103-1.17-.77-2.517-1.608-3.349-2.082-2.067-4.435-3.86-6.639-5.808-3.086-2.727-6.374-3.93-10.742-3.447-5.06.559-10.246-.1-15.379-.122-10.13-.043-20.26-.013-30.186-.013l-1.693 8.107c-3.258-8.804-9.635-8.704-16.216-8.12-.496.044-1.015.087-1.497-.006-4.327-.837-6.15 2.084-7.939 5.169-1.112 1.919-2.387 3.744-4.234 6.615l-.64-6.505-19.467-5.208-6.837 18.426-5.42-9.11-5.744 8.262-1.263-.563-3.978-17.343c-4.657.378-8.957.971-13.262 1.008-4.575.04-7.761 1.045-6.301 7.521-1.285-1.164-1.98-1.49-2.151-1.995-1.851-5.47-5.833-6.97-11.145-6.2-.98.141-1.997.018-3.938.015M364.45 78.064c.999-.019 2.03-.208 2.992-.028 5.685 1.06 9.173-1.475 11.622-6.445 1.337-2.714 3.375-5.082 5.436-8.101l1.704 14.046h94.686l-2.18-26.791 11.085 2.2V15.84c-.728-.162-1.357-.419-1.99-.426-14.157-.164-28.323-.651-42.468-.293-7.008.178-14.611-2.35-20.966 3.035-1.416 1.2-3.058 2.135-5.248 3.64v-6.89c-2.034 0-3.671-.012-5.308.002-12.108.1-24.217.262-36.326.29-8.66.021-17.475-1.139-25.918.177-4.788.746-9.189 1.196-13.89.468-3.27-.506-6.623-1.018-9.891-.803-2.539.167-5.26 1.036-7.424 2.367-1.858 1.144-3.042 3.384-4.878 5.56-1.809-8.228-8.173-8.093-15.123-8.174-5.476-.063-9.45 1.915-13.223 5.3-1.215 1.09-2.768 1.841-3.85 3.034-1.52 1.675-3.69 3.5-3.932 5.465-1.115 9.043-1.757 18.151-2.3 27.252-.088 1.476.853 3.308 1.872 4.503 3.843 4.508 8.488 8.436 11.755 13.304 4.113 6.127 8.99 4.835 14.315 3.021 2.666-.909 5.24-2.094 7.915-2.972 1.496-.491 3.114-.609 4.897-.934l.388 5.319c15.325 0 30.293 0 46.248-.022z"/>
    <path fill="#070604" d="M335.008 82.845c14.126.513 27.75 1.025 42.025 1.562v37.217l-9.812-2.262 2.215 27.383h-63.867l-.807-4.883c-3.95-.867-3.674 11.625-10.023 2.4-.866.946-1.72 2.672-2.548 2.658-6.858-.11-13.71-.558-20.567-.853-.89-.038-1.808.145-2.684.351-1.119.263-2.407 1.21-3.28.9-7.06-2.516-14.397 1.741-21.12-.508-6.962-2.33-13.451.915-20.174.226l-1.484-10.923h-5.684l-3.096 10.768h-27.066l-3.376-18.383-9.193 8.384-6.476-9.23-6.412 18.854c-6.775-1.553-13.483-3.04-20.149-4.69-.712-.177-1.714-1.337-1.683-1.999.175-3.77-.245-7.886 1.13-11.228 5.617-13.644 11.81-27.05 17.794-40.542 1.454-3.277 3.532-5.136 7.564-4.552 3.258.471 6.64.095 9.958.095l2.486 5.617c3.739-8.502 10.984-5.283 17.61-6.357l6.629 25.122c3.445-6.977 6.654-13.732 10.15-20.336.663-1.252 2.345-2.411 3.758-2.734 4.022-.92 8.147-1.386 12.32-2.045l5.747 13.869c.635-1.016 1.027-1.362 1.066-1.745.854-8.356.83-8.46 9.211-9.71 5.262-.787 10.687-2.113 15.833-1.493 3.771.454 7.209 3.678 11.084 5.828l1.235-6.63c6.056 1.722 13.124-2.816 19.19 3.226l2.685-3.479 8.42 11.47c.568-1.382 1.03-2.12 1.174-2.915 1.53-8.43 1.516-8.433 10.225-8.433h19.992m-132.21 41.868-9.452-37.342c-8.581-.812-8.564-.803-12.194 6.327-1.001 1.966-2.139 3.863-3.566 6.422-1.064-3.468-1.607-6.363-2.86-8.908-.79-1.602-2.575-3.68-4.035-3.781-2.956-.204-6.583-1.727-8.555 2.741-3.758 8.513-8.043 16.792-11.944 25.245-1.875 4.063-3.373 8.3-5.211 12.879l14.251 3.855 8.22-22.169 7.72 10.609 9.393-8.712 5.866 21.25c4.605-.488 8.991-.955 13.835-1.47a246.81 246.81 0 0 0-1.468-6.946m71.53-.597-7.255-6.505c.79-1.03 1.246-1.73 1.803-2.336 6.082-6.62 5.338-17.229-1.627-22.825-2.01-1.615-4.067-4.569-6.07-4.542-6.541.087-13.068 1.267-19.2 1.98v11.151c.003 9.284.16 18.274 4.299 27.215 2.396 5.178 4.765 5.095 9.033 4.296l-1.268-10.392c2.073 1.481 3.558 2.203 4.592 3.336 7.097 7.778 7.066 7.804 16.416 2.812.556-.297 1.153-.52 1.853-.831-.714-1.021-1.371-1.96-2.575-3.359m99.166-18.385V87.518h-36.03l-1.242 15.969 12.602 1.61-2.624 27.589h18l-3.51-28.026c4.39.42 8.148.78 12.804 1.07m-40.312 27.255 3.641-.468c-1.176-10.186-2.434-11.368-11.89-11.566-.665-.014-1.485.23-1.966-.072-1.127-.705-2.09-1.67-3.865-3.149l10.913-2.197.687-9.02-10.89-1.987-.215-1.762c2.372-.583 4.833-1.883 7.1-1.606 5.398.66 6.46-2.727 7.107-6.633.373-2.252.26-4.586.381-7.205h-24.79c-.328 2.26-.547 4.378-.952 6.46-1.929 9.919-4.214 19.863 2.303 27.116l-2.2 12.09 24.636-.001m-128.11-21.112c-.093 2.575-.514 5.192-.198 7.716.387 3.097 1.275 6.151 2.174 9.156.425 1.42 1.381 2.682 2.097 4.015.94-1.125 2.117-2.131 2.752-3.408.645-1.295.641-2.897 1.139-4.287.363-1.013 1.031-2.678 1.644-2.716 3.459-.209 7.051-.476 10.353.31 1.067.254 1.44 3.616 2.04 5.584.465 1.524.787 3.09 1.213 4.799l15.413-2.839c-5.524-13.812-10.656-26.643-15.784-39.476-.184-.46-.183-1.101-.507-1.377-.703-.598-1.604-1.49-2.35-1.424-4.06.361-8.017.493-10.173 5.31-2.756 6.156-6.335 11.943-9.812 18.637m95.831-14.869-5.578-7.199-8.763 10.168V87.48h-9.32c-.138 1.03-.317 1.82-.34 2.613-.255 8.97-.611 17.942-.625 26.914-.003 1.96.766 4.31 1.996 5.813 3.883 4.745 3.986 6.12-.268 9.922H288.2l-.78-10.693 1.236-.858 9.805 11.332 7.694-9.998c-3.049-2.857-5.697-6.136-9.067-8.283-3.796-2.418-3.377-4.415-1.154-7.515 2.007-2.8 3.496-5.97 4.972-9.722m37.329 27.069 3.073 8.359.968-.159.93-14.202h-6.545c.404 1.961.749 3.64 1.574 6.002z"/>
    <path fill="#060504" d="M81.122 14.987c1.47.002 2.488.125 3.467-.016 5.312-.77 9.294.73 11.145 6.2.17.504.866.831 2.151 1.995-1.46-6.476 1.726-7.48 6.301-7.52 4.305-.038 8.605-.631 13.262-1.009l3.978 17.343 1.263.563 5.745-8.262c1.73 2.91 3.405 5.724 5.42 9.11l6.836-18.426 19.467 5.208.64 6.505c1.847-2.87 3.122-4.696 4.234-6.615 1.79-3.085 3.612-6.006 7.94-5.17.481.094 1 .051 1.496.007 6.581-.584 12.958-.684 16.216 8.12l1.693-8.107c9.925 0 20.056-.03 30.186.013 5.133.022 10.32.68 15.38.122 4.367-.483 7.655.72 10.741 3.447 2.204 1.948 4.557 3.74 6.639 5.808.838.832 1.505 2.18 1.608 3.35.482 5.471.804 10.96 1.058 16.448.208 4.472.307 8.53 2.663 12.994 2.061 3.907 2.035 10.539.016 14.471-1.681 3.275-7.418 4.946-11.687 6.258-3.172.975-6.87.258-10.335.26-15.32.008-30.64.003-46.251.003l-1.954-10.051-5.163 10.852c-7.244-.837-16.099.41-21.978-3.195-5.6-3.435-14.505-7.134-14.148-17.272-1.045 2.471-2.236 4.893-3.1 7.425-1.2 3.517-2.066 7.149-3.292 10.655-.237.679-1.453 1.405-2.243 1.434-3.993.148-8.024.345-11.976-.082-1.246-.135-2.29-2.149-3.524-3.403l-1.6 3.517h-14.7l-3.742-19.344-.974.038c-.332 2.562-.885 5.118-.947 7.687-.095 3.947-1.759 5.995-5.776 6.707-3.029.536-5.84 2.202-8.854 2.936-3.816.93-7.959 2.496-11.54 1.755-2.684-.556-4.722-4.304-7.007-6.67-.633-.657-1.12-1.455-1.524-1.99-1.86 2.604-3.088 5.778-5.391 7.153-2.477 1.48-5.95 1.64-9.007 1.728-7.632.22-15.274.072-23.488.072L28.64 19.285C38.702 11.92 48.83 15.49 58.69 17.629c1.922.417 3.224 3.692 5.173 6.093 5.972-1.493 8.44-11.142 17.258-8.735m155.556 39.96c5.6 5.92 10.961 12.868 19.856 4.638.199-.184.214-.567.426-1.177-2.249-2.404-4.74-4.807-6.87-7.494-.698-.879-1.067-3.252-.556-3.663 4.926-3.967 3.532-9.301 3.44-14.347-.122-6.58-7.74-13.42-14.334-12.776-3.967.388-7.892 1.252-11.862 1.561-2.783.216-3.849 1.475-3.758 4.098.34 9.812.24 19.663 1.12 29.425.793 8.805 3.354 10.385 11.907 8.966 0-3.025 0-6.122-.04-9.182 0 0-.035.041.67-.05M116.82 30.567l-2.669-11.52-11.388 1.558c1.459 6.533 2.967 12.596 4.14 18.724 1.304 6.821 2.129 13.738 3.559 20.53.35 1.662 2.316 4.295 3.415 4.235 2.841-.156 6.87 2.015 8.257-3.073.722-2.65 2.49-5.014 3.938-7.801l3.025 10.623c12.407.178 9.059 1.688 13.38-7.781 3.007-6.589 5.007-13.632 7.581-20.426 1.507-3.976 3.256-7.86 4.928-11.86L142.9 20.732l-8.322 21.833-6.608-10.929-7.936 9.793c-1.122-3.828-2.038-6.955-3.215-10.863m-51.892 24.6L60.371 40.94c.343-2.634 1.808-6.796 1.086-10.536-.592-3.065-3.217-6.837-5.961-8.132-4.22-1.992-9.284-2.353-14.045-2.998-5.513-.747-9.38 2.95-9.218 8.451.235 7.974.509 15.948.814 23.92.163 4.267.426 8.53.639 12.68 6.926 0 13.225-.17 19.511.049 6.197.215 10.15-2.25 11.731-9.209m23.13 6.373 10.513-3.181c.391-2.919.564-5.578 1.128-8.151 1.678-7.66 3.207-15.223-3.233-21.676-2.908-2.915-5.184-7.36-8.655-8.63-7.27-2.659-14.26-.547-19.392 5.664a14.612 14.612 0 0 0-2.852 5.725c-2.154 9.031 1.99 17.124 4.717 25.206 2.295 6.8 8.667 8.763 15.223 6.16.613-.243 1.211-.523 2.55-1.117m97.927-21.572c1.97-2.837 5.559-5.726 5.469-8.496-.096-2.922-3.702-5.729-5.77-8.59-.192-.267-.35-.56-.518-.845-2.211-3.764-12.7-4.72-15.436-1.18-4.094 5.301-7.889 10.833-11.89 16.377.5.595.836 1.185 1.336 1.558 3.283 2.447 6.685 4.745 9.856 7.329.898.732 1.155 2.25 1.707 3.41-1.332-.18-2.88.008-3.95-.619-2.107-1.234-3.949-2.92-6.483-4.868-1.7 3.924-3.429 6.792-4.1 9.89-.392 1.81 10.987 10.804 13.09 10.844 3.822.074 7.66.205 11.464-.077 1.4-.103 3.408-.97 3.943-2.071 1.499-3.082 2.683-6.405 3.366-9.76.345-1.696-.085-4.173-1.172-5.413-2.568-2.928-5.835-5.23-8.602-8.003-.733-.733-.68-2.25-.987-3.407 1.167-.01 2.628-.469 3.44.063 1.759 1.151 3.185 2.81 5.237 3.858m34.972 15.632c-.75-3.754-3.549-3.651-6.492-3.63-2.556.017-5.114-.35-7.671-.548l.154-1.925 9.685-1.512v-9.525l-12.244-1.923c4.068-6.055 10.485-1.76 14.26-5.276l2.432-12.066h-24.69c-3.615 4.674-1.666 8.406 1.6 11.862-4.53 3.324-5.496 7.183-4.534 12.412 1.271 6.906 1.391 14.024 2.009 21.081h28.063c-.919-2.999-1.703-5.561-2.572-8.95z"/>
    <path fill="#050604" d="M363.957 78.075c-15.462.011-30.43.011-45.755.011l-.388-5.32c-1.783.326-3.401.444-4.897.935-2.675.878-5.249 2.063-7.915 2.972-5.325 1.814-10.202 3.106-14.315-3.021-3.267-4.868-7.912-8.796-11.755-13.304-1.019-1.195-1.96-3.027-1.872-4.503.543-9.1 1.185-18.209 2.3-27.252.242-1.965 2.412-3.79 3.932-5.465 1.082-1.193 2.635-1.945 3.85-3.035 3.773-3.384 7.747-5.362 13.223-5.299 6.95.08 13.314-.054 15.123 8.174 1.836-2.176 3.02-4.416 4.878-5.56 2.163-1.331 4.885-2.2 7.424-2.367 3.268-.215 6.622.297 9.891.803 4.701.728 9.102.278 13.89-.468 8.443-1.316 17.259-.156 25.918-.176 12.109-.029 24.218-.19 36.326-.291 1.637-.014 3.274-.002 5.308-.002v6.89c2.19-1.505 3.832-2.44 5.248-3.64 6.355-5.385 13.958-2.857 20.966-3.035 14.145-.358 28.311.13 42.468.293.633.007 1.262.264 1.99.426v37.104l-11.085-2.2 2.18 26.79h-94.686L384.5 63.49c-2.06 3.019-4.099 5.387-5.436 8.101-2.45 4.97-5.937 7.504-11.622 6.445-.962-.18-1.993.009-3.485.039m-69.828-16.55c1.832 3.109 4.438 2.845 7.358 1.836 3.902-1.349 7.797-2.83 11.817-3.681 3.408-.721 4.68-2.42 4.711-5.734.034-3.639-.268-7.475.763-10.864 1.403-4.612.476-8.348-2.033-12.05-1.652-2.436-3.033-5.16-5.093-7.188-1.815-1.787-4.276-3.105-6.676-4.076-7.265-2.94-12.347 1.986-18.024 5.14-4.257 2.367-5.1 5.735-5.136 10.176-.033 4.253-1.004 8.497-1.479 12.755-.039.352.522.823.877 1.16 4.174 3.968 8.362 7.921 12.915 12.525M352.65 50.26l-4.143-7.6c.581-4.336 2.023-8.359 1.332-11.974-.598-3.128-3.002-7.1-5.703-8.367-4.358-2.045-9.598-2.75-14.498-2.89-2.81-.08-7.02 1.332-8.172 3.415-1.3 2.35-.888 6.846.622 9.252 1.974 3.145 1.504 5.688 1.158 8.837-.858 7.802-1.27 15.654-1.866 23.553 1.914.15 2.564.26 3.21.244 5.64-.14 11.31-.745 16.912-.358 8.585.593 12.485-5.315 11.148-14.112m103.875-31.063h-7.644v15.607l11.682 1.362-2.771 28.187h18.17l-3.86-28.726 13.55 2.313V19.2c-9.606 0-18.888 0-29.127-.003m-42.567.566-23.169-1.093c-1.338 7.252-3.392 13.558-3.444 19.88-.064 7.906 1.426 15.837 2.505 23.722.13.955 1.852 2.39 2.867 2.415 7.952.2 15.912.111 24.662.111l-3.857-12.449c-10.953-.978-10.953-.978-12.09-2.902 1.041-.169 1.999-.367 2.967-.472 6.843-.745 7.191-1.053 7.238-7.851.034-4.934-4.064-2.509-6.3-3.334-1.657-.612-3.442-.875-5.91-1.473 3.62-6.032 10.489-1.333 14.713-6.086 0-2.59 0-6.062-.182-10.468m-37.955 15.824c1.36-5.739 6.502-.518 9.31-3.86v-11.27l-33.71-1.601 2.995 13.892 9.135.536 1.585 17.208-7.636.74-3.083 13.508c3.303 0 6.137.264 8.904-.055 5.754-.665 12.41-.025 14.144-7.9.403-1.83.845-3.777.632-5.596-.575-4.92-1.494-9.798-2.276-15.602M423.38 60.26c1.753 1.35 3.494 3.83 5.262 3.85 6.392.072 12.794-.683 19.65-1.157l-3.96-17.283c-5.228 3.066-9.45 8.576-15.248 2.533-1.881-1.96-3.27-10.141-1.527-12.064 5.187-5.716 10.921-4.393 17.122.524v-16.5c-4.585-.242-9.921-2.096-13.564-.373-6.521 3.086-13.435 6.281-15.43 15.277-1.83 8.255.273 19.396 7.695 25.193m30.607 1.144 1.211-11.25h-5.41l2.905 16.52c.569-2.049.897-3.234 1.294-5.27z"/>
    <path fill="#E21D07" d="M202.915 125.116c.503 2.321.889 4.24 1.351 6.544l-13.835 1.47-5.866-21.251-9.392 8.712-7.722-10.609-8.219 22.17-14.251-3.856c1.838-4.58 3.336-8.816 5.21-12.88 3.902-8.452 8.187-16.73 11.945-25.244 1.972-4.468 5.599-2.945 8.555-2.741 1.46.1 3.245 2.179 4.034 3.78 1.254 2.546 1.797 5.441 2.861 8.91 1.427-2.56 2.565-4.457 3.566-6.423 3.63-7.13 3.613-7.14 12.194-6.327 3.144 12.42 6.298 24.881 9.57 37.745z"/>
    <path fill="#F7CC00" d="M274.602 124.347c.93 1.168 1.588 2.107 2.302 3.128-.7.311-1.297.534-1.853.831-9.35 4.992-9.319 4.966-16.416-2.812-1.034-1.133-2.52-1.855-4.592-3.336l1.268 10.392c-4.268.799-6.637.882-9.033-4.296-4.138-8.94-4.296-17.931-4.298-27.215V89.887c6.131-.712 12.658-1.892 19.198-1.98 2.004-.026 4.06 2.928 6.071 4.543 6.965 5.596 7.71 16.204 1.627 22.825-.557.607-1.014 1.306-1.803 2.336 2.446 2.194 4.851 4.35 7.53 6.736m-21.325-17.954 2.086 3.595c1.23-1.35 3.65-2.948 3.432-3.998-.416-2.007-2.335-3.702-3.63-5.526l-1.449.793c-.139 1.437-.278 2.875-.439 5.136zM373.046 105.765c-4.207-.325-7.965-.685-12.355-1.105l3.51 28.026h-18l2.624-27.589-12.602-1.61 1.241-15.969h36.031c0 6.38 0 12.297-.449 18.247z"/>
    <path fill="#41AE31" d="M332.718 132.985h-24.17c.72-3.955 1.338-7.359 2.2-12.09-6.518-7.252-4.233-17.196-2.304-27.115.405-2.082.624-4.2.951-6.46h24.791c-.12 2.62-.008 4.953-.381 7.205-.647 3.906-1.709 7.293-7.107 6.633-2.267-.277-4.728 1.023-7.1 1.606l.216 1.762c3.447.63 6.893 1.258 10.89 1.987l-.688 9.02-10.913 2.197c1.774 1.48 2.738 2.444 3.865 3.149.481.301 1.3.058 1.966.072 9.456.198 10.714 1.38 11.89 11.566-1.204.155-2.423.311-4.106.468z"/>
    <path fill="#40AD31" d="M205.2 111.499c3.35-6.32 6.93-12.107 9.686-18.263 2.156-4.817 6.112-4.949 10.173-5.31.746-.066 1.647.826 2.35 1.424.324.276.323.916.507 1.377 5.128 12.833 10.26 25.664 15.784 39.476l-15.413 2.839c-.426-1.71-.748-3.275-1.212-4.799-.6-1.968-.974-5.33-2.041-5.584-3.302-.786-6.894-.519-10.353-.31-.613.038-1.281 1.703-1.644 2.716-.498 1.39-.494 2.992-1.139 4.287-.635 1.277-1.813 2.283-2.752 3.408-.716-1.333-1.672-2.595-2.097-4.015-.9-3.005-1.787-6.059-2.174-9.156-.316-2.524.105-5.14.325-8.09m13.353-4.476c-.31 5.547 3.345 2.001 5.329 2.756-.157-5.584-.896-6.043-5.33-2.756z"/>
    <path fill="#E01D07" d="M301.026 97.377c-1.597 3.38-3.086 6.55-5.093 9.349-2.223 3.1-2.642 5.097 1.154 7.515 3.37 2.147 6.018 5.426 9.067 8.283l-7.694 9.998-9.805-11.332-1.237.858.781 10.693h-10.192c4.254-3.802 4.151-5.177.268-9.922-1.23-1.503-2-3.853-1.996-5.813.014-8.972.37-17.943.626-26.914.022-.794.201-1.583.34-2.613h9.32v12.494l8.762-10.168c1.915 2.472 3.747 4.836 5.699 7.572z"/>
    <path fill="#F2F2F2" d="M337.994 123.73c-.585-2.02-.93-3.698-1.334-5.66h6.545l-.93 14.203-.968.159c-1.024-2.787-2.049-5.573-3.313-8.701z"/>
    <path fill="#E21D07" d="M116.95 30.957c1.047 3.517 1.963 6.644 3.085 10.472l7.936-9.793 6.608 10.93 8.322-21.834 12.085 3.043c-1.672 4-3.421 7.884-4.928 11.86-2.574 6.794-4.574 13.837-7.58 20.426-4.322 9.469-.974 7.96-13.38 7.781l-3.026-10.623c-1.448 2.787-3.216 5.151-3.938 7.8-1.386 5.09-5.416 2.918-8.257 3.074-1.1.06-3.065-2.573-3.415-4.236-1.43-6.791-2.255-13.708-3.56-20.529-1.172-6.128-2.68-12.191-4.139-18.724l11.388-1.558c.91 3.927 1.79 7.723 2.8 11.91z"/>
    <path fill="#0099D5" d="M64.836 55.559c-1.489 6.564-5.442 9.03-11.639 8.815-6.286-.219-12.585-.049-19.511-.049-.213-4.15-.476-8.413-.64-12.68-.304-7.972-.578-15.946-.813-23.92-.162-5.501 3.705-9.198 9.218-8.451 4.761.645 9.826 1.006 14.045 2.998 2.744 1.295 5.369 5.067 5.96 8.132.723 3.74-.742 7.902-1.085 10.536 1.692 5.282 3.125 9.753 4.465 14.619m-19.02-25.495v5.654l1.203.93c1.31-1.117 3.426-2.03 3.769-3.39.884-3.506-1.919-3.78-4.971-3.194m.213 20.634.288 5.12c1.963-.92 3.563-1.28 4.5-2.268.506-.533.218-2.874-.31-3.12-1.29-.602-2.926-.46-4.478.268z"/>
    <path fill="#F7CC00" d="M87.69 61.703c-.972.429-1.57.709-2.183.952-6.556 2.603-12.928.64-15.223-6.16-2.727-8.082-6.871-16.175-4.717-25.206a14.612 14.612 0 0 1 2.852-5.725c5.133-6.21 12.122-8.323 19.392-5.664 3.471 1.27 5.747 5.715 8.655 8.63 6.44 6.453 4.91 14.015 3.233 21.676-.564 2.573-.737 5.232-1.128 8.15a880.696 880.696 0 0 0-10.881 3.347m-3.022-16.88 2.225-9.46c-3.92.741-6.846.472-8.188 1.8-1.128 1.117-1.18 4.537-.273 6.112.741 1.288 3.598 1.358 6.236 1.548z"/>
    <path fill="#E21D07" d="M236.047 54.959v9.219c-8.553 1.419-11.114-.16-11.908-8.966-.88-9.762-.78-19.613-1.119-29.425-.09-2.623.975-3.882 3.758-4.098 3.97-.309 7.895-1.173 11.862-1.56 6.594-.646 14.212 6.194 14.333 12.775.093 5.046 1.487 10.38-3.439 14.347-.51.411-.142 2.784.555 3.663 2.132 2.687 4.622 5.09 6.871 7.494-.212.61-.227.993-.426 1.177-8.895 8.23-14.257 1.283-20.242-4.78-.546-.137-.706-.13-.866-.125l.62.279m3.646-15.538c2.054-4.377-.357-5.81-4.835-6.602v7.75c1.47-.168 2.939-.336 4.835-1.148z"/>
    <path fill="#41AD31" d="M185.739 40.167c-1.807-1.249-3.233-2.908-4.991-4.059-.813-.532-2.274-.073-3.44-.063.307 1.157.253 2.674.986 3.407 2.767 2.772 6.034 5.075 8.602 8.003 1.087 1.24 1.517 3.717 1.172 5.413-.683 3.355-1.867 6.678-3.366 9.76-.535 1.1-2.543 1.968-3.943 2.071-3.803.282-7.642.15-11.465.077-2.102-.04-13.48-9.035-13.089-10.845.671-3.097 2.4-5.965 4.1-9.89 2.534 1.948 4.376 3.635 6.483 4.869 1.07.627 2.618.438 3.95.618-.552-1.158-.809-2.677-1.707-3.41-3.171-2.583-6.573-4.88-9.856-7.328-.5-.373-.836-.963-1.337-1.558 4.002-5.544 7.797-11.076 11.891-16.376 2.735-3.54 13.225-2.585 15.436 1.18.167.284.326.577.519.844 2.067 2.861 5.673 5.668 5.769 8.59.09 2.77-3.498 5.659-5.714 8.697z"/>
    <path fill="#F5CB00" d="M220.998 56.011c.827 2.976 1.611 5.538 2.53 8.537h-28.063c-.618-7.057-.738-14.175-2.009-21.081-.962-5.23.005-9.088 4.533-12.412-3.265-3.456-5.214-7.188-1.598-11.862h24.69l-2.433 12.066c-3.775 3.516-10.192-.78-14.26 5.276l12.244 1.923v9.525l-9.685 1.512-.154 1.925c2.557.198 5.115.565 7.67.548 2.944-.021 5.742-.124 6.535 4.043z"/>
    <path fill="#41AE31" d="M293.944 61.2c-4.368-4.28-8.556-8.233-12.73-12.2-.355-.338-.916-.809-.877-1.161.475-4.258 1.446-8.502 1.48-12.755.034-4.441.878-7.809 5.135-10.175 5.677-3.155 10.759-8.081 18.024-5.141 2.4.97 4.86 2.29 6.676 4.076 2.06 2.029 3.44 4.752 5.093 7.189 2.51 3.7 3.436 7.437 2.033 12.05-1.031 3.388-.729 7.224-.763 10.863-.031 3.314-1.303 5.013-4.711 5.734-4.02.85-7.915 2.332-11.817 3.68-2.92 1.01-5.526 1.274-7.543-2.16m2.138-19.833 3.359 4.825c1.376-.598 2.98-.783 3.34-1.55.939-2.006 1.884-4.318 1.686-6.4-.085-.897-3.358-2.493-4.512-2.045-1.572.61-2.504 2.873-3.873 5.17z"/>
    <path fill="#F7CC00" d="M352.783 50.656c1.204 8.4-2.696 14.31-11.281 13.716-5.602-.387-11.272.217-16.912.358-.646.016-1.296-.093-3.21-.244.596-7.9 1.008-15.75 1.866-23.553.346-3.15.816-5.692-1.158-8.837-1.51-2.406-1.921-6.901-.622-9.252 1.152-2.083 5.363-3.495 8.172-3.415 4.9.14 10.14.845 14.498 2.89 2.7 1.267 5.105 5.239 5.703 8.367.69 3.615-.75 7.638-1.332 11.973 1.085 1.991 2.614 4.796 4.276 7.997M333.877 31.73l.372 5.87c2.152-2.012 3.948-2.926 4.213-4.168.234-1.096-1.148-2.628-2.058-3.776-.126-.159-1.644.787-2.527 2.074m.265 19.265.278 4.187 6.198-.732c-1.956-2.505-3.083-4.06-4.389-5.446-.127-.135-1.36.77-2.087 1.99z"/>
    <path fill="#F6CB00" d="M457.004 19.199c9.76.002 19.042.002 28.647.002v18.74l-13.55-2.314 3.86 28.726h-18.17l2.772-28.187-11.682-1.362V19.197c2.824 0 5.234 0 8.123.002z"/>
    <path fill="#40AB30" d="M414.049 20.23c.09 3.94.09 7.41.09 10-4.223 4.754-11.092.055-14.712 6.087 2.468.598 4.253.86 5.91 1.473 2.236.825 6.334-1.6 6.3 3.334-.047 6.798-.395 7.106-7.238 7.85-.968.106-1.926.304-2.968.473 1.138 1.924 1.138 1.924 12.09 2.902l3.858 12.45c-8.75 0-16.71.089-24.662-.112-1.015-.025-2.737-1.46-2.867-2.415-1.079-7.885-2.57-15.816-2.505-23.722.052-6.322 2.106-12.628 3.444-19.88 7.467.352 15.318.722 23.26 1.56z"/>
    <path fill="#0098D4" d="M376.003 36.042c.782 5.349 1.7 10.228 2.276 15.147.213 1.819-.229 3.765-.632 5.596-1.735 7.875-8.39 7.235-14.144 7.9-2.767.319-5.601.055-8.904.055l3.083-13.508 7.636-.74c-.53-5.74-1.036-11.245-1.585-17.208l-9.135-.536-2.995-13.892 33.71 1.6v11.27c-2.808 3.343-7.95-1.878-9.31 4.316zM423.077 60.032c-7.119-5.57-9.222-16.711-7.392-24.966 1.995-8.996 8.909-12.191 15.43-15.277 3.643-1.723 8.979.13 13.564.373v16.5c-6.2-4.917-11.935-6.24-17.122-.524-1.744 1.923-.354 10.103 1.527 12.064 5.798 6.043 10.02.533 15.248-2.533l3.96 17.283c-6.856.474-13.258 1.229-19.65 1.157-1.768-.02-3.509-2.5-5.565-4.077z"/>
    <path fill="#EAEAEA" d="M453.953 61.828c-.363 1.61-.691 2.796-1.26 4.845l-2.905-16.52h5.41c-.408 3.793-.81 7.522-1.245 11.675z"/>
    <path fill="#1F1A00" d="M253.29 105.98c.149-1.848.288-3.286.427-4.723l1.45-.793c1.294 1.824 3.213 3.519 3.629 5.526.218 1.05-2.203 2.648-3.432 3.998-.695-1.198-1.39-2.397-2.075-4.007z"/>
    <path fill="#020602" d="M218.706 106.63c4.28-2.894 5.02-2.435 5.176 3.15-1.984-.756-5.639 2.79-5.176-3.15z"/>
    <path fill="#00090C" d="M46.061 29.718c2.808-.24 5.611.034 4.727 3.54-.343 1.36-2.46 2.273-3.769 3.39l-1.202-.93c0-1.885 0-3.77.244-6z"/>
    <path fill="#000709" d="M46.057 50.255c1.525-.285 3.162-.427 4.452.175.527.246.815 2.587.31 3.12-.938.988-2.538 1.347-4.5 2.268-.129-2.269-.209-3.694-.262-5.563z"/>
    <path fill="#090800" d="M84.308 45.033c-2.278-.4-5.135-.47-5.876-1.758-.906-1.575-.855-4.995.273-6.111 1.342-1.33 4.267-1.06 8.188-1.801-.952 4.047-1.589 6.754-2.585 9.67z"/>
    <path fill="#130201" d="M239.478 39.743c-1.682.49-3.152.658-4.621.825v-7.75c4.478.793 6.89 2.226 4.621 6.925z"/>
    <path fill="#060504" d="M236.027 54.977a5.893 5.893 0 0 0-.601-.297c.16-.006.32-.012.513.17.033.187.068.146.088.127z"/>
    <path fill="#040C03" d="M296.164 40.996c1.287-1.926 2.219-4.188 3.791-4.799 1.154-.448 4.427 1.148 4.512 2.046.198 2.081-.747 4.393-1.686 6.398-.36.768-1.964.953-3.34 1.551-1.166-1.675-2.263-3.25-3.277-5.196z"/>
    <path fill="#181400" d="M333.882 31.304c.878-.86 2.396-1.807 2.522-1.648.91 1.148 2.292 2.68 2.058 3.776-.265 1.242-2.06 2.156-4.213 4.167-.194-3.067-.283-4.468-.367-6.295z"/>
    <path fill="#1C1700" d="M334.146 50.595c.724-.821 1.956-1.726 2.083-1.59 1.306 1.385 2.433 2.94 4.389 5.445l-6.198.732a232.245 232.245 0 0 1-.274-4.587z"/>
</svg>
