<?xml version="1.0"?>
<svg width="516" height="167" xmlns="http://www.w3.org/2000/svg" xmlns:svg="http://www.w3.org/2000/svg" enable-background="new 0 0 516 167" version="1.1" xml:space="preserve">
 <g class="layer">
  <title>Layer 1</title>
  <path d="m335.01,82.85c14.12,0.51 27.75,1.02 42.02,1.56c0,12.32 0,24.68 0,37.21c-3.35,-0.77 -6.37,-1.47 -9.81,-2.26c0.74,9.19 1.47,18.13 2.22,27.39c-21.76,0 -42.67,0 -63.87,0c-0.29,-1.78 -0.57,-3.47 -0.81,-4.89c-3.95,-0.87 -3.67,11.63 -10.02,2.4c-0.87,0.95 -1.72,2.67 -2.55,2.66c-6.86,-0.11 -13.71,-0.56 -20.57,-0.85c-0.89,-0.04 -1.8,0.14 -2.68,0.35c-1.12,0.26 -2.41,1.21 -3.28,0.9c-7.06,-2.52 -14.4,1.74 -21.12,-0.51c-6.96,-2.33 -13.45,0.92 -20.17,0.23c-0.51,-3.73 -0.99,-7.28 -1.49,-10.93c-1.97,0 -3.6,0 -5.68,0c-1.04,3.61 -2.11,7.33 -3.1,10.77c-8.91,0 -17.64,0 -27.06,0c-1.07,-5.78 -2.15,-11.67 -3.38,-18.38c-3.44,3.14 -6.28,5.72 -9.19,8.38c-2.04,-2.9 -4.07,-5.79 -6.48,-9.23c-2.2,6.48 -4.27,12.57 -6.41,18.86c-6.78,-1.56 -13.48,-3.04 -20.15,-4.69c-0.71,-0.18 -1.71,-1.34 -1.68,-2c0.17,-3.77 -0.25,-7.89 1.13,-11.23c5.61,-13.64 11.81,-27.05 17.79,-40.54c1.45,-3.28 3.53,-5.14 7.56,-4.56c3.26,0.48 6.64,0.1 9.96,0.1c0.76,1.72 1.46,3.29 2.49,5.62c3.74,-8.5 10.98,-5.29 17.61,-6.36c2.22,8.43 4.42,16.77 6.63,25.12c3.44,-6.98 6.65,-13.73 10.15,-20.33c0.66,-1.26 2.34,-2.42 3.76,-2.74c4.02,-0.92 8.14,-1.38 12.32,-2.04c1.91,4.61 3.71,8.97 5.74,13.87c0.64,-1.02 1.03,-1.37 1.07,-1.75c0.85,-8.35 0.83,-8.46 9.21,-9.71c5.26,-0.79 10.69,-2.11 15.83,-1.49c3.77,0.45 7.21,3.68 11.09,5.83c0.32,-1.75 0.72,-3.9 1.23,-6.63c6.06,1.72 13.13,-2.82 19.19,3.22c0.51,-0.66 1.46,-1.89 2.69,-3.48c2.77,3.78 5.47,7.46 8.42,11.47c0.57,-1.38 1.03,-2.12 1.17,-2.91c1.53,-8.43 1.52,-8.44 10.23,-8.44c6.49,0 12.99,0.01 19.99,0.01m-132.21,41.86c-3.16,-12.46 -6.31,-24.92 -9.45,-37.34c-8.59,-0.81 -8.57,-0.8 -12.2,6.33c-1,1.96 -2.14,3.86 -3.56,6.42c-1.07,-3.47 -1.61,-6.36 -2.86,-8.91c-0.79,-1.6 -2.58,-3.68 -4.04,-3.78c-2.96,-0.2 -6.58,-1.73 -8.55,2.74c-3.76,8.52 -8.05,16.79 -11.95,25.25c-1.87,4.06 -3.37,8.3 -5.21,12.88c5.46,1.47 9.83,2.65 14.25,3.85c2.89,-7.78 5.5,-14.82 8.22,-22.17c2.83,3.88 5.2,7.15 7.72,10.61c3.27,-3.03 6.13,-5.68 9.4,-8.71c2.02,7.32 3.88,14.08 5.86,21.25c4.61,-0.49 8.99,-0.96 13.84,-1.47c-0.47,-2.3 -0.85,-4.22 -1.47,-6.95m71.53,-0.59c-2.41,-2.16 -4.81,-4.32 -7.26,-6.51c0.79,-1.03 1.25,-1.73 1.81,-2.34c6.08,-6.62 5.33,-17.22 -1.63,-22.82c-2.01,-1.62 -4.07,-4.57 -6.07,-4.54c-6.54,0.08 -13.07,1.26 -19.2,1.98c0,4.2 0,7.68 0,11.15c0,9.28 0.16,18.27 4.3,27.21c2.39,5.18 4.76,5.1 9.03,4.3c-0.39,-3.24 -0.76,-6.26 -1.27,-10.39c2.08,1.48 3.56,2.2 4.59,3.33c7.1,7.78 7.07,7.81 16.42,2.82c0.56,-0.3 1.15,-0.52 1.85,-0.84c-0.71,-1.02 -1.37,-1.95 -2.57,-3.35m99.17,-18.39c0,-5.92 0,-11.83 0,-18.21c-11.88,0 -23.8,0 -36.04,0c-0.41,5.33 -0.82,10.55 -1.24,15.97c4.27,0.54 8.33,1.06 12.61,1.61c-0.9,9.4 -1.76,18.42 -2.63,27.59c6.19,0 11.93,0 18,0c-1.17,-9.32 -2.29,-18.31 -3.51,-28.03c4.39,0.42 8.15,0.78 12.81,1.07m-40.32,27.25c1.22,-0.15 2.44,-0.31 3.64,-0.46c-1.17,-10.19 -2.43,-11.37 -11.89,-11.57c-0.66,-0.01 -1.48,0.23 -1.96,-0.07c-1.13,-0.71 -2.09,-1.67 -3.87,-3.15c4.49,-0.9 7.67,-1.54 10.92,-2.2c0.25,-3.28 0.47,-6.17 0.68,-9.02c-3.99,-0.73 -7.44,-1.35 -10.89,-1.98c-0.07,-0.59 -0.14,-1.18 -0.21,-1.77c2.37,-0.58 4.83,-1.88 7.1,-1.6c5.4,0.66 6.46,-2.73 7.1,-6.63c0.38,-2.26 0.27,-4.59 0.39,-7.21c-8.46,0 -16.53,0 -24.79,0c-0.33,2.26 -0.55,4.38 -0.96,6.46c-1.93,9.92 -4.21,19.86 2.31,27.12c-0.86,4.73 -1.48,8.13 -2.2,12.09c8.76,0 16.23,0 24.63,-0.01m-128.11,-21.11c-0.09,2.58 -0.51,5.19 -0.2,7.72c0.39,3.1 1.28,6.15 2.18,9.15c0.42,1.43 1.38,2.69 2.1,4.02c0.94,-1.12 2.11,-2.13 2.75,-3.41c0.64,-1.29 0.64,-2.89 1.14,-4.28c0.36,-1.02 1.03,-2.68 1.64,-2.72c3.46,-0.21 7.05,-0.48 10.35,0.31c1.07,0.25 1.44,3.62 2.04,5.58c0.47,1.53 0.79,3.09 1.22,4.8c5.19,-0.95 9.81,-1.8 15.41,-2.84c-5.52,-13.81 -10.66,-26.64 -15.78,-39.47c-0.19,-0.46 -0.19,-1.1 -0.51,-1.38c-0.7,-0.6 -1.61,-1.49 -2.35,-1.42c-4.06,0.36 -8.02,0.49 -10.17,5.31c-2.76,6.15 -6.34,11.94 -9.82,18.63m95.84,-14.87c-1.84,-2.36 -3.67,-4.72 -5.58,-7.19c-2.93,3.39 -5.52,6.39 -8.77,10.16c0,-4.77 0,-8.54 0,-12.49c-3.27,0 -6.19,0 -9.32,0c-0.13,1.03 -0.31,1.82 -0.34,2.61c-0.25,8.97 -0.61,17.94 -0.62,26.92c0,1.96 0.77,4.31 2,5.81c3.88,4.74 3.98,6.12 -0.27,9.92c3.15,0 6.44,0 10.19,0c-0.27,-3.75 -0.53,-7.22 -0.78,-10.69c0.41,-0.29 0.82,-0.57 1.23,-0.86c3.23,3.73 6.45,7.45 9.81,11.33c2.5,-3.24 4.97,-6.46 7.69,-10c-3.04,-2.85 -5.69,-6.13 -9.06,-8.28c-3.8,-2.42 -3.38,-4.41 -1.16,-7.51c2.01,-2.8 3.5,-5.97 4.98,-9.73m37.32,27.07c1.03,2.79 2.05,5.58 3.08,8.36c0.32,-0.05 0.64,-0.1 0.97,-0.16c0.3,-4.67 0.61,-9.34 0.92,-14.2c-2.5,0 -4.26,0 -6.54,0c0.4,1.96 0.75,3.64 1.57,6z" fill="#070604" id="svg_2" opacity="1"/>
  <path d="m81.12,14.99c1.47,0 2.49,0.12 3.47,-0.02c5.31,-0.77 9.29,0.73 11.14,6.2c0.17,0.51 0.87,0.83 2.16,2c-1.47,-6.48 1.72,-7.48 6.3,-7.52c4.3,-0.04 8.6,-0.64 13.26,-1.01c1.36,5.95 2.67,11.64 3.98,17.34c0.42,0.19 0.84,0.38 1.26,0.56c1.83,-2.64 3.67,-5.28 5.74,-8.26c1.73,2.91 3.41,5.73 5.42,9.11c2.42,-6.5 4.61,-12.41 6.84,-18.43c6.74,1.81 13.08,3.5 19.47,5.21c0.18,1.82 0.34,3.44 0.64,6.51c1.84,-2.87 3.12,-4.7 4.23,-6.62c1.79,-3.08 3.61,-6 7.94,-5.17c0.48,0.1 1,0.05 1.5,0.01c6.58,-0.58 12.96,-0.68 16.21,8.12c0.73,-3.48 1.17,-5.57 1.7,-8.11c9.92,0 20.05,-0.03 30.18,0.02c5.13,0.02 10.32,0.68 15.38,0.12c4.37,-0.48 7.66,0.72 10.74,3.44c2.21,1.95 4.56,3.75 6.64,5.81c0.84,0.84 1.51,2.18 1.61,3.35c0.48,5.47 0.8,10.96 1.06,16.45c0.21,4.47 0.31,8.53 2.66,13c2.06,3.9 2.04,10.53 0.02,14.47c-1.68,3.27 -7.42,4.94 -11.69,6.25c-3.17,0.98 -6.87,0.26 -10.33,0.26c-15.32,0.01 -30.64,0.01 -46.26,0.01c-0.58,-3 -1.15,-5.93 -1.95,-10.05c-1.9,3.98 -3.29,6.91 -5.16,10.85c-7.25,-0.84 -16.1,0.41 -21.98,-3.2c-5.6,-3.43 -14.51,-7.13 -14.15,-17.27c-1.04,2.47 -2.23,4.89 -3.1,7.43c-1.2,3.51 -2.07,7.14 -3.29,10.65c-0.24,0.68 -1.45,1.41 -2.24,1.44c-4,0.14 -8.03,0.34 -11.98,-0.09c-1.25,-0.13 -2.29,-2.15 -3.52,-3.4c-0.36,0.79 -0.95,2.07 -1.6,3.52c-4.89,0 -9.86,0 -14.7,0c-1.26,-6.49 -2.5,-12.92 -3.75,-19.35c-0.32,0.02 -0.65,0.03 -0.97,0.04c-0.33,2.56 -0.88,5.12 -0.95,7.69c-0.09,3.94 -1.76,5.99 -5.77,6.7c-3.03,0.54 -5.84,2.21 -8.86,2.94c-3.81,0.93 -7.96,2.5 -11.54,1.76c-2.68,-0.56 -4.72,-4.31 -7,-6.67c-0.64,-0.66 -1.12,-1.46 -1.53,-1.99c-1.86,2.6 -3.09,5.77 -5.39,7.15c-2.48,1.48 -5.95,1.64 -9.01,1.73c-7.63,0.22 -15.27,0.07 -23.48,0.07c-0.62,-19.92 -1.23,-39.53 -1.83,-58.76c10.06,-7.36 20.19,-3.79 30.05,-1.65c1.92,0.42 3.23,3.69 5.17,6.09c5.98,-1.49 8.44,-11.14 17.26,-8.73m155.56,39.96c5.6,5.92 10.96,12.86 19.85,4.63c0.2,-0.18 0.22,-0.56 0.43,-1.17c-2.25,-2.41 -4.74,-4.81 -6.87,-7.5c-0.7,-0.87 -1.07,-3.25 -0.56,-3.66c4.93,-3.97 3.54,-9.3 3.44,-14.35c-0.12,-6.58 -7.74,-13.42 -14.33,-12.77c-3.97,0.39 -7.89,1.25 -11.86,1.56c-2.79,0.22 -3.85,1.47 -3.76,4.1c0.34,9.81 0.24,19.66 1.12,29.42c0.79,8.81 3.35,10.39 11.91,8.97c0,-3.03 0,-6.12 -0.04,-9.18c0,0 -0.04,0.04 0.67,-0.05m-119.86,-24.38c-0.88,-3.8 -1.76,-7.6 -2.67,-11.52c-4.12,0.56 -7.51,1.02 -11.39,1.55c1.46,6.54 2.97,12.6 4.14,18.73c1.31,6.82 2.13,13.74 3.56,20.53c0.35,1.66 2.32,4.29 3.42,4.23c2.84,-0.15 6.87,2.02 8.25,-3.07c0.73,-2.65 2.49,-5.01 3.94,-7.8c1.17,4.09 2.13,7.47 3.03,10.62c12.4,0.18 9.06,1.69 13.38,-7.78c3,-6.59 5,-13.63 7.58,-20.42c1.5,-3.98 3.25,-7.87 4.93,-11.86c-4.28,-1.08 -7.9,-1.99 -12.09,-3.05c-2.7,7.08 -5.37,14.08 -8.32,21.84c-2.46,-4.06 -4.46,-7.37 -6.61,-10.93c-2.74,3.37 -5.08,6.27 -7.93,9.79c-1.13,-3.83 -2.04,-6.96 -3.22,-10.86m-51.89,24.6c-1.43,-4.48 -2.87,-8.95 -4.56,-14.23c0.34,-2.63 1.81,-6.8 1.09,-10.54c-0.6,-3.06 -3.22,-6.83 -5.96,-8.13c-4.22,-1.99 -9.29,-2.35 -14.05,-3c-5.51,-0.74 -9.38,2.95 -9.22,8.46c0.24,7.97 0.51,15.94 0.82,23.91c0.16,4.27 0.42,8.54 0.64,12.69c6.92,0 13.22,-0.18 19.51,0.04c6.19,0.22 10.15,-2.25 11.73,-9.2m23.13,6.37c3.56,-1.08 7.13,-2.16 10.51,-3.18c0.39,-2.92 0.57,-5.58 1.13,-8.15c1.68,-7.66 3.21,-15.23 -3.23,-21.68c-2.91,-2.91 -5.19,-7.36 -8.66,-8.63c-7.27,-2.66 -14.26,-0.55 -19.39,5.66c-1.33,1.61 -2.37,3.7 -2.85,5.73c-2.16,9.03 1.99,17.12 4.71,25.21c2.3,6.8 8.67,8.76 15.23,6.16c0.61,-0.25 1.21,-0.53 2.55,-1.12m97.92,-21.57c1.97,-2.84 5.56,-5.73 5.47,-8.5c-0.09,-2.92 -3.7,-5.73 -5.77,-8.59c-0.19,-0.27 -0.35,-0.56 -0.51,-0.84c-2.22,-3.77 -12.71,-4.72 -15.44,-1.18c-4.1,5.3 -7.89,10.83 -11.89,16.37c0.5,0.6 0.84,1.19 1.33,1.56c3.29,2.45 6.69,4.75 9.86,7.33c0.9,0.73 1.16,2.25 1.71,3.41c-1.33,-0.18 -2.88,0.01 -3.95,-0.62c-2.11,-1.23 -3.95,-2.92 -6.48,-4.87c-1.71,3.93 -3.43,6.79 -4.1,9.89c-0.4,1.81 10.98,10.81 13.08,10.85c3.83,0.07 7.67,0.2 11.47,-0.08c1.4,-0.1 3.41,-0.97 3.94,-2.07c1.5,-3.08 2.68,-6.41 3.37,-9.76c0.34,-1.7 -0.09,-4.17 -1.17,-5.41c-2.57,-2.93 -5.84,-5.24 -8.61,-8.01c-0.73,-0.73 -0.68,-2.25 -0.98,-3.41c1.16,0 2.63,-0.46 3.44,0.07c1.76,1.15 3.18,2.81 5.23,3.86m34.98,15.63c-0.75,-3.76 -3.55,-3.65 -6.5,-3.63c-2.55,0.02 -5.11,-0.35 -7.67,-0.55c0.05,-0.64 0.11,-1.28 0.16,-1.93c3.18,-0.49 6.36,-0.99 9.68,-1.51c0,-3.44 0,-6.51 0,-9.52c-4.01,-0.63 -7.68,-1.21 -12.24,-1.93c4.07,-6.05 10.48,-1.76 14.26,-5.27c0.76,-3.8 1.57,-7.8 2.43,-12.07c-8.6,0 -16.84,0 -24.69,0c-3.61,4.68 -1.67,8.41 1.6,11.87c-4.53,3.32 -5.5,7.18 -4.53,12.41c1.27,6.9 1.39,14.02 2,21.08c9.6,0 18.39,0 28.07,0c-0.92,-3 -1.71,-5.56 -2.57,-8.95z" fill="#060504" id="svg_3" opacity="1"/>
  <path d="m363.96,78.07c-15.46,0.02 -30.43,0.02 -45.76,0.02c-0.13,-1.79 -0.24,-3.36 -0.39,-5.32c-1.78,0.32 -3.4,0.44 -4.89,0.93c-2.68,0.88 -5.25,2.06 -7.92,2.97c-5.32,1.82 -10.2,3.11 -14.31,-3.02c-3.27,-4.87 -7.91,-8.79 -11.76,-13.3c-1.02,-1.2 -1.96,-3.03 -1.87,-4.5c0.54,-9.11 1.19,-18.21 2.3,-27.26c0.24,-1.96 2.41,-3.79 3.93,-5.46c1.08,-1.19 2.64,-1.95 3.85,-3.04c3.78,-3.38 7.75,-5.36 13.22,-5.3c6.96,0.08 13.32,-0.05 15.13,8.18c1.83,-2.18 3.02,-4.42 4.88,-5.56c2.16,-1.33 4.88,-2.2 7.42,-2.37c3.27,-0.21 6.62,0.3 9.89,0.8c4.7,0.73 9.1,0.28 13.89,-0.46c8.44,-1.32 17.26,-0.16 25.92,-0.18c12.11,-0.03 24.22,-0.19 36.33,-0.29c1.63,-0.01 3.27,0 5.3,0c0,2.25 0,4.15 0,6.89c2.19,-1.51 3.83,-2.44 5.25,-3.64c6.36,-5.39 13.96,-2.86 20.97,-3.04c14.14,-0.36 28.31,0.13 42.47,0.29c0.63,0.01 1.26,0.27 1.98,0.43c0,12.41 0,24.68 0,37.1c-3.76,-0.74 -7.3,-1.44 -11.08,-2.2c0.75,9.26 1.47,18.06 2.18,26.8c-31.98,0 -63.1,0 -94.69,0c-0.52,-4.32 -1.07,-8.83 -1.7,-14.05c-2.06,3.02 -4.1,5.39 -5.44,8.1c-2.45,4.97 -5.93,7.51 -11.62,6.45c-0.96,-0.18 -1.99,0.01 -3.48,0.03m-69.83,-16.55c1.83,3.11 4.44,2.85 7.36,1.84c3.9,-1.35 7.79,-2.83 11.81,-3.68c3.41,-0.72 4.68,-2.42 4.72,-5.73c0.03,-3.64 -0.27,-7.48 0.76,-10.87c1.4,-4.61 0.47,-8.35 -2.03,-12.05c-1.66,-2.43 -3.04,-5.16 -5.1,-7.19c-1.81,-1.78 -4.27,-3.1 -6.67,-4.07c-7.27,-2.94 -12.35,1.98 -18.03,5.14c-4.26,2.37 -5.1,5.73 -5.13,10.17c-0.04,4.26 -1.01,8.5 -1.48,12.76c-0.04,0.35 0.52,0.82 0.87,1.16c4.18,3.97 8.37,7.92 12.92,12.52m58.52,-11.26c-1.53,-2.8 -3.06,-5.61 -4.14,-7.6c0.58,-4.34 2.02,-8.36 1.33,-11.97c-0.6,-3.13 -3,-7.1 -5.7,-8.37c-4.36,-2.05 -9.6,-2.75 -14.5,-2.89c-2.81,-0.08 -7.02,1.33 -8.17,3.41c-1.3,2.35 -0.89,6.85 0.62,9.26c1.97,3.14 1.5,5.68 1.16,8.83c-0.86,7.81 -1.27,15.66 -1.87,23.56c1.91,0.15 2.56,0.26 3.21,0.24c5.64,-0.14 11.31,-0.74 16.91,-0.36c8.59,0.6 12.49,-5.31 11.15,-14.11m103.88,-31.06c-2.42,0 -4.83,0 -7.65,0c0,5.53 0,10.44 0,15.6c3.92,0.46 7.82,0.92 11.68,1.37c-0.94,9.61 -1.85,18.81 -2.77,28.18c6.25,0 12.09,0 18.17,0c-1.28,-9.55 -2.51,-18.7 -3.86,-28.72c4.78,0.81 9.1,1.55 13.55,2.31c0,-5.96 0,-11.83 0,-18.74c-9.6,0 -18.89,0 -29.12,0m-42.57,0.56c-7.85,-0.37 -15.7,-0.74 -23.17,-1.09c-1.34,7.25 -3.39,13.56 -3.44,19.88c-0.07,7.91 1.42,15.84 2.5,23.72c0.13,0.96 1.85,2.39 2.87,2.42c7.95,0.2 15.91,0.11 24.66,0.11c-1.42,-4.6 -2.66,-8.57 -3.86,-12.45c-10.95,-0.98 -10.95,-0.98 -12.09,-2.9c1.04,-0.17 2,-0.37 2.97,-0.48c6.84,-0.74 7.19,-1.05 7.24,-7.85c0.03,-4.93 -4.07,-2.5 -6.3,-3.33c-1.66,-0.61 -3.45,-0.88 -5.91,-1.47c3.62,-6.03 10.49,-1.34 14.71,-6.09c0,-2.59 0,-6.06 -0.18,-10.47m-37.96,15.83c1.36,-5.74 6.51,-0.52 9.31,-3.86c0,-2.96 0,-6.69 0,-11.27c-10.96,-0.52 -21.8,-1.04 -33.71,-1.6c1.18,5.46 2.06,9.52 3,13.89c3.01,0.17 6.08,0.35 9.13,0.53c0.55,5.97 1.06,11.47 1.59,17.21c-3.18,0.31 -5.6,0.54 -7.64,0.74c-1.05,4.61 -2.01,8.84 -3.08,13.51c3.3,0 6.14,0.26 8.9,-0.06c5.76,-0.66 12.41,-0.02 14.15,-7.89c0.4,-1.84 0.84,-3.78 0.63,-5.6c-0.58,-4.92 -1.5,-9.8 -2.28,-15.6m47.38,24.67c1.75,1.35 3.49,3.83 5.26,3.85c6.39,0.07 12.8,-0.68 19.65,-1.16c-1.41,-6.16 -2.64,-11.51 -3.96,-17.28c-5.23,3.07 -9.45,8.58 -15.25,2.53c-1.88,-1.96 -3.27,-10.14 -1.52,-12.06c5.18,-5.72 10.92,-4.4 17.12,0.52c0,-6.18 0,-11.08 0,-16.5c-4.59,-0.24 -9.92,-2.09 -13.57,-0.37c-6.52,3.08 -13.43,6.28 -15.42,15.28c-1.83,8.25 0.27,19.39 7.69,25.19m30.61,1.14c0.4,-3.73 0.8,-7.45 1.21,-11.25c-2.14,0 -3.57,0 -5.41,0c0.94,5.35 1.83,10.42 2.9,16.52c0.57,-2.05 0.9,-3.23 1.3,-5.27z" fill="#050604" id="svg_4" opacity="1"/>
  <path d="m202.92,125.12c0.5,2.32 0.88,4.24 1.35,6.54c-4.85,0.51 -9.23,0.98 -13.84,1.47c-1.98,-7.17 -3.84,-13.93 -5.86,-21.25c-3.27,3.03 -6.13,5.68 -9.4,8.71c-2.52,-3.46 -4.89,-6.73 -7.72,-10.61c-2.72,7.35 -5.33,14.39 -8.22,22.17c-4.42,-1.2 -8.79,-2.38 -14.25,-3.85c1.84,-4.58 3.34,-8.82 5.21,-12.88c3.9,-8.46 8.19,-16.73 11.95,-25.25c1.97,-4.47 5.59,-2.94 8.55,-2.74c1.46,0.1 3.25,2.18 4.04,3.78c1.25,2.55 1.79,5.44 2.86,8.91c1.42,-2.56 2.56,-4.46 3.56,-6.42c3.63,-7.13 3.61,-7.14 12.2,-6.33c3.14,12.42 6.29,24.88 9.57,37.75z" fill="#E21D07" id="svg_5" opacity="1"/>
  <path d="m274.6,124.35c0.93,1.17 1.59,2.1 2.3,3.12c-0.7,0.32 -1.29,0.54 -1.85,0.84c-9.35,4.99 -9.32,4.96 -16.42,-2.82c-1.03,-1.13 -2.51,-1.85 -4.59,-3.33c0.51,4.13 0.88,7.15 1.27,10.39c-4.27,0.8 -6.64,0.88 -9.03,-4.3c-4.14,-8.94 -4.3,-17.93 -4.3,-27.21c0,-3.47 0,-6.95 0,-11.15c6.13,-0.72 12.66,-1.9 19.2,-1.98c2,-0.03 4.06,2.92 6.07,4.54c6.96,5.6 7.71,16.2 1.63,22.82c-0.56,0.61 -1.02,1.31 -1.81,2.34c2.45,2.19 4.85,4.35 7.53,6.74m-21.32,-17.96c0.69,1.2 1.39,2.4 2.08,3.6c1.23,-1.35 3.65,-2.95 3.44,-4c-0.42,-2.01 -2.34,-3.7 -3.63,-5.53c-0.49,0.27 -0.97,0.53 -1.45,0.8c-0.14,1.43 -0.28,2.87 -0.44,5.13z" fill="#F7CC00" id="svg_6" opacity="1"/>
  <path d="m373.05,105.77c-4.21,-0.33 -7.97,-0.69 -12.36,-1.11c1.22,9.72 2.34,18.71 3.51,28.03c-6.07,0 -11.81,0 -18,0c0.87,-9.17 1.73,-18.19 2.63,-27.59c-4.28,-0.55 -8.34,-1.07 -12.61,-1.61c0.42,-5.42 0.83,-10.64 1.24,-15.97c12.24,0 24.16,0 36.04,0c0,6.38 0,12.29 -0.45,18.25z" fill="#F7CC00" id="svg_7" opacity="1"/>
  <path d="m332.72,132.99c-7.94,0 -15.41,0 -24.17,0c0.72,-3.96 1.34,-7.36 2.2,-12.09c-6.52,-7.26 -4.24,-17.2 -2.31,-27.12c0.41,-2.08 0.63,-4.2 0.96,-6.46c8.26,0 16.33,0 24.79,0c-0.12,2.62 -0.01,4.95 -0.39,7.21c-0.64,3.9 -1.7,7.29 -7.1,6.63c-2.27,-0.28 -4.73,1.02 -7.1,1.6c0.07,0.59 0.14,1.18 0.21,1.77c3.45,0.63 6.9,1.25 10.89,1.98c-0.21,2.85 -0.43,5.74 -0.68,9.02c-3.25,0.66 -6.43,1.3 -10.92,2.2c1.78,1.48 2.74,2.44 3.87,3.15c0.48,0.3 1.3,0.06 1.96,0.07c9.46,0.2 10.72,1.38 11.89,11.57c-1.2,0.15 -2.42,0.31 -4.1,0.47z" fill="#41AE31" id="svg_8" opacity="1"/>
  <path d="m205.2,111.5c3.35,-6.32 6.93,-12.11 9.69,-18.26c2.15,-4.82 6.11,-4.95 10.17,-5.31c0.74,-0.07 1.65,0.82 2.35,1.42c0.32,0.28 0.32,0.92 0.51,1.38c5.12,12.83 10.26,25.66 15.78,39.47c-5.6,1.04 -10.22,1.89 -15.41,2.84c-0.43,-1.71 -0.75,-3.27 -1.22,-4.8c-0.6,-1.96 -0.97,-5.33 -2.04,-5.58c-3.3,-0.79 -6.89,-0.52 -10.35,-0.31c-0.61,0.04 -1.28,1.7 -1.64,2.72c-0.5,1.39 -0.5,2.99 -1.14,4.28c-0.64,1.28 -1.81,2.29 -2.75,3.41c-0.72,-1.33 -1.68,-2.59 -2.1,-4.02c-0.9,-3 -1.79,-6.05 -2.18,-9.15c-0.31,-2.53 0.11,-5.14 0.33,-8.09m13.35,-4.48c-0.31,5.55 3.35,2 5.33,2.76c-0.15,-5.59 -0.89,-6.04 -5.33,-2.76z" fill="#40AD31" id="svg_9" opacity="1"/>
  <path d="m301.03,97.38c-1.6,3.38 -3.09,6.55 -5.1,9.35c-2.22,3.1 -2.64,5.09 1.16,7.51c3.37,2.15 6.02,5.43 9.06,8.28c-2.72,3.54 -5.19,6.76 -7.69,10c-3.36,-3.88 -6.58,-7.6 -9.81,-11.33c-0.41,0.29 -0.82,0.57 -1.23,0.86c0.25,3.47 0.51,6.94 0.78,10.69c-3.75,0 -7.04,0 -10.19,0c4.25,-3.8 4.15,-5.18 0.27,-9.92c-1.23,-1.5 -2,-3.85 -2,-5.81c0.01,-8.98 0.37,-17.95 0.62,-26.92c0.03,-0.79 0.21,-1.58 0.34,-2.61c3.13,0 6.05,0 9.32,0c0,3.95 0,7.72 0,12.49c3.25,-3.77 5.84,-6.77 8.77,-10.16c1.91,2.47 3.74,4.83 5.7,7.57z" fill="#E01D07" id="svg_10" opacity="1"/>
  <path d="m116.95,30.96c1.05,3.51 1.96,6.64 3.09,10.47c2.85,-3.52 5.19,-6.42 7.93,-9.79c2.15,3.56 4.15,6.87 6.61,10.93c2.95,-7.76 5.62,-14.76 8.32,-21.84c4.19,1.06 7.81,1.97 12.09,3.05c-1.68,3.99 -3.43,7.88 -4.93,11.86c-2.58,6.79 -4.58,13.83 -7.58,20.42c-4.32,9.47 -0.98,7.96 -13.38,7.78c-0.9,-3.15 -1.86,-6.53 -3.03,-10.62c-1.45,2.79 -3.21,5.15 -3.94,7.8c-1.38,5.09 -5.41,2.92 -8.25,3.07c-1.1,0.06 -3.07,-2.57 -3.42,-4.23c-1.43,-6.79 -2.25,-13.71 -3.56,-20.53c-1.17,-6.13 -2.68,-12.19 -4.14,-18.73c3.88,-0.53 7.27,-0.99 11.39,-1.55c0.91,3.92 1.79,7.72 2.8,11.91z" fill="#E21D07" id="svg_12" opacity="1"/>
  <path d="m64.84,55.56c-1.49,6.56 -5.45,9.03 -11.64,8.81c-6.29,-0.22 -12.59,-0.04 -19.51,-0.04c-0.22,-4.15 -0.48,-8.42 -0.64,-12.69c-0.31,-7.97 -0.58,-15.94 -0.82,-23.91c-0.16,-5.51 3.71,-9.2 9.22,-8.46c4.76,0.65 9.83,1.01 14.05,3c2.74,1.3 5.36,5.07 5.96,8.13c0.72,3.74 -0.75,7.91 -1.09,10.54c1.69,5.28 3.13,9.75 4.47,14.62m-19.02,-25.5c0,1.89 0,3.77 0,5.66c0.4,0.31 0.8,0.62 1.2,0.93c1.31,-1.12 3.42,-2.03 3.77,-3.39c0.88,-3.51 -1.92,-3.78 -4.97,-3.2m0.21,20.64c0.08,1.42 0.16,2.85 0.29,5.12c1.96,-0.92 3.56,-1.28 4.5,-2.27c0.5,-0.53 0.22,-2.87 -0.31,-3.12c-1.29,-0.6 -2.93,-0.46 -4.48,0.27z" fill="#0099D5" id="svg_13" opacity="1"/>
  <path d="m87.69,61.7c-0.97,0.43 -1.57,0.71 -2.18,0.96c-6.56,2.6 -12.93,0.64 -15.23,-6.16c-2.72,-8.09 -6.87,-16.18 -4.71,-25.21c0.48,-2.03 1.52,-4.12 2.85,-5.73c5.13,-6.21 12.12,-8.32 19.39,-5.66c3.47,1.27 5.75,5.72 8.66,8.63c6.44,6.45 4.91,14.02 3.23,21.68c-0.56,2.57 -0.74,5.23 -1.13,8.15c-3.38,1.02 -6.95,2.1 -10.88,3.34m-3.02,-16.88c0.63,-2.7 1.27,-5.41 2.22,-9.46c-3.92,0.74 -6.84,0.47 -8.19,1.8c-1.12,1.12 -1.17,4.54 -0.27,6.12c0.74,1.28 3.6,1.35 6.24,1.54z" fill="#F7CC00" id="svg_14" opacity="1"/>
  <path d="m236.05,54.96c0,3.1 0,6.19 0,9.22c-8.56,1.42 -11.12,-0.16 -11.91,-8.97c-0.88,-9.76 -0.78,-19.61 -1.12,-29.42c-0.09,-2.63 0.97,-3.88 3.76,-4.1c3.97,-0.31 7.89,-1.17 11.86,-1.56c6.59,-0.65 14.21,6.19 14.33,12.77c0.1,5.05 1.49,10.38 -3.44,14.35c-0.51,0.41 -0.14,2.79 0.56,3.66c2.13,2.69 4.62,5.09 6.87,7.5c-0.21,0.61 -0.23,0.99 -0.43,1.17c-8.89,8.23 -14.25,1.29 -20.24,-4.78c-0.54,-0.13 -0.7,-0.13 -0.86,-0.12c0.2,0.09 0.41,0.19 0.62,0.28m3.64,-15.54c2.06,-4.38 -0.36,-5.81 -4.83,-6.6c0,2.74 0,5.24 0,7.75c1.47,-0.17 2.94,-0.34 4.83,-1.15z" fill="#E21D07" id="svg_15" opacity="1"/>
  <path d="m185.74,40.17c-1.81,-1.25 -3.23,-2.91 -4.99,-4.06c-0.81,-0.53 -2.28,-0.07 -3.44,-0.07c0.3,1.16 0.25,2.68 0.98,3.41c2.77,2.77 6.04,5.08 8.61,8.01c1.08,1.24 1.51,3.71 1.17,5.41c-0.69,3.35 -1.87,6.68 -3.37,9.76c-0.53,1.1 -2.54,1.97 -3.94,2.07c-3.8,0.28 -7.64,0.15 -11.47,0.08c-2.1,-0.04 -13.48,-9.04 -13.08,-10.85c0.67,-3.1 2.39,-5.96 4.1,-9.89c2.53,1.95 4.37,3.64 6.48,4.87c1.07,0.63 2.62,0.44 3.95,0.62c-0.55,-1.16 -0.81,-2.68 -1.71,-3.41c-3.17,-2.58 -6.57,-4.88 -9.86,-7.33c-0.49,-0.37 -0.83,-0.96 -1.33,-1.56c4,-5.54 7.79,-11.07 11.89,-16.37c2.73,-3.54 13.22,-2.59 15.44,1.18c0.16,0.28 0.32,0.57 0.51,0.84c2.07,2.86 5.68,5.67 5.77,8.59c0.09,2.77 -3.5,5.66 -5.71,8.7z" fill="#41AD31" id="svg_16" opacity="1"/>
  <path d="m221,56.01c0.82,2.98 1.61,5.54 2.53,8.54c-9.68,0 -18.47,0 -28.07,0c-0.61,-7.06 -0.73,-14.18 -2,-21.08c-0.97,-5.23 0,-9.09 4.53,-12.41c-3.27,-3.46 -5.21,-7.19 -1.6,-11.87c7.85,0 16.09,0 24.69,0c-0.86,4.27 -1.67,8.27 -2.43,12.07c-3.78,3.51 -10.19,-0.78 -14.26,5.27c4.56,0.72 8.23,1.3 12.24,1.93c0,3.01 0,6.08 0,9.52c-3.32,0.52 -6.5,1.02 -9.68,1.51c-0.05,0.65 -0.11,1.29 -0.16,1.93c2.56,0.2 5.12,0.57 7.67,0.55c2.95,-0.02 5.75,-0.13 6.54,4.04z" fill="#F5CB00" id="svg_17" opacity="1"/>
  <path d="m293.94,61.2c-4.36,-4.28 -8.55,-8.23 -12.73,-12.2c-0.35,-0.34 -0.91,-0.81 -0.87,-1.16c0.47,-4.26 1.44,-8.5 1.48,-12.76c0.03,-4.44 0.87,-7.8 5.13,-10.17c5.68,-3.16 10.76,-8.08 18.03,-5.14c2.4,0.97 4.86,2.29 6.67,4.07c2.06,2.03 3.44,4.76 5.1,7.19c2.5,3.7 3.43,7.44 2.03,12.05c-1.03,3.39 -0.73,7.23 -0.76,10.87c-0.04,3.31 -1.31,5.01 -4.72,5.73c-4.02,0.85 -7.91,2.33 -11.81,3.68c-2.92,1.01 -5.53,1.27 -7.55,-2.16m2.14,-19.83c1.1,1.57 2.19,3.15 3.36,4.82c1.38,-0.6 2.98,-0.78 3.34,-1.55c0.94,-2 1.88,-4.32 1.69,-6.4c-0.09,-0.9 -3.36,-2.49 -4.51,-2.04c-1.58,0.61 -2.51,2.87 -3.88,5.17z" fill="#41AE31" id="svg_18" opacity="1"/>
  <path d="m352.78,50.66c1.21,8.4 -2.69,14.31 -11.28,13.71c-5.6,-0.38 -11.27,0.22 -16.91,0.36c-0.65,0.02 -1.3,-0.09 -3.21,-0.24c0.6,-7.9 1.01,-15.75 1.87,-23.56c0.34,-3.15 0.81,-5.69 -1.16,-8.83c-1.51,-2.41 -1.92,-6.91 -0.62,-9.26c1.15,-2.08 5.36,-3.49 8.17,-3.41c4.9,0.14 10.14,0.84 14.5,2.89c2.7,1.27 5.1,5.24 5.7,8.37c0.69,3.61 -0.75,7.63 -1.33,11.97c1.08,1.99 2.61,4.8 4.27,8m-18.9,-18.93c0.09,1.4 0.17,2.8 0.37,5.87c2.15,-2.01 3.95,-2.93 4.21,-4.17c0.24,-1.09 -1.15,-2.63 -2.06,-3.77c-0.12,-0.16 -1.64,0.78 -2.52,2.07m0.26,19.26c0.09,1.29 0.17,2.57 0.28,4.19c1.69,-0.2 3.08,-0.36 6.2,-0.73c-1.96,-2.51 -3.08,-4.06 -4.39,-5.45c-0.13,-0.13 -1.36,0.77 -2.09,1.99z" fill="#F7CC00" id="svg_19" opacity="1"/>
  <path d="m457,19.2c9.76,0 19.05,0 28.65,0c0,6.91 0,12.78 0,18.74c-4.45,-0.76 -8.77,-1.5 -13.55,-2.31c1.35,10.02 2.58,19.17 3.86,28.72c-6.08,0 -11.92,0 -18.17,0c0.92,-9.37 1.83,-18.57 2.77,-28.18c-3.86,-0.45 -7.76,-0.91 -11.68,-1.37c0,-5.16 0,-10.07 0,-15.6c2.82,0 5.23,0 8.12,0z" fill="#F6CB00" id="svg_20" opacity="1"/>
  <path d="m414.05,20.23c0.09,3.94 0.09,7.41 0.09,10c-4.22,4.75 -11.09,0.06 -14.71,6.09c2.46,0.59 4.25,0.86 5.91,1.47c2.23,0.83 6.33,-1.6 6.3,3.33c-0.05,6.8 -0.4,7.11 -7.24,7.85c-0.97,0.11 -1.93,0.31 -2.97,0.48c1.14,1.92 1.14,1.92 12.09,2.9c1.2,3.88 2.44,7.85 3.86,12.45c-8.75,0 -16.71,0.09 -24.66,-0.11c-1.02,-0.03 -2.74,-1.46 -2.87,-2.42c-1.08,-7.88 -2.57,-15.81 -2.5,-23.72c0.05,-6.32 2.1,-12.63 3.44,-19.88c7.47,0.35 15.32,0.72 23.26,1.56z" fill="#40AB30" id="svg_21" opacity="1"/>
  <path d="m376,36.04c0.78,5.35 1.7,10.23 2.28,15.15c0.21,1.82 -0.23,3.76 -0.63,5.6c-1.74,7.87 -8.39,7.23 -14.15,7.89c-2.76,0.32 -5.6,0.06 -8.9,0.06c1.07,-4.67 2.03,-8.9 3.08,-13.51c2.04,-0.2 4.46,-0.43 7.64,-0.74c-0.53,-5.74 -1.04,-11.24 -1.59,-17.21c-3.05,-0.18 -6.12,-0.36 -9.13,-0.53c-0.94,-4.37 -1.82,-8.43 -3,-13.89c11.91,0.56 22.75,1.08 33.71,1.6c0,4.58 0,8.31 0,11.27c-2.8,3.34 -7.95,-1.88 -9.31,4.31z" fill="#0098D4" id="svg_22" opacity="1"/>
  <path d="m423.08,60.03c-7.12,-5.57 -9.22,-16.71 -7.39,-24.96c1.99,-9 8.9,-12.2 15.42,-15.28c3.65,-1.72 8.98,0.13 13.57,0.37c0,5.42 0,10.32 0,16.5c-6.2,-4.92 -11.94,-6.24 -17.12,-0.52c-1.75,1.92 -0.36,10.1 1.52,12.06c5.8,6.05 10.02,0.54 15.25,-2.53c1.32,5.77 2.55,11.12 3.96,17.28c-6.85,0.48 -13.26,1.23 -19.65,1.16c-1.77,-0.02 -3.51,-2.5 -5.56,-4.08z" fill="#0098D4" id="svg_23" opacity="1"/>
  <path d="m253.29,105.98c0.15,-1.85 0.29,-3.29 0.43,-4.72c0.48,-0.27 0.96,-0.53 1.45,-0.8c1.29,1.83 3.21,3.52 3.63,5.53c0.21,1.05 -2.21,2.65 -3.44,4c-0.69,-1.2 -1.39,-2.4 -2.07,-4.01z" fill="#1F1A00" id="svg_25" opacity="1"/>
  <path d="m218.71,106.63c4.28,-2.89 5.02,-2.44 5.17,3.15c-1.98,-0.76 -5.64,2.79 -5.17,-3.15z" fill="#020602" id="svg_26" opacity="1"/>
  <path d="m46.06,29.72c2.81,-0.24 5.61,0.03 4.73,3.54c-0.35,1.36 -2.46,2.27 -3.77,3.39c-0.4,-0.31 -0.8,-0.62 -1.2,-0.93c0,-1.89 0,-3.77 0.24,-6z" fill="#00090C" id="svg_27" opacity="1"/>
  <path d="m46.06,50.26c1.52,-0.29 3.16,-0.43 4.45,0.17c0.53,0.25 0.81,2.59 0.31,3.12c-0.94,0.99 -2.54,1.35 -4.5,2.27c-0.13,-2.27 -0.21,-3.7 -0.26,-5.56z" fill="#000709" id="svg_28" opacity="1"/>
  <path d="m84.31,45.03c-2.28,-0.4 -5.14,-0.47 -5.88,-1.75c-0.9,-1.58 -0.85,-5 0.27,-6.12c1.35,-1.33 4.27,-1.06 8.19,-1.8c-0.95,4.05 -1.59,6.76 -2.58,9.67z" fill="#090800" id="svg_29" opacity="1"/>
  <path d="m239.48,39.74c-1.68,0.49 -3.15,0.66 -4.62,0.83c0,-2.51 0,-5.01 0,-7.75c4.47,0.79 6.89,2.22 4.62,6.92z" fill="#130201" id="svg_30" opacity="1"/>
  <path d="m236.03,54.98c-0.19,-0.11 -0.4,-0.21 -0.6,-0.3c0.16,-0.01 0.32,-0.01 0.51,0.17c0.03,0.19 0.07,0.15 0.09,0.13z" fill="#060504" id="svg_31" opacity="1"/>
  <path d="m296.16,41c1.29,-1.93 2.22,-4.19 3.8,-4.8c1.15,-0.45 4.42,1.14 4.51,2.04c0.19,2.08 -0.75,4.4 -1.69,6.4c-0.36,0.77 -1.96,0.95 -3.34,1.55c-1.17,-1.67 -2.26,-3.25 -3.28,-5.19z" fill="#040C03" id="svg_32" opacity="1"/>
  <path d="m333.88,31.3c0.88,-0.86 2.4,-1.8 2.52,-1.64c0.91,1.14 2.3,2.68 2.06,3.77c-0.26,1.24 -2.06,2.16 -4.21,4.17c-0.2,-3.07 -0.28,-4.47 -0.37,-6.3z" fill="#181400" id="svg_33" opacity="1"/>
  <path d="m334.15,50.6c0.72,-0.83 1.95,-1.73 2.08,-1.6c1.31,1.39 2.43,2.94 4.39,5.45c-3.12,0.37 -4.51,0.53 -6.2,0.73c-0.11,-1.62 -0.19,-2.9 -0.27,-4.58z" fill="#1C1700" id="svg_34" opacity="1"/>
 </g>
</svg>