<svg version="1.1" id="Layer_1" xmlns="http://www.w3.org/2000/svg" xmlns:xlink="http://www.w3.org/1999/xlink" x="0px" y="0px"
	 width="100%" viewBox="0 0 516 154" enable-background="new 0 0 516 154" xml:space="preserve">
<path fill="#FDFDFD" opacity="1.000000" stroke="none" 
	d="
M338.000000,155.000000 
	C225.333359,155.000000 113.166710,155.000000 1.000045,155.000000 
	C1.000030,103.666695 1.000030,52.333393 1.000015,1.000066 
	C172.999939,1.000044 344.999878,1.000044 516.999878,1.000022 
	C516.999878,52.333263 516.999878,103.666527 516.999939,154.999893 
	C457.500000,155.000000 398.000000,155.000000 338.000000,155.000000 
M390.911835,114.609459 
	C393.270447,117.706383 395.629089,120.803299 398.113800,124.065765 
	C404.592957,118.420227 410.385651,113.372841 416.709473,107.862648 
	C418.055573,112.096840 419.132660,115.236794 420.050537,118.422623 
	C422.079559,125.465157 423.876190,132.580200 426.137207,139.545700 
	C426.595001,140.956024 428.753235,142.883957 430.010498,142.800949 
	C443.631744,141.901764 457.234497,140.699295 470.824554,139.394745 
	C471.903778,139.291153 473.705658,137.827820 473.722351,136.968216 
	C473.841736,130.824646 474.800385,124.345772 473.244385,118.580132 
	C465.044708,88.196815 456.155487,57.999901 447.587616,27.715084 
	C446.787720,24.887707 445.590393,23.634703 442.402832,23.818378 
	C434.254395,24.287918 426.070618,24.177767 417.930603,24.733704 
	C416.005341,24.865192 413.785431,26.336672 412.430969,27.846558 
	C410.399780,30.110878 409.013580,32.953827 406.870697,36.305119 
	C405.794220,33.573906 404.852600,31.839310 404.433441,29.986513 
	C403.529724,25.992064 401.553223,24.341131 397.155914,24.556812 
	C388.843750,24.964510 380.493164,24.827898 372.167328,24.598856 
	C368.881226,24.508457 367.077271,25.577858 365.536072,28.505919 
	C358.241882,42.363857 350.718933,56.101490 343.258392,69.871635 
	C342.449982,71.363739 341.517914,72.788857 340.643188,74.245041 
	C339.607574,72.474785 339.301300,71.021744 339.467316,69.624840 
	C340.104095,64.267014 338.061310,60.139950 334.613831,56.090172 
	C326.947601,47.084579 319.835022,37.607574 312.164734,28.605659 
	C310.589539,26.757011 307.621765,25.280321 305.195587,25.116365 
	C296.059753,24.498989 286.878296,24.242561 277.722961,24.395006 
	C274.446808,24.449558 270.850861,25.438971 268.001190,27.058193 
	C260.527740,31.304754 253.384796,36.133015 245.944199,40.834335 
	C243.114059,36.589870 241.390884,31.687477 237.943130,29.486198 
	C234.488983,27.280828 229.334290,27.555857 224.888062,27.120039 
	C208.156998,25.480064 191.404343,20.890612 174.829422,28.811899 
	C171.087708,30.600092 169.235382,32.141544 169.328079,36.214310 
	C169.604767,48.370537 169.611450,60.533386 169.937500,72.687912 
	C170.518326,94.339943 171.328735,115.985970 171.863907,137.638931 
	C171.964676,141.716156 173.360764,143.039154 177.491562,142.928558 
	C193.648468,142.495941 209.838577,142.862061 225.968811,142.020386 
	C237.950943,141.395157 250.073105,139.719635 254.154251,125.233116 
	C254.192490,125.097404 254.375763,125.002541 254.995255,124.391800 
	C261.017761,129.709000 267.167297,134.994080 273.132019,140.480148 
	C275.320404,142.492950 277.274811,143.048737 280.273743,142.226257 
	C292.465729,138.882538 304.737122,135.822891 317.015015,132.803879 
	C318.849426,132.352814 320.931427,132.358856 322.802216,132.693649 
	C336.067444,135.067551 349.385834,137.237625 362.516632,140.223358 
	C367.696289,141.401138 369.525391,139.676498 371.385254,135.405380 
	C375.474884,126.013733 380.044922,116.831276 384.837555,106.676270 
	C387.103271,109.631401 388.789337,111.830513 390.911835,114.609459 
M47.020309,114.109474 
	C49.706032,117.863449 52.391758,121.617416 55.077480,125.371391 
	C55.996243,127.638962 55.736591,130.499542 56.096581,133.279892 
	C56.302517,134.870392 57.135887,136.802750 58.338768,137.772171 
	C65.912834,143.876389 74.771362,144.673752 84.075684,143.668167 
	C88.346855,143.206528 92.671478,143.169693 96.974625,143.090332 
	C103.190727,142.975693 109.564850,143.825638 115.577232,142.696655 
	C120.305908,141.808716 127.077034,138.576736 126.416405,133.794632 
	C125.388252,126.352097 129.541519,122.840790 133.152802,118.320168 
	C133.645844,117.702995 134.192596,116.957893 134.285034,116.218346 
	C135.072845,109.915924 140.261505,106.839020 144.242874,103.098488 
	C151.480179,96.299034 155.526886,88.288353 153.765121,78.459778 
	C153.157257,75.068542 152.926788,70.502464 148.214905,68.679619 
	C144.278885,67.156906 140.630981,64.889435 137.769882,63.421066 
	C140.685822,56.542576 144.257309,50.479401 145.731140,43.943222 
	C147.069901,38.005997 140.274078,29.603943 135.411377,28.653845 
	C134.963974,31.875843 135.198044,35.448566 133.839355,38.248344 
	C132.821243,40.346321 129.947586,42.110153 127.544998,42.818714 
	C124.872498,43.606876 122.864281,42.030514 121.098091,39.256199 
	C118.150970,34.626904 116.499626,29.260635 111.979134,25.418770 
	C105.392822,19.821209 105.698463,19.466854 101.060455,26.368689 
	C100.910629,26.591631 100.571243,26.687181 100.113960,26.969435 
	C97.312263,24.430393 94.472984,21.857296 91.620544,19.272268 
	C88.858917,21.610359 86.361687,23.978540 83.566078,25.916227 
	C82.850548,26.412174 80.760246,25.950909 80.068604,25.211706 
	C79.060669,24.134474 78.747208,22.407427 78.150536,20.988008 
	C71.485573,23.196417 66.175598,29.005127 61.974155,37.740105 
	C60.901688,39.969818 58.795643,41.702393 57.088375,43.754856 
	C49.003540,40.981331 49.014915,40.981297 48.987068,32.215397 
	C48.981712,30.529198 48.848171,28.843401 48.767429,27.013807 
	C42.457634,29.474344 39.906910,34.606213 37.875572,39.740223 
	C36.922188,42.149818 37.252399,45.481632 38.051018,48.071735 
	C39.211826,51.836502 41.301571,55.318447 43.032887,58.902790 
	C45.164215,63.315300 44.034889,64.620186 39.352764,66.167740 
	C36.005604,67.274055 31.216961,69.505280 30.504503,72.156960 
	C27.238859,84.311340 28.217651,95.063049 39.594410,104.112770 
	C42.602535,106.505592 44.561329,110.217575 47.020309,114.109474 
z"/>
<path fill="#070605" opacity="1.000000" stroke="none" 
	d="
M390.693604,114.319550 
	C388.789337,111.830513 387.103271,109.631401 384.837555,106.676270 
	C380.044922,116.831276 375.474884,126.013733 371.385254,135.405380 
	C369.525391,139.676498 367.696289,141.401138 362.516632,140.223358 
	C349.385834,137.237625 336.067444,135.067551 322.802216,132.693649 
	C320.931427,132.358856 318.849426,132.352814 317.015015,132.803879 
	C304.737122,135.822891 292.465729,138.882538 280.273743,142.226257 
	C277.274811,143.048737 275.320404,142.492950 273.132019,140.480148 
	C267.167297,134.994080 261.017761,129.709000 254.995255,124.391800 
	C254.375763,125.002541 254.192490,125.097404 254.154251,125.233116 
	C250.073105,139.719635 237.950943,141.395157 225.968811,142.020386 
	C209.838577,142.862061 193.648468,142.495941 177.491562,142.928558 
	C173.360764,143.039154 171.964676,141.716156 171.863907,137.638931 
	C171.328735,115.985970 170.518326,94.339943 169.937500,72.687912 
	C169.611450,60.533386 169.604767,48.370537 169.328079,36.214310 
	C169.235382,32.141544 171.087708,30.600092 174.829422,28.811899 
	C191.404343,20.890612 208.156998,25.480064 224.888062,27.120039 
	C229.334290,27.555857 234.488983,27.280828 237.943130,29.486198 
	C241.390884,31.687477 243.114059,36.589870 245.944199,40.834335 
	C253.384796,36.133015 260.527740,31.304754 268.001190,27.058193 
	C270.850861,25.438971 274.446808,24.449558 277.722961,24.395006 
	C286.878296,24.242561 296.059753,24.498989 305.195587,25.116365 
	C307.621765,25.280321 310.589539,26.757011 312.164734,28.605659 
	C319.835022,37.607574 326.947601,47.084579 334.613831,56.090172 
	C338.061310,60.139950 340.104095,64.267014 339.467316,69.624840 
	C339.301300,71.021744 339.607574,72.474785 340.643188,74.245041 
	C341.517914,72.788857 342.449982,71.363739 343.258392,69.871635 
	C350.718933,56.101490 358.241882,42.363857 365.536072,28.505919 
	C367.077271,25.577858 368.881226,24.508457 372.167328,24.598856 
	C380.493164,24.827898 388.843750,24.964510 397.155914,24.556812 
	C401.553223,24.341131 403.529724,25.992064 404.433441,29.986513 
	C404.852600,31.839310 405.794220,33.573906 406.870697,36.305119 
	C409.013580,32.953827 410.399780,30.110878 412.430969,27.846558 
	C413.785431,26.336672 416.005341,24.865192 417.930603,24.733704 
	C426.070618,24.177767 434.254395,24.287918 442.402832,23.818378 
	C445.590393,23.634703 446.787720,24.887707 447.587616,27.715084 
	C456.155487,57.999901 465.044708,88.196815 473.244385,118.580132 
	C474.800385,124.345772 473.841736,130.824646 473.722351,136.968216 
	C473.705658,137.827820 471.903778,139.291153 470.824554,139.394745 
	C457.234497,140.699295 443.631744,141.901764 430.010498,142.800949 
	C428.753235,142.883957 426.595001,140.956024 426.137207,139.545700 
	C423.876190,132.580200 422.079559,125.465157 420.050537,118.422623 
	C419.132660,115.236794 418.055573,112.096840 416.709473,107.862648 
	C410.385651,113.372841 404.592957,118.420227 398.113800,124.065765 
	C395.629089,120.803299 393.270447,117.706383 390.693604,114.319550 
M353.911743,67.423004 
	C346.773315,80.671089 339.634918,93.919182 332.090942,107.919922 
	C342.105042,109.772011 351.095551,111.277367 360.003082,113.172722 
	C362.887177,113.786407 364.134338,113.079163 365.314087,110.493027 
	C370.291382,99.582069 375.466431,88.761139 380.598358,77.921089 
	C381.265717,76.511398 382.102753,75.182007 383.245758,73.122543 
	C388.808319,80.408600 393.818634,86.971306 399.152191,93.957420 
	C406.307281,87.725166 412.999481,81.896103 420.487427,75.373924 
	C424.058319,86.721115 427.425446,97.118797 430.592072,107.577202 
	C433.204529,116.205223 433.106201,116.361237 442.278870,115.854721 
	C449.028992,115.481987 455.758240,114.730629 462.819122,114.120125 
	C462.366760,111.960800 462.152466,110.504616 461.754120,109.100662 
	C455.027527,85.393105 448.152924,61.726311 441.642487,37.959705 
	C440.386841,33.375973 438.589569,32.226852 433.693237,31.719563 
	C422.344299,30.543737 415.087952,34.432499 410.918304,45.004105 
	C409.599945,48.346596 407.131134,51.235313 404.507935,55.417183 
	C403.148163,51.710758 402.372803,49.543354 401.559082,47.390438 
	C399.799530,42.735012 399.268524,36.358288 395.896881,33.923767 
	C392.546967,31.504919 386.332550,33.043102 381.373474,32.869690 
	C380.042084,32.823128 378.687286,33.012543 377.378662,32.833969 
	C373.948364,32.365852 372.016846,33.723305 370.395386,36.873047 
	C365.212524,46.941010 359.656006,56.816624 353.911743,67.423004 
M309.435028,37.991634 
	C307.169098,33.561497 303.503326,32.297642 298.706787,32.712170 
	C295.420197,32.996212 292.028107,32.779655 288.750671,32.312832 
	C279.457672,30.989162 271.053680,32.398727 263.689484,38.771866 
	C260.825287,41.250580 257.375702,43.106182 254.037460,44.967079 
	C251.286911,46.500381 250.176163,48.387089 250.139511,51.682102 
	C250.061295,58.713764 249.363159,65.738533 248.891953,73.194412 
	C249.769638,74.860855 251.692078,77.140968 252.199982,79.701653 
	C255.093719,94.290970 263.147461,105.198921 275.006897,113.802452 
	C277.569916,115.661819 279.620453,116.434776 282.666534,115.600960 
	C294.852478,112.265236 307.067383,109.028122 319.322784,105.958847 
	C322.182953,105.242531 323.422180,103.906052 323.881256,101.006508 
	C325.651306,89.827522 327.782990,78.704636 329.454346,67.512230 
	C329.750763,65.527145 329.067566,62.879642 327.859131,61.273640 
	C322.056885,53.562599 315.918945,46.104149 309.435028,37.991634 
M181.178925,116.506927 
	C195.300522,116.458954 209.430450,116.672256 223.539276,116.223091 
	C228.564087,116.063118 233.607010,114.546768 238.514740,113.190277 
	C243.193329,111.897118 250.200729,99.708557 248.736969,95.066734 
	C246.403992,87.668518 245.505508,79.140541 236.492981,75.920242 
	C236.303497,75.852547 236.268463,75.352608 236.499969,75.997513 
	C238.402237,71.021469 240.427078,66.876175 241.566406,62.500324 
	C243.811447,53.877769 240.461685,46.512611 235.093719,40.042309 
	C233.583847,38.222382 231.108826,36.600578 228.825546,36.144680 
	C223.303268,35.042053 217.639801,34.615025 212.021011,34.034039 
	C201.859802,32.983368 191.692108,30.665936 181.712646,35.524895 
	C179.231842,36.732792 177.997620,37.718147 178.167572,40.523270 
	C178.499283,45.998627 178.602432,51.488224 178.775864,56.972694 
	C179.395935,76.580391 180.005829,96.188416 181.178925,116.506927 
z"/>
<path fill="#020202" opacity="1.000000" stroke="none" 
	d="
M47.011131,113.716652 
	C44.561329,110.217575 42.602535,106.505592 39.594410,104.112770 
	C28.217651,95.063049 27.238859,84.311340 30.504503,72.156960 
	C31.216961,69.505280 36.005604,67.274055 39.352764,66.167740 
	C44.034889,64.620186 45.164215,63.315300 43.032887,58.902790 
	C41.301571,55.318447 39.211826,51.836502 38.051018,48.071735 
	C37.252399,45.481632 36.922188,42.149818 37.875572,39.740223 
	C39.906910,34.606213 42.457634,29.474344 48.767429,27.013807 
	C48.848171,28.843401 48.981712,30.529198 48.987068,32.215397 
	C49.014915,40.981297 49.003540,40.981331 57.088375,43.754856 
	C58.795643,41.702393 60.901688,39.969818 61.974155,37.740105 
	C66.175598,29.005127 71.485573,23.196417 78.150536,20.988008 
	C78.747208,22.407427 79.060669,24.134474 80.068604,25.211706 
	C80.760246,25.950909 82.850548,26.412174 83.566078,25.916227 
	C86.361687,23.978540 88.858917,21.610359 91.620544,19.272268 
	C94.472984,21.857296 97.312263,24.430393 100.113960,26.969435 
	C100.571243,26.687181 100.910629,26.591631 101.060455,26.368689 
	C105.698463,19.466854 105.392822,19.821209 111.979134,25.418770 
	C116.499626,29.260635 118.150970,34.626904 121.098091,39.256199 
	C122.864281,42.030514 124.872498,43.606876 127.544998,42.818714 
	C129.947586,42.110153 132.821243,40.346321 133.839355,38.248344 
	C135.198044,35.448566 134.963974,31.875843 135.411377,28.653845 
	C140.274078,29.603943 147.069901,38.005997 145.731140,43.943222 
	C144.257309,50.479401 140.685822,56.542576 137.769882,63.421066 
	C140.630981,64.889435 144.278885,67.156906 148.214905,68.679619 
	C152.926788,70.502464 153.157257,75.068542 153.765121,78.459778 
	C155.526886,88.288353 151.480179,96.299034 144.242874,103.098488 
	C140.261505,106.839020 135.072845,109.915924 134.285034,116.218346 
	C134.192596,116.957893 133.645844,117.702995 133.152802,118.320168 
	C129.541519,122.840790 125.388252,126.352097 126.416405,133.794632 
	C127.077034,138.576736 120.305908,141.808716 115.577232,142.696655 
	C109.564850,143.825638 103.190727,142.975693 96.974625,143.090332 
	C92.671478,143.169693 88.346855,143.206528 84.075684,143.668167 
	C74.771362,144.673752 65.912834,143.876389 58.338768,137.772171 
	C57.135887,136.802750 56.302517,134.870392 56.096581,133.279892 
	C55.736591,130.499542 55.996243,127.638962 55.077480,125.371391 
	C52.391758,121.617416 49.706032,117.863449 47.011131,113.716652 
M122.019821,108.427849 
	C123.368217,107.181755 124.860207,106.056709 126.034454,104.663803 
	C128.318710,101.954185 130.142868,98.802170 132.669769,96.364243 
	C136.598969,92.573380 134.923172,88.119461 134.517441,83.936050 
	C134.404953,82.776260 132.048645,81.160591 130.539734,80.926216 
	C123.973007,79.906235 116.754128,85.560562 114.999939,92.082764 
	C113.500275,97.658607 109.943459,101.760338 103.781464,104.339760 
	C104.183327,101.897743 104.861870,100.087166 104.683777,98.365173 
	C104.335487,94.997528 104.614830,90.145256 102.617477,88.705429 
	C99.726303,86.621277 95.059006,86.643120 91.121155,86.489319 
	C88.297127,86.379036 85.327263,87.166176 82.617973,88.112602 
	C81.194633,88.609818 79.302597,90.211578 79.162643,91.484001 
	C78.718346,95.523247 78.998299,99.642151 78.998299,103.854225 
	C73.055260,101.945107 67.408974,95.181732 66.968506,89.954117 
	C66.880920,88.914551 66.646622,87.327820 65.976006,86.988014 
	C61.733524,84.838341 57.424671,82.752502 52.947994,81.188766 
	C52.052124,80.875832 49.862000,82.616707 49.082939,83.903557 
	C45.504959,89.813683 48.205078,94.476852 52.333374,98.920547 
	C56.264233,103.151718 60.257828,107.400032 63.575424,112.098640 
	C65.737877,115.161285 66.741745,119.041969 68.129166,122.243576 
	C71.714233,118.465553 75.324020,114.661484 78.933807,110.857414 
	C79.246422,111.163124 79.559044,111.468826 79.871658,111.774536 
	C79.871658,115.782883 79.871658,119.791237 79.871658,123.745239 
	C87.938042,123.745239 95.351585,123.745239 103.280045,123.745239 
	C103.280045,119.656250 103.280045,115.828209 103.280045,111.735565 
	C107.384659,115.278259 111.035233,118.429085 115.048210,121.892693 
	C115.594490,121.081078 116.407944,120.071609 117.005241,118.947296 
	C118.712990,115.732788 120.332939,112.471642 122.019821,108.427849 
M100.269409,68.770149 
	C106.381042,68.770149 112.492676,68.770149 118.691994,68.770149 
	C120.006416,63.277157 124.485939,57.904701 119.880165,52.929874 
	C115.246750,56.109348 110.673203,59.097507 106.276878,62.326916 
	C104.026558,63.979931 102.093391,66.064690 100.269409,68.770149 
M75.430969,69.000160 
	C77.886902,69.000160 80.342842,69.000160 82.798775,69.000160 
	C83.036423,68.589417 83.274071,68.178680 83.511719,67.767937 
	C76.834251,63.012508 70.156784,58.257076 63.456871,53.485664 
	C61.050850,57.192432 61.223011,60.681427 64.648476,69.000504 
	C67.863670,69.000504 71.165504,69.000504 75.430969,69.000160 
z"/>
<path fill="#E21D07" opacity="1.000000" stroke="none" 
	d="
M354.077759,67.094749 
	C359.656006,56.816624 365.212524,46.941010 370.395386,36.873047 
	C372.016846,33.723305 373.948364,32.365852 377.378662,32.833969 
	C378.687286,33.012543 380.042084,32.823128 381.373474,32.869690 
	C386.332550,33.043102 392.546967,31.504919 395.896881,33.923767 
	C399.268524,36.358288 399.799530,42.735012 401.559082,47.390438 
	C402.372803,49.543354 403.148163,51.710758 404.507935,55.417183 
	C407.131134,51.235313 409.599945,48.346596 410.918304,45.004105 
	C415.087952,34.432499 422.344299,30.543737 433.693237,31.719563 
	C438.589569,32.226852 440.386841,33.375973 441.642487,37.959705 
	C448.152924,61.726311 455.027527,85.393105 461.754120,109.100662 
	C462.152466,110.504616 462.366760,111.960800 462.819122,114.120125 
	C455.758240,114.730629 449.028992,115.481987 442.278870,115.854721 
	C433.106201,116.361237 433.204529,116.205223 430.592072,107.577202 
	C427.425446,97.118797 424.058319,86.721115 420.487427,75.373924 
	C412.999481,81.896103 406.307281,87.725166 399.152191,93.957420 
	C393.818634,86.971306 388.808319,80.408600 383.245758,73.122543 
	C382.102753,75.182007 381.265717,76.511398 380.598358,77.921089 
	C375.466431,88.761139 370.291382,99.582069 365.314087,110.493027 
	C364.134338,113.079163 362.887177,113.786407 360.003082,113.172722 
	C351.095551,111.277367 342.105042,109.772011 332.090942,107.919922 
	C339.634918,93.919182 346.773315,80.671089 354.077759,67.094749 
z"/>
<path fill="#F8CC00" opacity="1.000000" stroke="none" 
	d="
M309.667603,38.273811 
	C315.918945,46.104149 322.056885,53.562599 327.859131,61.273640 
	C329.067566,62.879642 329.750763,65.527145 329.454346,67.512230 
	C327.782990,78.704636 325.651306,89.827522 323.881256,101.006508 
	C323.422180,103.906052 322.182953,105.242531 319.322784,105.958847 
	C307.067383,109.028122 294.852478,112.265236 282.666534,115.600960 
	C279.620453,116.434776 277.569916,115.661819 275.006897,113.802452 
	C263.147461,105.198921 255.093719,94.290970 252.199982,79.701653 
	C251.692078,77.140968 249.769638,74.860855 248.891953,73.194412 
	C249.363159,65.738533 250.061295,58.713764 250.139511,51.682102 
	C250.176163,48.387089 251.286911,46.500381 254.037460,44.967079 
	C257.375702,43.106182 260.825287,41.250580 263.689484,38.771866 
	C271.053680,32.398727 279.457672,30.989162 288.750671,32.312832 
	C292.028107,32.779655 295.420197,32.996212 298.706787,32.712170 
	C303.503326,32.297642 307.169098,33.561497 309.667603,38.273811 
M281.177612,62.354252 
	C279.914154,64.876266 278.428955,67.316910 277.463287,69.948212 
	C276.791901,71.777527 275.966492,75.110168 276.707947,75.628571 
	C279.946045,77.892517 283.933167,81.167183 287.279327,80.791084 
	C296.136444,79.795555 296.332733,78.766914 295.897522,69.924294 
	C295.824554,68.441597 295.699829,66.961433 295.570160,65.055710 
	C290.969208,64.064621 286.446289,63.090332 281.177612,62.354252 
z"/>
<path fill="#0099D5" opacity="1.000000" stroke="none" 
	d="
M180.899231,116.151627 
	C180.005829,96.188416 179.395935,76.580391 178.775864,56.972694 
	C178.602432,51.488224 178.499283,45.998627 178.167572,40.523270 
	C177.997620,37.718147 179.231842,36.732792 181.712646,35.524895 
	C191.692108,30.665936 201.859802,32.983368 212.021011,34.034039 
	C217.639801,34.615025 223.303268,35.042053 228.825546,36.144680 
	C231.108826,36.600578 233.583847,38.222382 235.093719,40.042309 
	C240.461685,46.512611 243.811447,53.877769 241.566406,62.500324 
	C240.427078,66.876175 238.402237,71.021469 236.499969,75.997513 
	C236.268463,75.352608 236.303497,75.852547 236.492981,75.920242 
	C245.505508,79.140541 246.403992,87.668518 248.736969,95.066734 
	C250.200729,99.708557 243.193329,111.897118 238.514740,113.190277 
	C233.607010,114.546768 228.564087,116.063118 223.539276,116.223091 
	C209.430450,116.672256 195.300522,116.458954 180.899231,116.151627 
M205.392578,60.939964 
	C206.358765,61.884876 207.740707,63.817459 208.223541,63.614204 
	C211.326721,62.307869 216.323441,64.315681 217.339371,59.588673 
	C217.836960,57.273453 217.184830,53.280788 215.619720,52.272774 
	C212.975006,50.569412 209.191376,50.634357 205.384750,49.852722 
	C205.384750,53.788193 205.384750,56.925205 205.392578,60.939964 
M207.059250,97.732162 
	C209.324265,99.777504 218.411514,98.639893 218.785858,96.014221 
	C219.113449,93.716476 218.827652,90.143929 217.369904,89.040169 
	C214.786224,87.083878 211.108429,86.572594 207.035690,85.161140 
	C207.035690,89.721397 207.035690,93.304214 207.059250,97.732162 
z"/>
<path fill="#FDFDFD" opacity="1.000000" stroke="none" 
	d="
M122.003616,108.828346 
	C120.332939,112.471642 118.712990,115.732788 117.005241,118.947296 
	C116.407944,120.071609 115.594490,121.081078 115.048210,121.892693 
	C111.035233,118.429085 107.384659,115.278259 103.280045,111.735565 
	C103.280045,115.828209 103.280045,119.656250 103.280045,123.745239 
	C95.351585,123.745239 87.938042,123.745239 79.871658,123.745239 
	C79.871658,119.791237 79.871658,115.782883 79.871658,111.774536 
	C79.559044,111.468826 79.246422,111.163124 78.933807,110.857414 
	C75.324020,114.661484 71.714233,118.465553 68.129166,122.243576 
	C66.741745,119.041969 65.737877,115.161285 63.575424,112.098640 
	C60.257828,107.400032 56.264233,103.151718 52.333374,98.920547 
	C48.205078,94.476852 45.504959,89.813683 49.082939,83.903557 
	C49.862000,82.616707 52.052124,80.875832 52.947994,81.188766 
	C57.424671,82.752502 61.733524,84.838341 65.976006,86.988014 
	C66.646622,87.327820 66.880920,88.914551 66.968506,89.954117 
	C67.408974,95.181732 73.055260,101.945107 78.998299,103.854225 
	C78.998299,99.642151 78.718346,95.523247 79.162643,91.484001 
	C79.302597,90.211578 81.194633,88.609818 82.617973,88.112602 
	C85.327263,87.166176 88.297127,86.379036 91.121155,86.489319 
	C95.059006,86.643120 99.726303,86.621277 102.617477,88.705429 
	C104.614830,90.145256 104.335487,94.997528 104.683777,98.365173 
	C104.861870,100.087166 104.183327,101.897743 103.781464,104.339760 
	C109.943459,101.760338 113.500275,97.658607 114.999939,92.082764 
	C116.754128,85.560562 123.973007,79.906235 130.539734,80.926216 
	C132.048645,81.160591 134.404953,82.776260 134.517441,83.936050 
	C134.923172,88.119461 136.598969,92.573380 132.669769,96.364243 
	C130.142868,98.802170 128.318710,101.954185 126.034454,104.663803 
	C124.860207,106.056709 123.368217,107.181755 122.003616,108.828346 
z"/>
<path fill="#FBFBFB" opacity="1.000000" stroke="none" 
	d="
M100.143143,68.362236 
	C102.093391,66.064690 104.026558,63.979931 106.276878,62.326916 
	C110.673203,59.097507 115.246750,56.109348 119.880165,52.929874 
	C124.485939,57.904701 120.006416,63.277157 118.691994,68.770149 
	C112.492676,68.770149 106.381042,68.770149 100.143143,68.362236 
z"/>
<path fill="#FCFCFC" opacity="1.000000" stroke="none" 
	d="
M74.949158,69.000336 
	C71.165504,69.000504 67.863670,69.000504 64.648476,69.000504 
	C61.223011,60.681427 61.050850,57.192432 63.456871,53.485664 
	C70.156784,58.257076 76.834251,63.012508 83.511719,67.767937 
	C83.274071,68.178680 83.036423,68.589417 82.798775,69.000160 
	C80.342842,69.000160 77.886902,69.000160 74.949158,69.000336 
z"/>
<path fill="#0E0C00" opacity="1.000000" stroke="none" 
	d="
M281.550476,62.235149 
	C286.446289,63.090332 290.969208,64.064621 295.570160,65.055710 
	C295.699829,66.961433 295.824554,68.441597 295.897522,69.924294 
	C296.332733,78.766914 296.136444,79.795555 287.279327,80.791084 
	C283.933167,81.167183 279.946045,77.892517 276.707947,75.628571 
	C275.966492,75.110168 276.791901,71.777527 277.463287,69.948212 
	C278.428955,67.316910 279.914154,64.876266 281.550476,62.235149 
z"/>
<path fill="#00090C" opacity="1.000000" stroke="none" 
	d="
M205.388672,60.501091 
	C205.384750,56.925205 205.384750,53.788193 205.384750,49.852722 
	C209.191376,50.634357 212.975006,50.569412 215.619720,52.272774 
	C217.184830,53.280788 217.836960,57.273453 217.339371,59.588673 
	C216.323441,64.315681 211.326721,62.307869 208.223541,63.614204 
	C207.740707,63.817459 206.358765,61.884876 205.388672,60.501091 
z"/>
<path fill="#000C11" opacity="1.000000" stroke="none" 
	d="
M207.047470,97.309593 
	C207.035690,93.304214 207.035690,89.721397 207.035690,85.161140 
	C211.108429,86.572594 214.786224,87.083878 217.369904,89.040169 
	C218.827652,90.143929 219.113449,93.716476 218.785858,96.014221 
	C218.411514,98.639893 209.324265,99.777504 207.047470,97.309593 
z"/>
</svg>