<svg version="1.1" id="Layer_1" xmlns="http://www.w3.org/2000/svg" xmlns:xlink="http://www.w3.org/1999/xlink" x="0px" y="0px"
	 width="100%" viewBox="0 0 516 314" enable-background="new 0 0 516 314" xml:space="preserve">
<path fill="#FDFDFD" opacity="1.000000" stroke="none" 
	d="
M347.000000,315.000000 
	C231.333374,315.000000 116.166733,315.000000 1.000077,315.000000 
	C1.000051,210.333405 1.000051,105.666801 1.000026,1.000147 
	C172.999878,1.000098 344.999756,1.000098 516.999756,1.000049 
	C516.999817,105.666512 516.999817,210.333023 516.999878,314.999756 
	C460.500000,315.000000 404.000000,315.000000 347.000000,315.000000 
M390.911041,114.610107 
	C393.269775,117.707207 395.628510,120.804314 398.124756,124.081993 
	C404.593750,118.423843 410.377136,113.365379 416.699585,107.835396 
	C418.054688,112.097527 419.131866,115.237503 420.049744,118.423370 
	C422.078766,125.466019 423.875366,132.581177 426.136475,139.546768 
	C426.594238,140.957062 428.752655,142.884796 430.010040,142.801804 
	C443.631500,141.902710 457.234497,140.700256 470.824768,139.395859 
	C471.904114,139.292252 473.706360,137.829254 473.723083,136.969742 
	C473.842804,130.826111 474.801819,124.347084 473.245819,118.581406 
	C465.046143,88.197762 456.156891,58.000538 447.588837,27.715467 
	C446.789185,24.888954 445.593048,23.633808 442.404694,23.817537 
	C434.256195,24.287094 426.072327,24.176908 417.932251,24.732662 
	C416.006744,24.864126 413.786133,26.334435 412.431824,27.844193 
	C410.400085,30.109192 409.013733,32.953129 406.876831,36.295506 
	C405.864655,33.730450 404.989197,32.147961 404.621094,30.455149 
	C403.667999,26.072392 401.528961,24.232504 396.659332,24.535513 
	C388.525238,25.041656 380.332397,24.828306 372.173309,24.598429 
	C368.890656,24.505941 367.080933,25.567669 365.538147,28.499193 
	C358.244781,42.357693 350.721527,56.095322 343.260986,69.865616 
	C342.450348,71.361885 341.515839,72.791054 340.638794,74.251335 
	C339.612274,72.467812 339.302521,71.016586 339.468811,69.622116 
	C340.107849,64.262894 338.060181,60.137642 334.613373,56.088303 
	C326.947449,47.082314 319.834656,37.605343 312.164215,28.603416 
	C310.589142,26.754919 307.620758,25.279406 305.194366,25.115454 
	C296.058411,24.498140 286.876831,24.241453 277.721436,24.393927 
	C274.445312,24.448488 270.849487,25.438570 267.999756,27.057901 
	C260.526428,31.304560 253.383545,36.132816 245.258209,41.266872 
	C242.151688,30.493145 234.857391,27.411745 224.899231,26.895517 
	C208.124268,26.025915 191.403000,20.885603 174.828720,28.811251 
	C171.088150,30.599951 169.234100,32.139957 169.326904,36.213287 
	C169.603851,48.369633 169.610611,60.532604 169.936676,72.687256 
	C170.517517,94.339531 171.327759,115.985802 171.862991,137.639008 
	C171.963760,141.715271 173.358093,143.039993 177.489853,142.929352 
	C193.646927,142.496674 209.837296,142.864090 225.967575,142.020981 
	C237.947968,141.394760 250.074371,139.725189 254.154037,125.235107 
	C254.192154,125.099731 254.376892,125.005638 254.999588,124.398590 
	C261.016541,129.710602 267.166351,134.995468 273.131134,140.481461 
	C275.319946,142.494568 277.276276,143.049438 280.273956,142.227539 
	C292.466370,138.884598 304.737640,135.823929 317.015625,132.804642 
	C318.849976,132.353531 320.931946,132.359894 322.802734,132.694687 
	C336.068115,135.068634 349.386322,137.240051 362.517731,140.223953 
	C367.692719,141.399872 369.525116,139.683594 371.385590,135.408600 
	C375.473297,126.015862 380.045349,116.833908 384.838135,106.679207 
	C387.102600,109.632507 388.788635,111.831421 390.911041,114.610107 
M125.048065,42.751663 
	C123.947411,41.812572 122.582115,41.055336 121.790749,39.903713 
	C117.828072,34.137012 115.312561,27.438046 109.511223,22.853222 
	C106.272346,20.293528 104.467339,20.471443 102.661224,23.988140 
	C102.142616,24.997946 101.393906,25.889584 100.488037,27.221607 
	C97.435402,24.495985 94.499229,21.874355 91.587456,19.274508 
	C88.816528,21.622887 86.308456,23.999435 83.502991,25.947739 
	C82.811218,26.428152 80.736145,25.901838 80.036171,25.150072 
	C79.033028,24.072702 78.708923,22.363075 78.082901,20.895250 
	C68.807076,23.198687 66.821259,31.829683 62.030327,37.838043 
	C60.445930,39.825054 58.764057,41.734337 57.302601,43.470280 
	C45.709087,42.858768 49.743145,33.737968 48.872425,27.232080 
	C42.359474,28.866926 40.213997,34.382099 38.039886,39.354809 
	C36.955502,41.835068 37.286350,45.384846 38.085140,48.128197 
	C39.183704,51.901073 41.298180,55.384876 43.040180,58.961948 
	C45.167934,63.331146 44.037418,64.600090 39.292801,66.171349 
	C35.956326,67.276291 31.208464,69.550438 30.494852,72.214378 
	C27.217033,84.450592 28.293335,95.169640 39.648392,104.130592 
	C42.911114,106.705399 46.710350,109.017754 47.396351,114.329712 
	C47.793438,117.404465 50.497707,120.847488 53.147160,122.767906 
	C55.544357,124.505470 56.061646,126.030525 56.033760,128.569962 
	C55.940098,137.099564 57.673374,140.082108 66.313248,141.988297 
	C72.408173,143.333008 78.911362,142.886703 85.236977,143.102173 
	C88.568977,143.215668 91.910965,143.001343 95.248604,142.991867 
	C101.797462,142.973282 108.434166,143.650818 114.867508,142.790863 
	C119.984779,142.106812 126.720627,138.765762 126.370224,133.998108 
	C125.814407,126.435486 129.645050,122.431862 133.667847,117.766518 
	C133.964142,117.422897 134.077530,116.865463 134.144791,116.388916 
	C135.047256,109.994629 140.307861,106.725548 144.405930,102.905617 
	C151.738739,96.070503 155.457550,87.957794 153.754181,78.203186 
	C153.168762,74.850769 152.762985,70.276054 147.986099,68.556366 
	C144.144119,67.173264 140.607803,64.941154 137.693130,63.468407 
	C140.606796,56.728432 144.212448,50.700974 145.733292,44.186783 
	C147.116501,38.262100 140.554581,29.881001 135.144821,28.348660 
	C134.638382,40.910488 133.467041,42.749584 125.048065,42.751663 
M142.224167,271.854980 
	C141.366394,276.515961 140.385361,281.160431 139.755630,285.852020 
	C139.630768,286.782318 140.671158,288.598846 141.484604,288.809845 
	C148.030960,290.507599 154.651718,291.918518 161.538788,293.482758 
	C163.610916,287.460571 165.746384,281.254303 168.010956,274.672852 
	C170.419037,278.109650 172.439651,280.993469 174.472031,283.894073 
	C177.436279,281.193237 180.264328,278.616486 183.671692,275.511902 
	C184.906876,282.228668 185.991043,288.124207 187.049759,293.881348 
	C196.517136,293.881348 205.245239,293.881348 214.076431,293.881348 
	C215.097214,290.382446 216.181854,286.664673 217.210846,283.137634 
	C219.349564,283.137634 220.976425,283.137634 222.898315,283.137634 
	C223.388245,286.816589 223.862335,290.376526 224.357880,294.097656 
	C231.660889,294.275391 238.716934,291.566803 246.125244,293.794403 
	C250.096069,294.988342 255.212997,295.180939 258.927032,293.661072 
	C262.977753,292.003418 266.381989,294.354095 270.512421,293.249756 
	C276.595306,291.623322 283.645264,293.763397 290.293793,293.986237 
	C291.750122,294.035065 293.250580,292.767548 295.014130,291.979614 
	C298.423950,295.889252 298.408844,295.878326 302.097382,290.782104 
	C302.727966,289.910889 303.549866,289.178131 304.632843,288.001862 
	C305.028748,290.323669 305.318390,292.022186 305.605103,293.703369 
	C326.856689,293.703369 347.765747,293.703369 369.452637,293.703369 
	C368.692444,284.483978 367.961945,275.624969 367.203003,266.421082 
	C370.515930,267.155304 373.629944,267.845459 377.190430,268.634552 
	C377.190430,256.076721 377.190430,243.812805 377.190430,231.417633 
	C375.911041,231.270752 375.105743,231.112091 374.297455,231.095169 
	C353.985016,230.669632 333.672943,230.219208 313.359161,229.866577 
	C305.911682,229.737305 305.932556,229.848984 304.875793,237.445496 
	C304.724487,238.533295 304.229401,239.573288 303.700317,241.245895 
	C300.691376,237.173508 298.015015,233.551270 295.237305,229.791885 
	C294.081055,231.207260 293.016632,232.510254 292.636108,232.976028 
	C286.211823,227.578384 279.346893,231.391083 273.229492,230.087173 
	C272.781433,232.818329 272.436615,234.920029 272.096252,236.994812 
	C268.564728,234.702042 265.208405,230.701309 261.849365,230.699081 
	C253.305710,230.693405 244.760849,232.476242 235.627441,233.616745 
	C235.627441,237.169235 235.627441,240.121979 235.627441,243.074722 
	C235.298416,243.100601 234.969391,243.126480 234.640366,243.152374 
	C232.819962,238.770599 230.999557,234.388840 229.108093,229.836044 
	C225.129852,230.476318 221.287491,230.799042 217.635300,231.809280 
	C215.852371,232.302460 213.827362,233.743118 212.939804,235.329849 
	C209.406784,241.645950 206.278397,248.188370 202.858688,254.925751 
	C200.697128,246.590546 198.559235,238.346542 196.320221,229.712646 
	C189.819748,231.069809 182.471939,227.607895 178.640350,236.203445 
	C177.599014,233.777359 176.918106,232.190994 176.231506,230.591354 
	C172.495728,230.591354 168.960693,230.915558 165.514847,230.500046 
	C162.077591,230.085587 160.333115,231.585266 159.084274,234.400650 
	C157.387421,238.226044 155.610397,242.015884 153.909897,245.839722 
	C150.150986,254.292221 146.418381,262.756409 142.224167,271.854980 
M191.017380,217.863754 
	C191.454788,220.234711 191.892197,222.605667 192.349731,225.085663 
	C208.137238,225.085663 223.623154,225.078476 239.109070,225.094910 
	C241.013062,225.096924 242.952179,225.020508 244.812897,225.341034 
	C247.915237,225.875473 261.271912,220.740402 261.509277,218.015335 
	C261.942047,213.046280 262.405090,207.360779 260.402283,203.137573 
	C258.932556,200.038422 258.045197,197.383240 257.978241,194.130829 
	C257.906311,190.637787 257.335175,187.135132 257.500336,183.661316 
	C257.838867,176.539658 256.104584,170.924881 249.724289,166.516891 
	C245.796234,163.803070 242.631699,161.447372 237.469086,162.093460 
	C232.593201,162.703659 227.556503,161.954269 222.589905,161.929718 
	C212.452530,161.879593 202.314743,161.914703 192.370865,161.914703 
	C191.848145,164.437790 191.413757,166.534485 190.694656,170.005478 
	C187.436127,161.262115 181.084991,161.294159 174.491959,161.900925 
	C173.996292,161.946533 173.471542,162.000397 172.996231,161.892395 
	C168.884766,160.958344 167.022522,163.817657 165.178528,166.579681 
	C163.863083,168.550049 162.737076,170.646896 160.808487,173.897568 
	C160.497833,170.636429 160.343460,169.015930 160.167892,167.172974 
	C153.783707,165.469147 147.451248,163.779114 140.672394,161.969955 
	C138.454315,167.963959 136.267334,173.873901 133.854416,180.394379 
	C131.840759,177.007263 130.167023,174.191925 128.436844,171.281631 
	C126.369759,174.249741 124.528732,176.893250 122.687706,179.536774 
	C122.268585,179.352921 121.849472,179.169083 121.430351,178.985245 
	C120.122681,173.294937 118.815002,167.604614 117.444778,161.642105 
	C112.808540,162.016357 108.509514,162.599243 104.204620,162.646378 
	C99.648476,162.696274 96.414864,163.657562 97.295113,169.668396 
	C96.028755,168.332092 95.574120,166.948227 94.672195,165.981796 
	C93.314804,164.527328 91.691490,162.324921 90.099319,162.252975 
	C81.914154,161.883148 73.107101,159.897186 67.349457,168.638092 
	C66.620049,169.745438 64.979454,170.252579 63.819675,170.999985 
	C62.149311,168.691711 60.980160,165.233932 59.113327,164.803726 
	C49.120907,162.501038 38.857529,158.811432 28.637819,166.308243 
	C29.237673,185.552963 29.848852,205.161026 30.468435,225.038681 
	C38.710018,225.038681 46.365257,224.824432 54.002625,225.101990 
	C60.933071,225.353851 66.342125,223.795151 67.647560,215.083725 
	C68.782570,216.635818 69.252235,217.461929 69.893234,218.121521 
	C72.184563,220.479233 74.244949,224.207474 76.932640,224.751938 
	C80.517662,225.478210 84.651306,223.893860 88.466110,222.961563 
	C91.479561,222.225082 94.300011,220.621292 97.328430,220.043457 
	C101.025063,219.338120 102.879501,217.576721 103.027710,213.791992 
	C103.125984,211.282425 103.567764,208.786316 103.855774,206.284180 
	C104.278633,206.278168 104.701500,206.272141 105.124359,206.266113 
	C106.314590,212.513702 107.504814,218.761307 108.780884,225.459518 
	C114.203163,223.140442 121.384346,228.749207 125.843300,220.858429 
	C125.774025,224.496490 127.609489,225.334610 130.653961,225.073288 
	C133.631287,224.817719 136.652451,225.112640 139.644180,224.962677 
	C140.670517,224.911255 142.290070,224.501022 142.569717,223.817413 
	C143.915588,220.527695 144.870621,217.079880 146.014389,213.705124 
	C146.949524,210.945969 147.955078,208.210663 148.795349,205.842590 
	C150.415848,209.033890 151.247559,212.404388 153.346603,214.513779 
	C163.983246,225.202866 164.098587,225.088089 179.374481,225.087738 
	C179.707733,225.087723 180.053574,225.028641 180.372330,225.096619 
	C184.836899,226.048706 186.978760,223.821991 188.184235,219.793228 
	C188.509399,218.706512 189.993576,217.966614 191.017380,217.863754 
M307.967102,162.017700 
	C299.181183,161.230194 290.757446,161.580078 284.635651,169.329880 
	C284.353119,169.687531 283.654510,169.714523 283.367523,170.070938 
	C281.943451,171.839539 279.624054,173.546387 279.381348,175.494431 
	C278.254639,184.537811 277.611176,193.647797 277.058136,202.749924 
	C276.968048,204.232697 277.862244,206.086319 278.880554,207.270706 
	C282.959412,212.014801 287.886414,216.150803 291.309265,221.302658 
	C294.537292,226.161255 298.412537,225.282364 302.578278,224.507996 
	C304.661469,224.120758 306.577728,222.903839 308.619415,222.208862 
	C311.528107,221.218765 314.482758,220.363571 317.762177,219.343658 
	C317.930969,221.657562 318.046478,223.240845 318.173065,224.976151 
	C336.291107,224.976151 354.089447,225.060349 371.883942,224.837708 
	C373.548126,224.816864 375.603333,223.185944 376.755859,221.731262 
	C379.443634,218.338898 381.691803,214.598236 384.492798,210.442719 
	C385.129486,215.685593 385.676544,220.190536 386.204132,224.535065 
	C417.755615,224.535065 448.882385,224.535065 480.882965,224.535065 
	C480.178253,215.822220 479.466522,207.023148 478.716614,197.751434 
	C482.469086,198.494080 486.005920,199.194046 489.781006,199.941162 
	C489.781006,187.531158 489.781006,175.259964 489.781006,162.846924 
	C489.082672,162.687500 488.453857,162.424576 487.822113,162.417221 
	C473.662445,162.252396 459.493469,161.762756 445.346344,162.123459 
	C438.337311,162.302155 430.731720,159.767151 424.375763,165.155716 
	C422.958679,166.357147 421.315613,167.292023 419.126526,168.796326 
	C419.126526,166.062454 419.126526,164.161804 419.126526,161.907516 
	C417.091553,161.907516 415.454773,161.895981 413.818146,161.909363 
	C401.705444,162.008377 389.592834,162.167755 377.479980,162.196060 
	C368.818939,162.216293 360.050323,161.226486 351.538483,162.316803 
	C346.822296,162.920898 342.398560,163.808563 337.659119,162.860397 
	C334.587219,162.245865 331.377258,161.848618 328.269531,162.033295 
	C325.717010,162.184982 322.952362,162.883484 320.784088,164.179855 
	C318.778290,165.379089 317.439301,167.693558 316.164581,169.117157 
	C313.986328,167.019363 311.411011,164.539139 307.967102,162.017700 
z"/>
<path fill="#070605" opacity="1.000000" stroke="none" 
	d="
M390.692871,114.320221 
	C388.788635,111.831421 387.102600,109.632507 384.838135,106.679207 
	C380.045349,116.833908 375.473297,126.015862 371.385590,135.408600 
	C369.525116,139.683594 367.692719,141.399872 362.517731,140.223953 
	C349.386322,137.240051 336.068115,135.068634 322.802734,132.694687 
	C320.931946,132.359894 318.849976,132.353531 317.015625,132.804642 
	C304.737640,135.823929 292.466370,138.884598 280.273956,142.227539 
	C277.276276,143.049438 275.319946,142.494568 273.131134,140.481461 
	C267.166351,134.995468 261.016541,129.710602 254.999588,124.398590 
	C254.376892,125.005638 254.192154,125.099731 254.154037,125.235107 
	C250.074371,139.725189 237.947968,141.394760 225.967575,142.020981 
	C209.837296,142.864090 193.646927,142.496674 177.489853,142.929352 
	C173.358093,143.039993 171.963760,141.715271 171.862991,137.639008 
	C171.327759,115.985802 170.517517,94.339531 169.936676,72.687256 
	C169.610611,60.532604 169.603851,48.369633 169.326904,36.213287 
	C169.234100,32.139957 171.088150,30.599951 174.828720,28.811251 
	C191.403000,20.885603 208.124268,26.025915 224.899231,26.895517 
	C234.857391,27.411745 242.151688,30.493145 245.258209,41.266872 
	C253.383545,36.132816 260.526428,31.304560 267.999756,27.057901 
	C270.849487,25.438570 274.445312,24.448488 277.721436,24.393927 
	C286.876831,24.241453 296.058411,24.498140 305.194366,25.115454 
	C307.620758,25.279406 310.589142,26.754919 312.164215,28.603416 
	C319.834656,37.605343 326.947449,47.082314 334.613373,56.088303 
	C338.060181,60.137642 340.107849,64.262894 339.468811,69.622116 
	C339.302521,71.016586 339.612274,72.467812 340.638794,74.251335 
	C341.515839,72.791054 342.450348,71.361885 343.260986,69.865616 
	C350.721527,56.095322 358.244781,42.357693 365.538147,28.499193 
	C367.080933,25.567669 368.890656,24.505941 372.173309,24.598429 
	C380.332397,24.828306 388.525238,25.041656 396.659332,24.535513 
	C401.528961,24.232504 403.667999,26.072392 404.621094,30.455149 
	C404.989197,32.147961 405.864655,33.730450 406.876831,36.295506 
	C409.013733,32.953129 410.400085,30.109192 412.431824,27.844193 
	C413.786133,26.334435 416.006744,24.864126 417.932251,24.732662 
	C426.072327,24.176908 434.256195,24.287094 442.404694,23.817537 
	C445.593048,23.633808 446.789185,24.888954 447.588837,27.715467 
	C456.156891,58.000538 465.046143,88.197762 473.245819,118.581406 
	C474.801819,124.347084 473.842804,130.826111 473.723083,136.969742 
	C473.706360,137.829254 471.904114,139.292252 470.824768,139.395859 
	C457.234497,140.700256 443.631500,141.902710 430.010040,142.801804 
	C428.752655,142.884796 426.594238,140.957062 426.136475,139.546768 
	C423.875366,132.581177 422.078766,125.466019 420.049744,118.423370 
	C419.131866,115.237503 418.054688,112.097527 416.699585,107.835396 
	C410.377136,113.365379 404.593750,118.423843 398.124756,124.081993 
	C395.628510,120.804314 393.269775,117.707207 390.692871,114.320221 
M443.437683,115.869675 
	C449.828522,115.275314 456.219391,114.680954 463.077972,114.043098 
	C455.429657,86.995041 448.046875,60.736561 440.456421,34.538265 
	C440.119720,33.376221 437.923920,32.087791 436.535706,32.017952 
	C432.058044,31.792681 427.542419,32.344528 423.062103,32.141338 
	C419.720428,31.989790 417.954926,33.399723 416.373077,36.148449 
	C412.845062,42.279007 409.001099,48.227760 404.528168,55.478874 
	C401.969177,48.377323 399.764221,42.706982 397.909393,36.924332 
	C396.960663,33.966522 395.584290,32.596226 392.275604,32.788830 
	C387.295563,33.078724 382.271820,33.093918 377.294037,32.784885 
	C373.782440,32.566879 371.995850,33.892220 370.368134,36.950100 
	C359.336639,57.674595 348.094727,78.287056 336.928619,98.939941 
	C335.453888,101.667587 334.023193,104.419044 332.171356,107.916351 
	C342.104218,109.760223 351.243988,111.307320 360.304321,113.228981 
	C363.058594,113.813148 364.153107,112.995186 365.212585,110.662048 
	C369.136505,102.020805 373.220093,93.451843 377.271729,84.868942 
	C379.015594,81.174767 380.827911,77.512894 383.047791,72.930885 
	C388.788544,80.408882 393.882416,87.044243 399.178528,93.943062 
	C406.451996,87.616150 413.140808,81.797798 420.513245,75.384773 
	C424.075348,86.733910 427.387543,97.012192 430.518585,107.345345 
	C433.235748,116.312706 433.145111,116.340164 443.437683,115.869675 
M268.058075,107.442451 
	C269.926117,109.099960 272.020111,110.566734 273.614197,112.455452 
	C276.743683,116.163300 280.158569,116.414688 284.683167,115.081978 
	C296.002167,111.748016 307.459778,108.867867 318.920288,106.042923 
	C321.907654,105.306557 323.412384,104.114799 323.907104,100.920334 
	C325.639313,89.734947 327.802612,78.615555 329.469879,67.421600 
	C329.764374,65.444466 329.001434,62.840282 327.805573,61.195496 
	C323.600525,55.411991 318.471283,50.251549 314.663269,44.239899 
	C309.086945,35.436714 302.084167,30.600399 291.360931,32.597374 
	C290.731354,32.714615 290.032166,32.545074 289.378510,32.432472 
	C279.748322,30.773396 271.053833,32.452717 263.384552,38.966621 
	C260.367859,41.528847 256.498322,43.076706 253.421783,45.583153 
	C251.898010,46.824574 250.581848,49.123592 250.396271,51.061390 
	C249.709702,58.230450 249.533356,65.448372 249.140198,73.138016 
	C250.186234,75.468529 251.803223,78.628021 253.047546,81.928040 
	C256.500214,91.084641 257.713043,101.500717 268.058075,107.442451 
M244.468338,82.196632 
	C241.741928,79.899521 239.015533,77.602409 235.882339,74.962563 
	C240.445282,69.823074 241.808441,63.515232 242.117355,56.445461 
	C242.374054,50.570450 238.772583,46.988514 236.806534,42.375198 
	C234.298721,36.490669 229.650650,35.814339 224.262314,35.579346 
	C220.292282,35.406216 216.362381,34.462471 212.393402,34.085213 
	C202.571960,33.151672 192.814468,30.660460 182.973129,35.013824 
	C179.267273,36.653130 177.996567,38.203312 178.145660,42.164234 
	C178.965485,63.944424 179.532806,85.734207 180.158890,107.521500 
	C180.243286,110.458351 180.170502,113.399712 180.170502,115.925468 
	C197.633530,115.925468 214.237808,116.357780 230.792053,115.638557 
	C235.243210,115.445175 241.084579,112.869583 243.586288,109.425331 
	C248.618011,102.497894 250.905334,94.165756 245.718903,85.736267 
	C245.208939,84.907440 245.055298,83.859406 244.468338,82.196632 
z"/>
<path fill="#020202" opacity="1.000000" stroke="none" 
	d="
M125.448242,42.848190 
	C133.467041,42.749584 134.638382,40.910488 135.144821,28.348660 
	C140.554581,29.881001 147.116501,38.262100 145.733292,44.186783 
	C144.212448,50.700974 140.606796,56.728432 137.693130,63.468407 
	C140.607803,64.941154 144.144119,67.173264 147.986099,68.556366 
	C152.762985,70.276054 153.168762,74.850769 153.754181,78.203186 
	C155.457550,87.957794 151.738739,96.070503 144.405930,102.905617 
	C140.307861,106.725548 135.047256,109.994629 134.144791,116.388916 
	C134.077530,116.865463 133.964142,117.422897 133.667847,117.766518 
	C129.645050,122.431862 125.814407,126.435486 126.370224,133.998108 
	C126.720627,138.765762 119.984779,142.106812 114.867508,142.790863 
	C108.434166,143.650818 101.797462,142.973282 95.248604,142.991867 
	C91.910965,143.001343 88.568977,143.215668 85.236977,143.102173 
	C78.911362,142.886703 72.408173,143.333008 66.313248,141.988297 
	C57.673374,140.082108 55.940098,137.099564 56.033760,128.569962 
	C56.061646,126.030525 55.544357,124.505470 53.147160,122.767906 
	C50.497707,120.847488 47.793438,117.404465 47.396351,114.329712 
	C46.710350,109.017754 42.911114,106.705399 39.648392,104.130592 
	C28.293335,95.169640 27.217033,84.450592 30.494852,72.214378 
	C31.208464,69.550438 35.956326,67.276291 39.292801,66.171349 
	C44.037418,64.600090 45.167934,63.331146 43.040180,58.961948 
	C41.298180,55.384876 39.183704,51.901073 38.085140,48.128197 
	C37.286350,45.384846 36.955502,41.835068 38.039886,39.354809 
	C40.213997,34.382099 42.359474,28.866926 48.872425,27.232080 
	C49.743145,33.737968 45.709087,42.858768 57.302601,43.470280 
	C58.764057,41.734337 60.445930,39.825054 62.030327,37.838043 
	C66.821259,31.829683 68.807076,23.198687 78.082901,20.895250 
	C78.708923,22.363075 79.033028,24.072702 80.036171,25.150072 
	C80.736145,25.901838 82.811218,26.428152 83.502991,25.947739 
	C86.308456,23.999435 88.816528,21.622887 91.587456,19.274508 
	C94.499229,21.874355 97.435402,24.495985 100.488037,27.221607 
	C101.393906,25.889584 102.142616,24.997946 102.661224,23.988140 
	C104.467339,20.471443 106.272346,20.293528 109.511223,22.853222 
	C115.312561,27.438046 117.828072,34.137012 121.790749,39.903713 
	C122.582115,41.055336 123.947411,41.812572 125.448242,42.848190 
M75.060417,115.404518 
	C76.393982,113.931801 77.727554,112.459076 79.811234,110.157974 
	C79.811234,115.681755 79.811234,119.716873 79.811234,123.790146 
	C87.825294,123.790146 95.248177,123.790146 103.171844,123.790146 
	C103.171844,119.731361 103.171844,115.876793 103.171844,111.630936 
	C107.316467,115.207909 110.956390,118.349312 114.750824,121.624062 
	C115.157867,121.401405 116.424049,121.149284 116.677490,120.501144 
	C118.901360,114.814026 121.084351,109.273872 125.917625,104.995636 
	C128.744217,102.493637 130.334167,98.643196 132.976547,95.872520 
	C136.565231,92.109627 134.849869,87.872604 134.474640,83.866539 
	C134.367874,82.726852 131.970459,81.112946 130.463760,80.911575 
	C123.701454,80.007782 116.804771,85.542557 114.983505,92.160583 
	C113.470062,97.660027 109.930183,101.775391 103.992249,104.224144 
	C104.117279,102.663528 104.275368,101.689285 104.258507,100.718079 
	C104.201820,97.453964 104.400475,94.142975 103.916733,90.938179 
	C103.093330,85.483124 98.535828,89.030365 95.865356,87.932564 
	C95.267494,87.686790 94.669289,87.119171 94.106346,87.161919 
	C89.424606,87.517471 84.738380,87.891014 80.093620,88.544273 
	C79.597107,88.614105 79.078934,90.498787 79.047279,91.555840 
	C78.925621,95.617691 78.997993,99.685349 78.997993,103.750832 
	C78.566330,103.966927 78.134666,104.183022 77.703003,104.399117 
	C73.642197,99.961845 67.492462,97.312454 66.926620,89.865227 
	C66.833817,88.643822 66.028412,86.937073 65.044640,86.419273 
	C61.414337,84.508522 57.666599,82.672821 53.751770,81.537010 
	C52.506100,81.175598 49.977066,82.675674 49.108536,84.018257 
	C45.277088,89.940903 48.302197,94.542221 52.394161,98.994720 
	C56.408390,103.362640 60.395931,107.817078 63.821064,112.641174 
	C65.878754,115.539299 66.837997,119.217331 68.118973,122.151100 
	C70.249252,120.090591 72.385765,118.024055 75.060417,115.404518 
M103.001450,64.596680 
	C101.874573,65.712540 100.747696,66.828392 98.798409,68.758621 
	C106.390533,68.758621 112.600861,68.758621 118.781235,68.758621 
	C122.490402,56.962296 122.490402,56.962296 119.653282,53.215935 
	C114.269714,56.869614 108.939835,60.486851 103.001450,64.596680 
M72.970970,60.462116 
	C69.818451,57.968849 66.665939,55.475586 63.290791,52.806244 
	C60.773315,58.590843 61.695076,63.853951 64.531326,68.851501 
	C70.859734,68.851501 76.821922,68.851501 83.465424,68.851501 
	C81.465561,63.993153 76.561287,63.600067 72.970970,60.462116 
z"/>
<path fill="#070604" opacity="1.000000" stroke="none" 
	d="
M142.449600,271.535400 
	C146.418381,262.756409 150.150986,254.292221 153.909897,245.839722 
	C155.610397,242.015884 157.387421,238.226044 159.084274,234.400650 
	C160.333115,231.585266 162.077591,230.085587 165.514847,230.500046 
	C168.960693,230.915558 172.495728,230.591354 176.231506,230.591354 
	C176.918106,232.190994 177.599014,233.777359 178.640350,236.203445 
	C182.471939,227.607895 189.819748,231.069809 196.320221,229.712646 
	C198.559235,238.346542 200.697128,246.590546 202.858688,254.925751 
	C206.278397,248.188370 209.406784,241.645950 212.939804,235.329849 
	C213.827362,233.743118 215.852371,232.302460 217.635300,231.809280 
	C221.287491,230.799042 225.129852,230.476318 229.108093,229.836044 
	C230.999557,234.388840 232.819962,238.770599 234.640366,243.152374 
	C234.969391,243.126480 235.298416,243.100601 235.627441,243.074722 
	C235.627441,240.121979 235.627441,237.169235 235.627441,233.616745 
	C244.760849,232.476242 253.305710,230.693405 261.849365,230.699081 
	C265.208405,230.701309 268.564728,234.702042 272.096252,236.994812 
	C272.436615,234.920029 272.781433,232.818329 273.229492,230.087173 
	C279.346893,231.391083 286.211823,227.578384 292.636108,232.976028 
	C293.016632,232.510254 294.081055,231.207260 295.237305,229.791885 
	C298.015015,233.551270 300.691376,237.173508 303.700317,241.245895 
	C304.229401,239.573288 304.724487,238.533295 304.875793,237.445496 
	C305.932556,229.848984 305.911682,229.737305 313.359161,229.866577 
	C333.672943,230.219208 353.985016,230.669632 374.297455,231.095169 
	C375.105743,231.112091 375.911041,231.270752 377.190430,231.417633 
	C377.190430,243.812805 377.190430,256.076721 377.190430,268.634552 
	C373.629944,267.845459 370.515930,267.155304 367.203003,266.421082 
	C367.961945,275.624969 368.692444,284.483978 369.452637,293.703369 
	C347.765747,293.703369 326.856689,293.703369 305.605103,293.703369 
	C305.318390,292.022186 305.028748,290.323669 304.632843,288.001862 
	C303.549866,289.178131 302.727966,289.910889 302.097382,290.782104 
	C298.408844,295.878326 298.423950,295.889252 295.014130,291.979614 
	C293.250580,292.767548 291.750122,294.035065 290.293793,293.986237 
	C283.645264,293.763397 276.595306,291.623322 270.512421,293.249756 
	C266.381989,294.354095 262.977753,292.003418 258.927032,293.661072 
	C255.212997,295.180939 250.096069,294.988342 246.125244,293.794403 
	C238.716934,291.566803 231.660889,294.275391 224.357880,294.097656 
	C223.862335,290.376526 223.388245,286.816589 222.898315,283.137634 
	C220.976425,283.137634 219.349564,283.137634 217.210846,283.137634 
	C216.181854,286.664673 215.097214,290.382446 214.076431,293.881348 
	C205.245239,293.881348 196.517136,293.881348 187.049759,293.881348 
	C185.991043,288.124207 184.906876,282.228668 183.671692,275.511902 
	C180.264328,278.616486 177.436279,281.193237 174.472031,283.894073 
	C172.439651,280.993469 170.419037,278.109650 168.010956,274.672852 
	C165.746384,281.254303 163.610916,287.460571 161.538788,293.482758 
	C154.651718,291.918518 148.030960,290.507599 141.484604,288.809845 
	C140.671158,288.598846 139.630768,286.782318 139.755630,285.852020 
	C140.385361,281.160431 141.366394,276.515961 142.449600,271.535400 
M199.197311,257.315979 
	C197.239685,249.660370 195.282074,242.004761 193.332809,234.381775 
	C184.776321,233.538223 184.792984,233.546707 181.159256,240.680420 
	C180.157166,242.647736 179.023254,244.547882 177.592056,247.122437 
	C176.526596,243.661987 175.980545,240.771652 174.728760,238.228714 
	C173.938873,236.624100 172.162399,234.530716 170.708054,234.432068 
	C167.752243,234.231613 164.115051,232.692886 162.143967,237.157669 
	C158.318848,245.822189 153.999573,254.267136 150.030457,262.870148 
	C148.223831,266.786011 146.763229,270.861511 144.973541,275.290619 
	C150.429474,276.768890 154.796783,277.952209 159.231995,279.153931 
	C162.112228,271.383270 164.726364,264.330536 167.451584,256.978088 
	C170.270447,260.855927 172.646194,264.124207 175.167831,267.593170 
	C178.433731,264.565063 181.292633,261.914307 184.566025,258.879242 
	C186.584396,266.193024 188.449402,272.951019 190.429916,280.127625 
	C195.027527,279.640564 199.414322,279.175842 204.387039,278.649017 
	C202.692825,271.526062 201.094437,264.805878 199.197311,257.315979 
M243.269653,267.900726 
	C244.386703,270.294281 246.134583,272.596954 246.494949,275.099487 
	C247.355408,281.074860 251.009872,280.374451 255.312744,279.554474 
	C254.911423,276.318481 254.536148,273.292511 254.160873,270.266541 
	C254.522644,270.001099 254.884399,269.735626 255.246170,269.470184 
	C257.388031,271.761261 259.831818,273.842834 261.601379,276.392303 
	C264.288330,280.263458 267.268738,280.136322 270.790436,277.953918 
	C272.739349,276.746155 274.693481,275.546844 277.363403,273.901031 
	C273.960358,270.870911 270.560089,267.843262 266.701141,264.407135 
	C273.434845,259.927399 273.571442,253.748322 272.278992,247.065994 
	C271.708374,244.115829 264.314545,234.671661 261.474579,234.814194 
	C254.779999,235.150146 248.121124,236.197586 241.277618,236.976593 
	C241.912994,247.555771 242.499771,257.325806 243.269653,267.900726 
M363.895538,279.360046 
	C362.897003,270.365295 361.898499,261.370575 360.841675,251.850510 
	C365.402802,252.080444 369.487000,252.286346 373.730927,252.500290 
	C373.730927,246.726761 373.730927,240.838440 373.730927,234.505005 
	C361.511169,234.505005 349.608429,234.505005 337.430847,234.505005 
	C337.029602,239.933273 336.643768,245.152695 336.247925,250.507797 
	C340.581116,251.056686 344.633179,251.569962 348.839142,252.102737 
	C347.934387,261.573120 347.074249,270.576721 346.182343,279.912720 
	C352.199188,279.912720 357.670776,279.912720 363.895538,279.360046 
M307.070526,245.985794 
	C307.399475,254.029434 304.529968,262.717590 310.783417,268.040344 
	C309.922455,272.549957 309.270874,275.962738 308.546967,279.754578 
	C318.708466,279.754578 327.643158,279.754578 336.576019,279.754578 
	C336.600769,270.694733 334.134064,268.010651 325.941711,267.951294 
	C324.942719,267.944061 323.793152,268.247406 322.980591,267.854340 
	C321.807190,267.286743 320.878204,266.213806 319.095276,264.734497 
	C323.587219,263.828857 326.771027,263.186920 330.014832,262.532898 
	C330.264618,259.265015 330.486053,256.367828 330.704254,253.512939 
	C326.708160,252.784164 323.261108,252.155502 319.814087,251.526855 
	C319.760101,250.934677 319.706085,250.342484 319.652069,249.750305 
	C322.006592,249.171722 324.448914,247.879791 326.698120,248.156693 
	C332.096466,248.821259 333.158966,245.430328 333.804962,241.524124 
	C334.177551,239.271271 334.065216,236.938232 334.185944,234.319855 
	C325.726379,234.319855 317.660004,234.319855 309.655396,234.319855 
	C308.797607,238.045975 307.986725,241.568375 307.070526,245.985794 
M234.507187,254.039978 
	C232.512833,249.296371 230.649826,244.490906 228.458908,239.839905 
	C227.593124,238.001953 226.049713,235.169693 224.723755,235.117828 
	C221.276779,234.982941 217.345306,235.109238 215.413223,239.192337 
	C214.145676,241.871094 212.856949,244.570755 211.260635,247.057510 
	C205.505051,256.023682 201.781860,265.231476 207.008743,275.789185 
	C207.678375,277.141785 208.453369,278.442200 209.179581,279.766815 
	C210.111053,278.628479 211.276260,277.605072 211.908615,276.319580 
	C212.547653,275.020447 212.539566,273.418518 213.040924,272.030884 
	C213.405838,271.020905 214.093506,269.371246 214.714020,269.335419 
	C218.173187,269.135681 221.767380,268.878510 225.065994,269.674469 
	C226.131378,269.931580 226.485657,273.306274 227.082230,275.279938 
	C227.540787,276.796997 227.869247,278.353394 228.292999,280.041382 
	C233.512924,279.075073 238.124344,278.221405 243.575180,277.212341 
	C240.413757,269.075592 237.628357,261.906677 234.507187,254.039978 
M277.199066,234.973892 
	C276.859161,244.924911 276.402832,254.874588 276.289734,264.828186 
	C276.270020,266.563629 277.344147,268.614136 278.521240,270.003998 
	C282.089050,274.216644 282.081543,276.261780 277.925079,279.649109 
	C281.261444,279.649109 284.612305,279.649109 288.264038,279.649109 
	C287.931976,275.889160 287.632599,272.499359 287.333221,269.109528 
	C287.733490,268.794495 288.133728,268.479462 288.533997,268.164429 
	C291.852295,271.933563 295.170563,275.702728 298.523132,279.510803 
	C301.060760,276.166687 303.533478,272.908081 306.277466,269.291962 
	C303.611023,266.804840 301.104797,264.445038 298.574402,262.111511 
	C293.281128,257.230072 293.462646,257.376648 297.723328,251.731781 
	C299.342255,249.586929 301.045624,246.407608 300.607605,244.098694 
	C300.109558,241.473587 297.258881,239.294800 295.312683,236.768646 
	C292.405823,240.179306 289.818848,243.214630 286.594238,246.998123 
	C286.594238,242.243256 286.594238,238.482101 286.594238,234.390457 
	C283.464050,234.390457 280.681671,234.390457 277.199066,234.973892 
M342.580322,275.599548 
	C342.767761,272.196198 342.955200,268.792816 343.155273,265.160095 
	C340.731873,265.160095 338.860748,265.160095 336.124359,265.160095 
	C337.948486,270.281281 339.585571,274.877380 341.617828,280.582855 
	C342.025757,278.325531 342.201050,277.355408 342.580322,275.599548 
z"/>
<path fill="#060504" opacity="1.000000" stroke="none" 
	d="
M190.981567,217.465637 
	C189.993576,217.966614 188.509399,218.706512 188.184235,219.793228 
	C186.978760,223.821991 184.836899,226.048706 180.372330,225.096619 
	C180.053574,225.028641 179.707733,225.087723 179.374481,225.087738 
	C164.098587,225.088089 163.983246,225.202866 153.346603,214.513779 
	C151.247559,212.404388 150.415848,209.033890 148.795349,205.842590 
	C147.955078,208.210663 146.949524,210.945969 146.014389,213.705124 
	C144.870621,217.079880 143.915588,220.527695 142.569717,223.817413 
	C142.290070,224.501022 140.670517,224.911255 139.644180,224.962677 
	C136.652451,225.112640 133.631287,224.817719 130.653961,225.073288 
	C127.609489,225.334610 125.774025,224.496490 125.843300,220.858429 
	C121.384346,228.749207 114.203163,223.140442 108.780884,225.459518 
	C107.504814,218.761307 106.314590,212.513702 105.124359,206.266113 
	C104.701500,206.272141 104.278633,206.278168 103.855774,206.284180 
	C103.567764,208.786316 103.125984,211.282425 103.027710,213.791992 
	C102.879501,217.576721 101.025063,219.338120 97.328430,220.043457 
	C94.300011,220.621292 91.479561,222.225082 88.466110,222.961563 
	C84.651306,223.893860 80.517662,225.478210 76.932640,224.751938 
	C74.244949,224.207474 72.184563,220.479233 69.893234,218.121521 
	C69.252235,217.461929 68.782570,216.635818 67.647560,215.083725 
	C66.342125,223.795151 60.933071,225.353851 54.002625,225.101990 
	C46.365257,224.824432 38.710018,225.038681 30.468435,225.038681 
	C29.848852,205.161026 29.237673,185.552963 28.637819,166.308243 
	C38.857529,158.811432 49.120907,162.501038 59.113327,164.803726 
	C60.980160,165.233932 62.149311,168.691711 63.819675,170.999985 
	C64.979454,170.252579 66.620049,169.745438 67.349457,168.638092 
	C73.107101,159.897186 81.914154,161.883148 90.099319,162.252975 
	C91.691490,162.324921 93.314804,164.527328 94.672195,165.981796 
	C95.574120,166.948227 96.028755,168.332092 97.295113,169.668396 
	C96.414864,163.657562 99.648476,162.696274 104.204620,162.646378 
	C108.509514,162.599243 112.808540,162.016357 117.444778,161.642105 
	C118.815002,167.604614 120.122681,173.294937 121.430351,178.985245 
	C121.849472,179.169083 122.268585,179.352921 122.687706,179.536774 
	C124.528732,176.893250 126.369759,174.249741 128.436844,171.281631 
	C130.167023,174.191925 131.840759,177.007263 133.854416,180.394379 
	C136.267334,173.873901 138.454315,167.963959 140.672394,161.969955 
	C147.451248,163.779114 153.783707,165.469147 160.167892,167.172974 
	C160.343460,169.015930 160.497833,170.636429 160.808487,173.897568 
	C162.737076,170.646896 163.863083,168.550049 165.178528,166.579681 
	C167.022522,163.817657 168.884766,160.958344 172.996231,161.892395 
	C173.471542,162.000397 173.996292,161.946533 174.491959,161.900925 
	C181.084991,161.294159 187.436127,161.262115 190.694656,170.005478 
	C191.413757,166.534485 191.848145,164.437790 192.370865,161.914703 
	C202.314743,161.914703 212.452530,161.879593 222.589905,161.929718 
	C227.556503,161.954269 232.593201,162.703659 237.469086,162.093460 
	C242.631699,161.447372 245.796234,163.803070 249.724289,166.516891 
	C256.104584,170.924881 257.838867,176.539658 257.500336,183.661316 
	C257.335175,187.135132 257.906311,190.637787 257.978241,194.130829 
	C258.045197,197.383240 258.932556,200.038422 260.402283,203.137573 
	C262.405090,207.360779 261.942047,213.046280 261.509277,218.015335 
	C261.271912,220.740402 247.915237,225.875473 244.812897,225.341034 
	C242.952179,225.020508 241.013062,225.096924 239.109070,225.094910 
	C223.623154,225.078476 208.137238,225.085663 192.349731,225.085663 
	C191.892197,222.605667 191.454788,220.234711 190.981567,217.465637 
M236.677704,201.946899 
	C242.277344,207.868393 247.639465,214.814835 256.533936,206.584457 
	C256.732697,206.400497 256.747833,206.018066 256.960022,205.407806 
	C254.711044,203.003555 252.220444,200.601334 250.089188,197.914108 
	C249.392181,197.035294 249.023483,194.662216 249.534180,194.250900 
	C254.459747,190.284134 253.066360,184.949677 252.973251,179.903809 
	C252.851822,173.323257 245.234314,166.483063 238.639984,167.128143 
	C234.672638,167.516235 230.748215,168.380234 226.777954,168.688797 
	C223.994781,168.905106 222.929382,170.164505 223.020142,172.786575 
	C223.359818,182.598648 223.259247,192.449539 224.139099,202.212387 
	C224.932632,211.017441 227.493362,212.597015 236.046921,211.177704 
	C236.046921,208.156036 236.046921,205.057297 236.007553,201.995987 
	C236.007553,201.995987 235.972061,202.037079 236.677704,201.946899 
M107.927063,191.719833 
	C108.843567,197.093964 109.593758,202.505630 110.792473,207.816055 
	C111.095497,209.158478 112.942909,211.244186 113.885780,211.144531 
	C116.659569,210.851379 120.389351,212.946381 121.996040,208.489929 
	C122.994759,205.719772 124.538780,203.146225 126.034393,200.082184 
	C127.242271,204.322998 128.201569,207.691040 129.100128,210.845871 
	C141.492447,211.011658 138.149307,212.547974 142.478668,203.058746 
	C145.483994,196.471619 147.483963,189.430740 150.057053,182.639557 
	C151.563354,178.664062 153.313004,174.780762 154.985168,170.779449 
	C150.717667,169.702515 147.095200,168.788361 142.901627,167.730072 
	C140.207169,174.801788 137.537445,181.808578 134.574692,189.584427 
	C132.130615,185.513000 130.142410,182.201004 127.989647,178.614853 
	C125.238213,182.008850 122.892990,184.901779 119.907578,188.584412 
	C117.799065,180.545609 115.902016,173.313065 113.992119,166.031509 
	C109.917198,166.614044 106.544518,167.096191 102.876648,167.620544 
	C103.690735,171.835098 104.345100,175.548920 105.137024,179.233185 
	C105.971443,183.115143 106.937256,186.968857 107.927063,191.719833 
M57.914944,210.942719 
	C66.762558,207.102020 67.332008,197.513397 60.076073,190.141968 
	C60.706093,185.376801 62.171791,181.221741 61.464897,177.476791 
	C60.884007,174.399368 58.304222,170.585876 55.570457,169.286377 
	C51.360741,167.285309 46.289932,166.948654 41.531410,166.287506 
	C35.962112,165.513718 32.066982,169.147598 32.228844,174.639465 
	C32.463802,182.611465 32.747784,190.582153 33.041603,198.552261 
	C33.199158,202.825989 33.421001,207.097351 33.598709,211.034653 
	C41.863937,211.034653 49.469810,211.034653 57.914944,210.942719 
M100.733398,181.506516 
	C99.214455,179.385468 97.852867,177.126221 96.139893,175.175552 
	C93.532967,172.206894 91.171387,168.068939 87.835373,166.889938 
	C80.548401,164.314606 73.563721,166.309219 68.435944,172.547913 
	C67.109688,174.161469 66.055191,176.234894 65.570648,178.263077 
	C63.414173,187.289566 67.561028,195.377869 70.271942,203.463715 
	C72.554291,210.271210 79.009453,212.222443 85.484253,209.707275 
	C89.741188,208.053650 94.117813,206.708191 98.967827,205.043900 
	C99.621811,197.710098 100.308395,190.010757 100.733398,181.506516 
M168.000839,196.856827 
	C165.629974,195.070877 163.259109,193.284927 160.310745,191.063965 
	C158.619324,194.948074 156.880112,197.818466 156.204330,200.920517 
	C155.807114,202.743866 167.193146,211.736023 169.318527,211.776398 
	C173.148911,211.849182 176.995941,211.983948 180.806030,211.696060 
	C182.197021,211.590973 184.180542,210.683884 184.717651,209.573685 
	C186.213593,206.481598 187.349869,203.148972 188.103317,199.793488 
	C188.457825,198.214630 188.177780,195.868088 187.190765,194.738113 
	C184.842499,192.049744 181.747192,190.026093 179.273819,187.429031 
	C178.230682,186.333740 177.994202,184.470230 177.391068,182.955917 
	C178.861130,183.154572 180.550003,182.968735 181.745804,183.649292 
	C183.236893,184.497940 184.321548,186.060699 185.728607,187.461349 
	C187.829315,184.240997 191.299347,181.171478 191.490570,177.909744 
	C191.640991,175.344040 187.745224,172.541458 185.648529,169.842697 
	C185.547302,169.712433 185.401505,169.577850 185.380020,169.430222 
	C184.723572,164.918350 181.202530,165.806686 178.421661,166.050247 
	C175.459915,166.309631 171.498718,166.272064 169.833267,168.078445 
	C165.318939,172.974792 161.789810,178.779480 157.601303,184.597198 
	C161.591705,187.519730 165.404709,190.325089 169.232147,193.110580 
	C171.430923,194.710754 172.820969,196.180603 168.000839,196.856827 
M205.442108,181.769424 
	C207.053665,181.179993 208.623062,180.377167 210.286148,180.048553 
	C213.147705,179.483139 216.067627,179.213226 218.533829,178.877686 
	C219.450775,174.273911 220.238831,170.317276 221.076813,166.110016 
	C212.369675,166.110016 204.256989,166.110016 196.324799,166.110016 
	C193.073578,170.620193 194.414825,174.419571 197.445587,177.356873 
	C195.759232,180.272629 193.010849,182.823395 193.093094,185.279327 
	C193.384644,193.982697 194.642975,202.653687 195.544617,211.431061 
	C205.017456,211.431061 213.888809,211.431061 222.743454,211.431061 
	C223.138763,202.082596 220.348053,199.116608 211.512085,198.966629 
	C209.916229,198.939545 208.328384,198.439133 206.736847,198.157257 
	C206.801270,197.601181 206.865692,197.045105 206.930115,196.489029 
	C210.107956,195.998474 213.285797,195.507919 216.645691,194.989273 
	C216.645691,191.577026 216.645691,188.504608 216.645691,186.068008 
	C212.554520,184.803146 208.948441,183.688263 205.442108,181.769424 
z"/>
<path fill="#050604" opacity="1.000000" stroke="none" 
	d="
M308.401367,162.038300 
	C311.411011,164.539139 313.986328,167.019363 316.164581,169.117157 
	C317.439301,167.693558 318.778290,165.379089 320.784088,164.179855 
	C322.952362,162.883484 325.717010,162.184982 328.269531,162.033295 
	C331.377258,161.848618 334.587219,162.245865 337.659119,162.860397 
	C342.398560,163.808563 346.822296,162.920898 351.538483,162.316803 
	C360.050323,161.226486 368.818939,162.216293 377.479980,162.196060 
	C389.592834,162.167755 401.705444,162.008377 413.818146,161.909363 
	C415.454773,161.895981 417.091553,161.907516 419.126526,161.907516 
	C419.126526,164.161804 419.126526,166.062454 419.126526,168.796326 
	C421.315613,167.292023 422.958679,166.357147 424.375763,165.155716 
	C430.731720,159.767151 438.337311,162.302155 445.346344,162.123459 
	C459.493469,161.762756 473.662445,162.252396 487.822113,162.417221 
	C488.453857,162.424576 489.082672,162.687500 489.781006,162.846924 
	C489.781006,175.259964 489.781006,187.531158 489.781006,199.941162 
	C486.005920,199.194046 482.469086,198.494080 478.716614,197.751434 
	C479.466522,207.023148 480.178253,215.822220 480.882965,224.535065 
	C448.882385,224.535065 417.755615,224.535065 386.204132,224.535065 
	C385.676544,220.190536 385.129486,215.685593 384.492798,210.442719 
	C381.691803,214.598236 379.443634,218.338898 376.755859,221.731262 
	C375.603333,223.185944 373.548126,224.816864 371.883942,224.837708 
	C354.089447,225.060349 336.291107,224.976151 318.173065,224.976151 
	C318.046478,223.240845 317.930969,221.657562 317.762177,219.343658 
	C314.482758,220.363571 311.528107,221.218765 308.619415,222.208862 
	C306.577728,222.903839 304.661469,224.120758 302.578278,224.507996 
	C298.412537,225.282364 294.537292,226.161255 291.309265,221.302658 
	C287.886414,216.150803 282.959412,212.014801 278.880554,207.270706 
	C277.862244,206.086319 276.968048,204.232697 277.058136,202.749924 
	C277.611176,193.647797 278.254639,184.537811 279.381348,175.494431 
	C279.624054,173.546387 281.943451,171.839539 283.367523,170.070938 
	C283.654510,169.714523 284.353119,169.687531 284.635651,169.329880 
	C290.757446,161.580078 299.181183,161.230194 308.401367,162.038300 
M281.519379,184.856476 
	C281.071564,187.142517 280.304138,189.425781 280.284302,191.715530 
	C280.270264,193.338516 280.867462,195.301895 281.890472,196.532578 
	C284.419952,199.575531 287.349487,202.286102 290.120819,205.127762 
	C296.887543,212.066315 296.865692,212.006012 306.293274,208.466400 
	C308.916992,207.481308 311.753510,207.074448 314.417328,206.179092 
	C315.526459,205.806305 317.199036,204.963089 317.321655,204.140884 
	C318.323273,197.424225 320.662048,190.313919 319.327911,184.015182 
	C318.088837,178.165405 313.381836,172.655487 309.086121,168.032608 
	C307.241333,166.047302 302.501740,165.981827 299.215576,166.333923 
	C296.241669,166.652557 293.505981,168.854584 290.576721,169.999786 
	C284.143341,172.514938 280.801910,176.886292 281.519379,184.856476 
M329.075073,211.510452 
	C334.234650,211.381195 339.466400,211.714310 344.522827,210.924576 
	C346.994354,210.538559 349.970764,208.569580 351.272766,206.435120 
	C354.839539,200.587860 353.406464,195.307053 348.425781,190.101944 
	C349.063232,185.492111 350.514557,181.471329 349.850983,177.836639 
	C349.274689,174.680206 346.938080,170.627029 344.249573,169.351303 
	C339.892059,167.283615 334.627228,166.593674 329.711212,166.443405 
	C326.886719,166.357071 322.652496,167.727783 321.488983,169.806305 
	C320.175049,172.153427 320.569305,176.672211 322.078918,179.082977 
	C324.053986,182.237091 323.588837,184.785004 323.243439,187.944458 
	C322.388672,195.763290 321.986176,203.631546 321.390900,211.628281 
	C324.533295,211.628281 326.353180,211.628281 329.075073,211.510452 
M473.976440,196.513977 
	C473.394257,192.144043 472.812042,187.774124 472.121674,182.592072 
	C476.995941,183.433670 481.300232,184.176865 485.583801,184.916489 
	C485.583801,178.846771 485.583801,172.966187 485.583801,166.579132 
	C473.289246,166.579132 461.389832,166.579132 448.976807,166.579132 
	C448.976807,171.667297 448.976807,176.705017 448.976807,181.836166 
	C452.972260,182.291870 456.845306,182.733597 460.521973,183.152924 
	C459.590027,192.955887 458.718445,202.123581 457.830597,211.462631 
	C464.172852,211.462631 469.911926,211.462631 476.012024,211.462631 
	C475.318756,206.562500 474.671631,201.988373 473.976440,196.513977 
M391.935364,165.994125 
	C391.259552,166.577209 390.102325,167.076065 389.983246,167.756577 
	C388.931030,173.769882 387.306396,179.818619 387.331787,185.850647 
	C387.363708,193.439621 388.704773,201.033936 389.705017,208.596313 
	C389.856171,209.738922 391.196869,211.615479 392.029449,211.638672 
	C400.256317,211.867737 408.492096,211.777191 417.464203,211.777191 
	C415.966187,207.074631 414.740692,203.227615 413.551086,199.493240 
	C409.577148,197.850998 404.774170,200.757111 400.203522,196.681091 
	C403.835663,196.109039 406.308899,195.955231 408.642059,195.301392 
	C413.063660,194.062332 410.361084,189.870270 411.532562,187.231903 
	C411.619751,187.035568 409.335297,185.395645 407.990906,185.038498 
	C405.474579,184.369980 402.839020,184.150162 400.253082,183.743683 
	C400.061310,183.258545 399.869507,182.773392 399.677734,182.288239 
	C400.884979,181.536743 402.021423,180.297729 403.310547,180.110565 
	C414.022461,178.555405 414.035645,178.614120 414.120789,167.867477 
	C414.124420,167.411621 413.891449,166.953903 413.626190,165.966568 
	C406.738251,165.966568 399.796478,165.966568 391.935364,165.994125 
M362.225922,180.053040 
	C362.760254,180.362076 363.725800,180.625290 363.764252,180.987030 
	C364.336090,186.367157 364.785217,191.760315 365.286926,197.416428 
	C362.193451,197.777771 359.645844,198.075333 357.687073,198.304138 
	C356.603851,203.031494 355.649780,207.195267 354.529388,212.084946 
	C359.823456,211.677567 364.254578,211.307480 368.690125,211.002014 
	C375.548401,210.529694 379.730072,204.201538 378.174347,197.447693 
	C376.898071,191.906815 376.373077,186.192871 375.466583,180.237015 
	C379.404510,180.026535 382.298187,179.871872 385.411621,179.705475 
	C385.411621,175.627716 385.411621,172.031647 385.411621,167.200989 
	C374.329803,167.200989 363.396851,167.200989 351.875519,167.200989 
	C352.801361,171.496262 353.649994,175.433411 354.639954,180.026276 
	C356.752258,180.026276 359.033051,180.026276 362.225922,180.053040 
M444.549408,210.130508 
	C445.673370,209.332626 447.858582,208.343475 447.754669,207.766922 
	C446.865143,202.831482 445.560974,197.970779 444.287628,192.702103 
	C439.111389,195.724457 434.894287,201.232986 429.095367,195.215973 
	C427.223938,193.274170 425.798126,185.068192 427.542999,183.162949 
	C432.717468,177.512833 438.443207,178.621689 444.662415,183.697037 
	C444.662415,177.500763 444.662415,172.612137 444.664856,167.714539 
	C434.142853,165.292511 428.791870,166.353760 420.903870,172.560974 
	C419.894135,173.355530 418.885010,174.361755 418.332611,175.493057 
	C414.193512,183.970032 412.721771,192.829620 418.162170,201.040222 
	C420.861359,205.113831 425.014191,209.249893 429.422974,210.866867 
	C433.551544,212.381073 438.885986,210.607574 444.549408,210.130508 
M453.430237,211.731735 
	C454.049347,206.873489 454.668457,202.015244 455.328766,196.833984 
	C452.970612,196.979630 451.530426,197.068573 449.448639,197.197144 
	C450.731903,202.552399 451.924713,207.530151 453.430237,211.731735 
z"/>
<path fill="#E21D07" opacity="1.000000" stroke="none" 
	d="
M442.984192,115.877975 
	C433.145111,116.340164 433.235748,116.312706 430.518585,107.345345 
	C427.387543,97.012192 424.075348,86.733910 420.513245,75.384773 
	C413.140808,81.797798 406.451996,87.616150 399.178528,93.943062 
	C393.882416,87.044243 388.788544,80.408882 383.047791,72.930885 
	C380.827911,77.512894 379.015594,81.174767 377.271729,84.868942 
	C373.220093,93.451843 369.136505,102.020805 365.212585,110.662048 
	C364.153107,112.995186 363.058594,113.813148 360.304321,113.228981 
	C351.243988,111.307320 342.104218,109.760223 332.171356,107.916351 
	C334.023193,104.419044 335.453888,101.667587 336.928619,98.939941 
	C348.094727,78.287056 359.336639,57.674595 370.368134,36.950100 
	C371.995850,33.892220 373.782440,32.566879 377.294037,32.784885 
	C382.271820,33.093918 387.295563,33.078724 392.275604,32.788830 
	C395.584290,32.596226 396.960663,33.966522 397.909393,36.924332 
	C399.764221,42.706982 401.969177,48.377323 404.528168,55.478874 
	C409.001099,48.227760 412.845062,42.279007 416.373077,36.148449 
	C417.954926,33.399723 419.720428,31.989790 423.062103,32.141338 
	C427.542419,32.344528 432.058044,31.792681 436.535706,32.017952 
	C437.923920,32.087791 440.119720,33.376221 440.456421,34.538265 
	C448.046875,60.736561 455.429657,86.995041 463.077972,114.043098 
	C456.219391,114.680954 449.828522,115.275314 442.984192,115.877975 
z"/>
<path fill="#F8CC00" opacity="1.000000" stroke="none" 
	d="
M267.788391,107.210571 
	C257.713043,101.500717 256.500214,91.084641 253.047546,81.928040 
	C251.803223,78.628021 250.186234,75.468529 249.140198,73.138016 
	C249.533356,65.448372 249.709702,58.230450 250.396271,51.061390 
	C250.581848,49.123592 251.898010,46.824574 253.421783,45.583153 
	C256.498322,43.076706 260.367859,41.528847 263.384552,38.966621 
	C271.053833,32.452717 279.748322,30.773396 289.378510,32.432472 
	C290.032166,32.545074 290.731354,32.714615 291.360931,32.597374 
	C302.084167,30.600399 309.086945,35.436714 314.663269,44.239899 
	C318.471283,50.251549 323.600525,55.411991 327.805573,61.195496 
	C329.001434,62.840282 329.764374,65.444466 329.469879,67.421600 
	C327.802612,78.615555 325.639313,89.734947 323.907104,100.920334 
	C323.412384,104.114799 321.907654,105.306557 318.920288,106.042923 
	C307.459778,108.867867 296.002167,111.748016 284.683167,115.081978 
	C280.158569,116.414688 276.743683,116.163300 273.614197,112.455452 
	C272.020111,110.566734 269.926117,109.099960 267.788391,107.210571 
M288.194427,63.350590 
	C281.011810,61.848537 281.010559,61.847984 278.095032,68.370651 
	C277.483459,69.738892 276.568909,71.070221 276.376465,72.497124 
	C276.212830,73.710747 276.472168,75.498062 277.274719,76.222885 
	C279.232208,77.990730 281.695190,80.623177 283.806305,80.493469 
	C287.917999,80.240852 292.923523,79.363823 295.626770,76.748421 
	C297.398804,75.033974 296.408905,69.623032 295.380524,66.257347 
	C294.950623,64.850311 291.213684,64.453743 288.194427,63.350590 
z"/>
<path fill="#0099D5" opacity="1.000000" stroke="none" 
	d="
M244.602295,82.554878 
	C245.055298,83.859406 245.208939,84.907440 245.718903,85.736267 
	C250.905334,94.165756 248.618011,102.497894 243.586288,109.425331 
	C241.084579,112.869583 235.243210,115.445175 230.792053,115.638557 
	C214.237808,116.357780 197.633530,115.925468 180.170502,115.925468 
	C180.170502,113.399712 180.243286,110.458351 180.158890,107.521500 
	C179.532806,85.734207 178.965485,63.944424 178.145660,42.164234 
	C177.996567,38.203312 179.267273,36.653130 182.973129,35.013824 
	C192.814468,30.660460 202.571960,33.151672 212.393402,34.085213 
	C216.362381,34.462471 220.292282,35.406216 224.262314,35.579346 
	C229.650650,35.814339 234.298721,36.490669 236.806534,42.375198 
	C238.772583,46.988514 242.374054,50.570450 242.117355,56.445461 
	C241.808441,63.515232 240.445282,69.823074 235.882339,74.962563 
	C239.015533,77.602409 241.741928,79.899521 244.602295,82.554878 
M209.828613,50.713703 
	C208.484970,50.511921 207.141342,50.310139 205.430130,50.053154 
	C205.430130,54.424446 205.404678,58.068317 205.454926,61.711147 
	C205.463379,62.325218 205.798508,62.934784 205.966125,63.491394 
	C215.540100,63.774704 217.386658,62.398239 217.663132,56.346806 
	C217.921249,50.697334 213.655945,51.790318 209.828613,50.713703 
M218.626648,96.763527 
	C219.867340,88.956413 217.153488,86.391426 207.425476,86.236687 
	C207.425476,90.592278 207.425476,94.939278 207.425476,99.708519 
	C211.249283,98.835617 214.611389,98.068108 218.626648,96.763527 
z"/>
<path fill="#FDFDFD" opacity="1.000000" stroke="none" 
	d="
M74.791351,115.681015 
	C72.385765,118.024055 70.249252,120.090591 68.118973,122.151100 
	C66.837997,119.217331 65.878754,115.539299 63.821064,112.641174 
	C60.395931,107.817078 56.408390,103.362640 52.394161,98.994720 
	C48.302197,94.542221 45.277088,89.940903 49.108536,84.018257 
	C49.977066,82.675674 52.506100,81.175598 53.751770,81.537010 
	C57.666599,82.672821 61.414337,84.508522 65.044640,86.419273 
	C66.028412,86.937073 66.833817,88.643822 66.926620,89.865227 
	C67.492462,97.312454 73.642197,99.961845 77.703003,104.399117 
	C78.134666,104.183022 78.566330,103.966927 78.997993,103.750832 
	C78.997993,99.685349 78.925621,95.617691 79.047279,91.555840 
	C79.078934,90.498787 79.597107,88.614105 80.093620,88.544273 
	C84.738380,87.891014 89.424606,87.517471 94.106346,87.161919 
	C94.669289,87.119171 95.267494,87.686790 95.865356,87.932564 
	C98.535828,89.030365 103.093330,85.483124 103.916733,90.938179 
	C104.400475,94.142975 104.201820,97.453964 104.258507,100.718079 
	C104.275368,101.689285 104.117279,102.663528 103.992249,104.224144 
	C109.930183,101.775391 113.470062,97.660027 114.983505,92.160583 
	C116.804771,85.542557 123.701454,80.007782 130.463760,80.911575 
	C131.970459,81.112946 134.367874,82.726852 134.474640,83.866539 
	C134.849869,87.872604 136.565231,92.109627 132.976547,95.872520 
	C130.334167,98.643196 128.744217,102.493637 125.917625,104.995636 
	C121.084351,109.273872 118.901360,114.814026 116.677490,120.501144 
	C116.424049,121.149284 115.157867,121.401405 114.750824,121.624062 
	C110.956390,118.349312 107.316467,115.207909 103.171844,111.630936 
	C103.171844,115.876793 103.171844,119.731361 103.171844,123.790146 
	C95.248177,123.790146 87.825294,123.790146 79.811234,123.790146 
	C79.811234,119.716873 79.811234,115.681755 79.811234,110.157974 
	C77.727554,112.459076 76.393982,113.931801 74.791351,115.681015 
z"/>
<path fill="#FBFBFB" opacity="1.000000" stroke="none" 
	d="
M103.305702,64.350388 
	C108.939835,60.486851 114.269714,56.869614 119.653282,53.215935 
	C122.490402,56.962296 122.490402,56.962296 118.781235,68.758621 
	C112.600861,68.758621 106.390533,68.758621 98.798409,68.758621 
	C100.747696,66.828392 101.874573,65.712540 103.305702,64.350388 
z"/>
<path fill="#FCFCFC" opacity="1.000000" stroke="none" 
	d="
M73.236633,60.724781 
	C76.561287,63.600067 81.465561,63.993153 83.465424,68.851501 
	C76.821922,68.851501 70.859734,68.851501 64.531326,68.851501 
	C61.695076,63.853951 60.773315,58.590843 63.290791,52.806244 
	C66.665939,55.475586 69.818451,57.968849 73.236633,60.724781 
z"/>
<path fill="#E21D07" opacity="1.000000" stroke="none" 
	d="
M199.346680,257.700836 
	C201.094437,264.805878 202.692825,271.526062 204.387039,278.649017 
	C199.414322,279.175842 195.027527,279.640564 190.429916,280.127625 
	C188.449402,272.951019 186.584396,266.193024 184.566025,258.879242 
	C181.292633,261.914307 178.433731,264.565063 175.167831,267.593170 
	C172.646194,264.124207 170.270447,260.855927 167.451584,256.978088 
	C164.726364,264.330536 162.112228,271.383270 159.231995,279.153931 
	C154.796783,277.952209 150.429474,276.768890 144.973541,275.290619 
	C146.763229,270.861511 148.223831,266.786011 150.030457,262.870148 
	C153.999573,254.267136 158.318848,245.822189 162.143967,237.157669 
	C164.115051,232.692886 167.752243,234.231613 170.708054,234.432068 
	C172.162399,234.530716 173.938873,236.624100 174.728760,238.228714 
	C175.980545,240.771652 176.526596,243.661987 177.592056,247.122437 
	C179.023254,244.547882 180.157166,242.647736 181.159256,240.680420 
	C184.792984,233.546707 184.776321,233.538223 193.332809,234.381775 
	C195.282074,242.004761 197.239685,249.660370 199.346680,257.700836 
z"/>
<path fill="#F7CC00" opacity="1.000000" stroke="none" 
	d="
M243.178101,267.498291 
	C242.499771,257.325806 241.912994,247.555771 241.277618,236.976593 
	C248.121124,236.197586 254.779999,235.150146 261.474579,234.814194 
	C264.314545,234.671661 271.708374,244.115829 272.278992,247.065994 
	C273.571442,253.748322 273.434845,259.927399 266.701141,264.407135 
	C270.560089,267.843262 273.960358,270.870911 277.363403,273.901031 
	C274.693481,275.546844 272.739349,276.746155 270.790436,277.953918 
	C267.268738,280.136322 264.288330,280.263458 261.601379,276.392303 
	C259.831818,273.842834 257.388031,271.761261 255.246170,269.470184 
	C254.884399,269.735626 254.522644,270.001099 254.160873,270.266541 
	C254.536148,273.292511 254.911423,276.318481 255.312744,279.554474 
	C251.009872,280.374451 247.355408,281.074860 246.494949,275.099487 
	C246.134583,272.596954 244.386703,270.294281 243.178101,267.498291 
M253.483582,250.128586 
	C253.398575,251.618408 253.079361,253.146820 253.316132,254.583618 
	C253.458878,255.449829 254.787415,256.935547 255.030853,256.832916 
	C256.258453,256.315369 257.825500,255.585861 258.276154,254.512161 
	C258.784515,253.300858 258.776642,251.082977 257.998260,250.326080 
	C257.073090,249.426376 255.088806,249.615784 253.483582,250.128586 
z"/>
<path fill="#F7CC00" opacity="1.000000" stroke="none" 
	d="
M363.518982,279.636383 
	C357.670776,279.912720 352.199188,279.912720 346.182343,279.912720 
	C347.074249,270.576721 347.934387,261.573120 348.839142,252.102737 
	C344.633179,251.569962 340.581116,251.056686 336.247925,250.507797 
	C336.643768,245.152695 337.029602,239.933273 337.430847,234.505005 
	C349.608429,234.505005 361.511169,234.505005 373.730927,234.505005 
	C373.730927,240.838440 373.730927,246.726761 373.730927,252.500290 
	C369.487000,252.286346 365.402802,252.080444 360.841675,251.850510 
	C361.898499,261.370575 362.897003,270.365295 363.518982,279.636383 
z"/>
<path fill="#41AE31" opacity="1.000000" stroke="none" 
	d="
M307.123169,245.538300 
	C307.986725,241.568375 308.797607,238.045975 309.655396,234.319855 
	C317.660004,234.319855 325.726379,234.319855 334.185944,234.319855 
	C334.065216,236.938232 334.177551,239.271271 333.804962,241.524124 
	C333.158966,245.430328 332.096466,248.821259 326.698120,248.156693 
	C324.448914,247.879791 322.006592,249.171722 319.652069,249.750305 
	C319.706085,250.342484 319.760101,250.934677 319.814087,251.526855 
	C323.261108,252.155502 326.708160,252.784164 330.704254,253.512939 
	C330.486053,256.367828 330.264618,259.265015 330.014832,262.532898 
	C326.771027,263.186920 323.587219,263.828857 319.095276,264.734497 
	C320.878204,266.213806 321.807190,267.286743 322.980591,267.854340 
	C323.793152,268.247406 324.942719,267.944061 325.941711,267.951294 
	C334.134064,268.010651 336.600769,270.694733 336.576019,279.754578 
	C327.643158,279.754578 318.708466,279.754578 308.546967,279.754578 
	C309.270874,275.962738 309.922455,272.549957 310.783417,268.040344 
	C304.529968,262.717590 307.399475,254.029434 307.123169,245.538300 
z"/>
<path fill="#40AD31" opacity="1.000000" stroke="none" 
	d="
M234.675079,254.388855 
	C237.628357,261.906677 240.413757,269.075592 243.575180,277.212341 
	C238.124344,278.221405 233.512924,279.075073 228.292999,280.041382 
	C227.869247,278.353394 227.540787,276.796997 227.082230,275.279938 
	C226.485657,273.306274 226.131378,269.931580 225.065994,269.674469 
	C221.767380,268.878510 218.173187,269.135681 214.714020,269.335419 
	C214.093506,269.371246 213.405838,271.020905 213.040924,272.030884 
	C212.539566,273.418518 212.547653,275.020447 211.908615,276.319580 
	C211.276260,277.605072 210.111053,278.628479 209.179581,279.766815 
	C208.453369,278.442200 207.678375,277.141785 207.008743,275.789185 
	C201.781860,265.231476 205.505051,256.023682 211.260635,247.057510 
	C212.856949,244.570755 214.145676,241.871094 215.413223,239.192337 
	C217.345306,235.109238 221.276779,234.982941 224.723755,235.117828 
	C226.049713,235.169693 227.593124,238.001953 228.458908,239.839905 
	C230.649826,244.490906 232.512833,249.296371 234.675079,254.388855 
M224.049530,255.441513 
	C223.113235,254.233612 222.176941,253.025711 221.240646,251.817795 
	C219.977951,253.149887 218.715256,254.481964 217.452560,255.814056 
	C217.739029,256.246643 218.025497,256.679199 218.311966,257.111786 
	C220.182251,256.841003 222.052536,256.570251 224.049530,255.441513 
z"/>
<path fill="#E01D07" opacity="1.000000" stroke="none" 
	d="
M277.549194,234.682175 
	C280.681671,234.390457 283.464050,234.390457 286.594238,234.390457 
	C286.594238,238.482101 286.594238,242.243256 286.594238,246.998123 
	C289.818848,243.214630 292.405823,240.179306 295.312683,236.768646 
	C297.258881,239.294800 300.109558,241.473587 300.607605,244.098694 
	C301.045624,246.407608 299.342255,249.586929 297.723328,251.731781 
	C293.462646,257.376648 293.281128,257.230072 298.574402,262.111511 
	C301.104797,264.445038 303.611023,266.804840 306.277466,269.291962 
	C303.533478,272.908081 301.060760,276.166687 298.523132,279.510803 
	C295.170563,275.702728 291.852295,271.933563 288.533997,268.164429 
	C288.133728,268.479462 287.733490,268.794495 287.333221,269.109528 
	C287.632599,272.499359 287.931976,275.889160 288.264038,279.649109 
	C284.612305,279.649109 281.261444,279.649109 277.925079,279.649109 
	C282.081543,276.261780 282.089050,274.216644 278.521240,270.003998 
	C277.344147,268.614136 276.270020,266.563629 276.289734,264.828186 
	C276.402832,254.874588 276.859161,244.924911 277.549194,234.682175 
z"/>
<path fill="#F2F2F2" opacity="1.000000" stroke="none" 
	d="
M342.478333,275.992432 
	C342.201050,277.355408 342.025757,278.325531 341.617828,280.582855 
	C339.585571,274.877380 337.948486,270.281281 336.124359,265.160095 
	C338.860748,265.160095 340.731873,265.160095 343.155273,265.160095 
	C342.955200,268.792816 342.767761,272.196198 342.478333,275.992432 
z"/>
<path fill="#E21D07" opacity="1.000000" stroke="none" 
	d="
M107.886368,191.277374 
	C106.937256,186.968857 105.971443,183.115143 105.137024,179.233185 
	C104.345100,175.548920 103.690735,171.835098 102.876648,167.620544 
	C106.544518,167.096191 109.917198,166.614044 113.992119,166.031509 
	C115.902016,173.313065 117.799065,180.545609 119.907578,188.584412 
	C122.892990,184.901779 125.238213,182.008850 127.989647,178.614853 
	C130.142410,182.201004 132.130615,185.513000 134.574692,189.584427 
	C137.537445,181.808578 140.207169,174.801788 142.901627,167.730072 
	C147.095200,168.788361 150.717667,169.702515 154.985168,170.779449 
	C153.313004,174.780762 151.563354,178.664062 150.057053,182.639557 
	C147.483963,189.430740 145.483994,196.471619 142.478668,203.058746 
	C138.149307,212.547974 141.492447,211.011658 129.100128,210.845871 
	C128.201569,207.691040 127.242271,204.322998 126.034393,200.082184 
	C124.538780,203.146225 122.994759,205.719772 121.996040,208.489929 
	C120.389351,212.946381 116.659569,210.851379 113.885780,211.144531 
	C112.942909,211.244186 111.095497,209.158478 110.792473,207.816055 
	C109.593758,202.505630 108.843567,197.093964 107.886368,191.277374 
z"/>
<path fill="#0099D5" opacity="1.000000" stroke="none" 
	d="
M57.495312,210.988678 
	C49.469810,211.034653 41.863937,211.034653 33.598709,211.034653 
	C33.421001,207.097351 33.199158,202.825989 33.041603,198.552261 
	C32.747784,190.582153 32.463802,182.611465 32.228844,174.639465 
	C32.066982,169.147598 35.962112,165.513718 41.531410,166.287506 
	C46.289932,166.948654 51.360741,167.285309 55.570457,169.286377 
	C58.304222,170.585876 60.884007,174.399368 61.464897,177.476791 
	C62.171791,181.221741 60.706093,185.376801 60.076073,190.141968 
	C67.332008,197.513397 66.762558,207.102020 57.495312,210.988678 
M49.541702,176.941681 
	C48.375481,176.749466 47.209263,176.557251 45.892288,176.340195 
	C45.892288,178.742966 45.892288,180.636414 45.892288,182.507126 
	C51.238468,182.957581 51.485592,182.646255 49.541702,176.941681 
M50.488338,197.116623 
	C49.175167,196.608368 47.862000,196.100128 46.295403,195.493790 
	C46.295403,197.992081 46.295403,199.915085 46.295403,201.767136 
	C50.020603,202.702118 51.611626,201.530930 50.488338,197.116623 
z"/>
<path fill="#F7CC00" opacity="1.000000" stroke="none" 
	d="
M100.864182,181.908966 
	C100.308395,190.010757 99.621811,197.710098 98.967827,205.043900 
	C94.117813,206.708191 89.741188,208.053650 85.484253,209.707275 
	C79.009453,212.222443 72.554291,210.271210 70.271942,203.463715 
	C67.561028,195.377869 63.414173,187.289566 65.570648,178.263077 
	C66.055191,176.234894 67.109688,174.161469 68.435944,172.547913 
	C73.563721,166.309219 80.548401,164.314606 87.835373,166.889938 
	C91.171387,168.068939 93.532967,172.206894 96.139893,175.175552 
	C97.852867,177.126221 99.214455,179.385468 100.864182,181.908966 
M78.296524,190.589508 
	C80.008812,192.119843 82.073097,194.554581 84.063492,191.969833 
	C85.679680,189.871063 85.945946,186.732742 86.823814,184.015503 
	C78.391441,181.944962 77.665833,182.517288 78.296524,190.589508 
z"/>
<path fill="#E21D07" opacity="1.000000" stroke="none" 
	d="
M236.046921,201.958572 
	C236.046921,205.057297 236.046921,208.156036 236.046921,211.177704 
	C227.493362,212.597015 224.932632,211.017441 224.139099,202.212387 
	C223.259247,192.449539 223.359818,182.598648 223.020142,172.786575 
	C222.929382,170.164505 223.994781,168.905106 226.777954,168.688797 
	C230.748215,168.380234 234.672638,167.516235 238.639984,167.128143 
	C245.234314,166.483063 252.851822,173.323257 252.973251,179.903809 
	C253.066360,184.949677 254.459747,190.284134 249.534180,194.250900 
	C249.023483,194.662216 249.392181,197.035294 250.089188,197.914108 
	C252.220444,200.601334 254.711044,203.003555 256.960022,205.407806 
	C256.747833,206.018066 256.732697,206.400497 256.533936,206.584457 
	C247.639465,214.814835 242.277344,207.868393 236.292038,201.804840 
	C235.746384,201.668762 235.586395,201.674774 235.426407,201.680771 
	C235.633240,201.773376 235.840088,201.865982 236.046921,201.958572 
M240.147644,182.201767 
	C238.688141,181.339462 237.228622,180.477158 235.253113,179.309967 
	C234.885788,181.663803 234.332489,183.280838 234.492172,184.824112 
	C234.610321,185.965988 235.614700,187.873093 236.298691,187.906296 
	C237.431992,187.961319 238.878525,187.004333 239.711868,186.052414 
	C240.361572,185.310211 240.280151,183.927979 240.147644,182.201767 
z"/>
<path fill="#41AD31" opacity="1.000000" stroke="none" 
	d="
M168.384811,196.940735 
	C172.820969,196.180603 171.430923,194.710754 169.232147,193.110580 
	C165.404709,190.325089 161.591705,187.519730 157.601303,184.597198 
	C161.789810,178.779480 165.318939,172.974792 169.833267,168.078445 
	C171.498718,166.272064 175.459915,166.309631 178.421661,166.050247 
	C181.202530,165.806686 184.723572,164.918350 185.380020,169.430222 
	C185.401505,169.577850 185.547302,169.712433 185.648529,169.842697 
	C187.745224,172.541458 191.640991,175.344040 191.490570,177.909744 
	C191.299347,181.171478 187.829315,184.240997 185.728607,187.461349 
	C184.321548,186.060699 183.236893,184.497940 181.745804,183.649292 
	C180.550003,182.968735 178.861130,183.154572 177.391068,182.955917 
	C177.994202,184.470230 178.230682,186.333740 179.273819,187.429031 
	C181.747192,190.026093 184.842499,192.049744 187.190765,194.738113 
	C188.177780,195.868088 188.457825,198.214630 188.103317,199.793488 
	C187.349869,203.148972 186.213593,206.481598 184.717651,209.573685 
	C184.180542,210.683884 182.197021,211.590973 180.806030,211.696060 
	C176.995941,211.983948 173.148911,211.849182 169.318527,211.776398 
	C167.193146,211.736023 155.807114,202.743866 156.204330,200.920517 
	C156.880112,197.818466 158.619324,194.948074 160.310745,191.063965 
	C163.259109,193.284927 165.629974,195.070877 168.384811,196.940735 
z"/>
<path fill="#F5CB00" opacity="1.000000" stroke="none" 
	d="
M205.392242,182.171402 
	C208.948441,183.688263 212.554520,184.803146 216.645691,186.068008 
	C216.645691,188.504608 216.645691,191.577026 216.645691,194.989273 
	C213.285797,195.507919 210.107956,195.998474 206.930115,196.489029 
	C206.865692,197.045105 206.801270,197.601181 206.736847,198.157257 
	C208.328384,198.439133 209.916229,198.939545 211.512085,198.966629 
	C220.348053,199.116608 223.138763,202.082596 222.743454,211.431061 
	C213.888809,211.431061 205.017456,211.431061 195.544617,211.431061 
	C194.642975,202.653687 193.384644,193.982697 193.093094,185.279327 
	C193.010849,182.823395 195.759232,180.272629 197.445587,177.356873 
	C194.414825,174.419571 193.073578,170.620193 196.324799,166.110016 
	C204.256989,166.110016 212.369675,166.110016 221.076813,166.110016 
	C220.238831,170.317276 219.450775,174.273911 218.533829,178.877686 
	C216.067627,179.213226 213.147705,179.483139 210.286148,180.048553 
	C208.623062,180.377167 207.053665,181.179993 205.392242,182.171402 
z"/>
<path fill="#41AE31" opacity="1.000000" stroke="none" 
	d="
M281.615112,184.428818 
	C280.801910,176.886292 284.143341,172.514938 290.576721,169.999786 
	C293.505981,168.854584 296.241669,166.652557 299.215576,166.333923 
	C302.501740,165.981827 307.241333,166.047302 309.086121,168.032608 
	C313.381836,172.655487 318.088837,178.165405 319.327911,184.015182 
	C320.662048,190.313919 318.323273,197.424225 317.321655,204.140884 
	C317.199036,204.963089 315.526459,205.806305 314.417328,206.179092 
	C311.753510,207.074448 308.916992,207.481308 306.293274,208.466400 
	C296.865692,212.006012 296.887543,212.066315 290.120819,205.127762 
	C287.349487,202.286102 284.419952,199.575531 281.890472,196.532578 
	C280.867462,195.301895 280.270264,193.338516 280.284302,191.715530 
	C280.304138,189.425781 281.071564,187.142517 281.615112,184.428818 
M303.235535,191.491074 
	C303.542999,188.989395 304.138855,186.459183 303.896912,184.011826 
	C303.852417,183.561798 299.348724,182.602295 298.752838,183.350632 
	C297.423737,185.019806 296.365204,187.860718 296.879333,189.771347 
	C297.389740,191.668243 299.509949,194.321487 303.235535,191.491074 
z"/>
<path fill="#F7CC00" opacity="1.000000" stroke="none" 
	d="
M328.624084,211.569366 
	C326.353180,211.628281 324.533295,211.628281 321.390900,211.628281 
	C321.986176,203.631546 322.388672,195.763290 323.243439,187.944458 
	C323.588837,184.785004 324.053986,182.237091 322.078918,179.082977 
	C320.569305,176.672211 320.175049,172.153427 321.488983,169.806305 
	C322.652496,167.727783 326.886719,166.357071 329.711212,166.443405 
	C334.627228,166.593674 339.892059,167.283615 344.249573,169.351303 
	C346.938080,170.627029 349.274689,174.680206 349.850983,177.836639 
	C350.514557,181.471329 349.063232,185.492111 348.425781,190.101944 
	C353.406464,195.307053 354.839539,200.587860 351.272766,206.435120 
	C349.970764,208.569580 346.994354,210.538559 344.522827,210.924576 
	C339.466400,211.714310 334.234650,211.381195 328.624084,211.569366 
M335.121094,176.119766 
	C334.565826,178.260666 334.010559,180.401581 333.455292,182.542480 
	C333.927795,182.869629 334.400330,183.196762 334.872833,183.523895 
	C336.124146,182.623947 338.460480,181.637405 338.397034,180.842361 
	C338.271515,179.269562 336.819275,177.802658 335.121094,176.119766 
M334.551025,195.677063 
	C334.428223,197.744003 334.305420,199.810944 334.092010,203.402924 
	C336.498901,201.868073 338.499298,201.318771 338.943542,200.168503 
	C340.121185,197.119217 337.215851,196.532730 334.551025,195.677063 
z"/>
<path fill="#F6CB00" opacity="1.000000" stroke="none" 
	d="
M474.000488,196.964111 
	C474.671631,201.988373 475.318756,206.562500 476.012024,211.462631 
	C469.911926,211.462631 464.172852,211.462631 457.830597,211.462631 
	C458.718445,202.123581 459.590027,192.955887 460.521973,183.152924 
	C456.845306,182.733597 452.972260,182.291870 448.976807,181.836166 
	C448.976807,176.705017 448.976807,171.667297 448.976807,166.579132 
	C461.389832,166.579132 473.289246,166.579132 485.583801,166.579132 
	C485.583801,172.966187 485.583801,178.846771 485.583801,184.916489 
	C481.300232,184.176865 476.995941,183.433670 472.121674,182.592072 
	C472.812042,187.774124 473.394257,192.144043 474.000488,196.964111 
z"/>
<path fill="#40AB30" opacity="1.000000" stroke="none" 
	d="
M392.395020,165.980347 
	C399.796478,165.966568 406.738251,165.966568 413.626190,165.966568 
	C413.891449,166.953903 414.124420,167.411621 414.120789,167.867477 
	C414.035645,178.614120 414.022461,178.555405 403.310547,180.110565 
	C402.021423,180.297729 400.884979,181.536743 399.677734,182.288239 
	C399.869507,182.773392 400.061310,183.258545 400.253082,183.743683 
	C402.839020,184.150162 405.474579,184.369980 407.990906,185.038498 
	C409.335297,185.395645 411.619751,187.035568 411.532562,187.231903 
	C410.361084,189.870270 413.063660,194.062332 408.642059,195.301392 
	C406.308899,195.955231 403.835663,196.109039 400.203522,196.681091 
	C404.774170,200.757111 409.577148,197.850998 413.551086,199.493240 
	C414.740692,203.227615 415.966187,207.074631 417.464203,211.777191 
	C408.492096,211.777191 400.256317,211.867737 392.029449,211.638672 
	C391.196869,211.615479 389.856171,209.738922 389.705017,208.596313 
	C388.704773,201.033936 387.363708,193.439621 387.331787,185.850647 
	C387.306396,179.818619 388.931030,173.769882 389.983246,167.756577 
	C390.102325,167.076065 391.259552,166.577209 392.395020,165.980347 
z"/>
<path fill="#0098D4" opacity="1.000000" stroke="none" 
	d="
M361.769897,180.039658 
	C359.033051,180.026276 356.752258,180.026276 354.639954,180.026276 
	C353.649994,175.433411 352.801361,171.496262 351.875519,167.200989 
	C363.396851,167.200989 374.329803,167.200989 385.411621,167.200989 
	C385.411621,172.031647 385.411621,175.627716 385.411621,179.705475 
	C382.298187,179.871872 379.404510,180.026535 375.466583,180.237015 
	C376.373077,186.192871 376.898071,191.906815 378.174347,197.447693 
	C379.730072,204.201538 375.548401,210.529694 368.690125,211.002014 
	C364.254578,211.307480 359.823456,211.677567 354.529388,212.084946 
	C355.649780,207.195267 356.603851,203.031494 357.687073,198.304138 
	C359.645844,198.075333 362.193451,197.777771 365.286926,197.416428 
	C364.785217,191.760315 364.336090,186.367157 363.764252,180.987030 
	C363.725800,180.625290 362.760254,180.362076 361.769897,180.039658 
z"/>
<path fill="#0098D4" opacity="1.000000" stroke="none" 
	d="
M444.119568,210.205719 
	C438.885986,210.607574 433.551544,212.381073 429.422974,210.866867 
	C425.014191,209.249893 420.861359,205.113831 418.162170,201.040222 
	C412.721771,192.829620 414.193512,183.970032 418.332611,175.493057 
	C418.885010,174.361755 419.894135,173.355530 420.903870,172.560974 
	C428.791870,166.353760 434.142853,165.292511 444.663635,167.719025 
	C444.662415,172.612137 444.662415,177.500763 444.662415,183.697037 
	C438.443207,178.621689 432.717468,177.512833 427.542999,183.162949 
	C425.798126,185.068192 427.223938,193.274170 429.095367,195.215973 
	C434.894287,201.232986 439.111389,195.724457 444.287628,192.702103 
	C445.560974,197.970779 446.865143,202.831482 447.754669,207.766922 
	C447.858582,208.343475 445.673370,209.332626 444.119568,210.205719 
z"/>
<path fill="#EAEAEA" opacity="1.000000" stroke="none" 
	d="
M453.273865,212.119812 
	C451.924713,207.530151 450.731903,202.552399 449.448639,197.197144 
	C451.530426,197.068573 452.970612,196.979630 455.328766,196.833984 
	C454.668457,202.015244 454.049347,206.873489 453.273865,212.119812 
z"/>
<path fill="#0E0C00" opacity="1.000000" stroke="none" 
	d="
M288.587402,63.474171 
	C291.213684,64.453743 294.950623,64.850311 295.380524,66.257347 
	C296.408905,69.623032 297.398804,75.033974 295.626770,76.748421 
	C292.923523,79.363823 287.917999,80.240852 283.806305,80.493469 
	C281.695190,80.623177 279.232208,77.990730 277.274719,76.222885 
	C276.472168,75.498062 276.212830,73.710747 276.376465,72.497124 
	C276.568909,71.070221 277.483459,69.738892 278.095032,68.370651 
	C281.010559,61.847984 281.011810,61.848537 288.587402,63.474171 
z"/>
<path fill="#00090C" opacity="1.000000" stroke="none" 
	d="
M210.234848,50.781578 
	C213.655945,51.790318 217.921249,50.697334 217.663132,56.346806 
	C217.386658,62.398239 215.540100,63.774704 205.966125,63.491394 
	C205.798508,62.934784 205.463379,62.325218 205.454926,61.711147 
	C205.404678,58.068317 205.430130,54.424446 205.430130,50.053154 
	C207.141342,50.310139 208.484970,50.511921 210.234848,50.781578 
z"/>
<path fill="#000C11" opacity="1.000000" stroke="none" 
	d="
M218.300064,97.032066 
	C214.611389,98.068108 211.249283,98.835617 207.425476,99.708519 
	C207.425476,94.939278 207.425476,90.592278 207.425476,86.236687 
	C217.153488,86.391426 219.867340,88.956413 218.300064,97.032066 
z"/>
<path fill="#1F1A00" opacity="1.000000" stroke="none" 
	d="
M253.523514,249.730927 
	C255.088806,249.615784 257.073090,249.426376 257.998260,250.326080 
	C258.776642,251.082977 258.784515,253.300858 258.276154,254.512161 
	C257.825500,255.585861 256.258453,256.315369 255.030853,256.832916 
	C254.787415,256.935547 253.458878,255.449829 253.316132,254.583618 
	C253.079361,253.146820 253.398575,251.618408 253.523514,249.730927 
z"/>
<path fill="#020602" opacity="1.000000" stroke="none" 
	d="
M223.986176,255.870483 
	C222.052536,256.570251 220.182251,256.841003 218.311966,257.111786 
	C218.025497,256.679199 217.739029,256.246643 217.452560,255.814056 
	C218.715256,254.481964 219.977951,253.149887 221.240631,251.817810 
	C222.176941,253.025711 223.113235,254.233612 223.986176,255.870483 
z"/>
<path fill="#00090C" opacity="1.000000" stroke="none" 
	d="
M49.911636,177.120148 
	C51.485592,182.646255 51.238468,182.957581 45.892288,182.507126 
	C45.892288,180.636414 45.892288,178.742966 45.892288,176.340195 
	C47.209263,176.557251 48.375481,176.749466 49.911636,177.120148 
z"/>
<path fill="#000709" opacity="1.000000" stroke="none" 
	d="
M50.704430,197.488678 
	C51.611626,201.530930 50.020603,202.702118 46.295403,201.767136 
	C46.295403,199.915085 46.295403,197.992081 46.295403,195.493790 
	C47.862000,196.100128 49.175167,196.608368 50.704430,197.488678 
z"/>
<path fill="#090800" opacity="1.000000" stroke="none" 
	d="
M78.073334,190.219177 
	C77.665833,182.517288 78.391441,181.944962 86.823814,184.015503 
	C85.945946,186.732742 85.679680,189.871063 84.063492,191.969833 
	C82.073097,194.554581 80.008812,192.119843 78.073334,190.219177 
z"/>
<path fill="#130201" opacity="1.000000" stroke="none" 
	d="
M240.335648,182.515961 
	C240.280151,183.927979 240.361572,185.310211 239.711868,186.052414 
	C238.878525,187.004333 237.431992,187.961319 236.298691,187.906296 
	C235.614700,187.873093 234.610321,185.965988 234.492172,184.824112 
	C234.332489,183.280838 234.885788,181.663803 235.253113,179.309967 
	C237.228622,180.477158 238.688141,181.339462 240.335648,182.515961 
z"/>
<path fill="#060504" opacity="1.000000" stroke="none" 
	d="
M236.027237,201.977280 
	C235.840088,201.865982 235.633240,201.773376 235.426407,201.680771 
	C235.586395,201.674774 235.746384,201.668762 235.939209,201.849915 
	C235.972061,202.037079 236.007553,201.995987 236.027237,201.977280 
z"/>
<path fill="#040C03" opacity="1.000000" stroke="none" 
	d="
M302.899658,191.688629 
	C299.509949,194.321487 297.389740,191.668243 296.879333,189.771347 
	C296.365204,187.860718 297.423737,185.019806 298.752838,183.350632 
	C299.348724,182.602295 303.852417,183.561798 303.896912,184.011826 
	C304.138855,186.459183 303.542999,188.989395 302.899658,191.688629 
z"/>
<path fill="#181400" opacity="1.000000" stroke="none" 
	d="
M335.518311,176.205872 
	C336.819275,177.802658 338.271515,179.269562 338.397034,180.842361 
	C338.460480,181.637405 336.124146,182.623947 334.872833,183.523895 
	C334.400330,183.196762 333.927795,182.869629 333.455292,182.542480 
	C334.010559,180.401581 334.565826,178.260666 335.518311,176.205872 
z"/>
<path fill="#1C1700" opacity="1.000000" stroke="none" 
	d="
M334.922546,195.577545 
	C337.215851,196.532730 340.121185,197.119217 338.943542,200.168503 
	C338.499298,201.318771 336.498901,201.868073 334.092010,203.402924 
	C334.305420,199.810944 334.428223,197.744003 334.922546,195.577545 
z"/>
</svg>